<?xml version="1.0" encoding="iso-8859-1"?>
<!-- Generator: Adobe Illustrator 19.0.0, SVG Export Plug-In . SVG Version: 6.00 Build 0)  -->
<svg version="1.1" id="Layer_1" xmlns="http://www.w3.org/2000/svg" xmlns:xlink="http://www.w3.org/1999/xlink" x="0px" y="0px"
	 viewBox="0 0 495 495" style="enable-background:new 0 0 495 495;" xml:space="preserve">
<g>
	<polygon style="fill:#EE8700;" points="247.5,0 247.5,40 455,40 455,455 247.5,455 247.5,495 495,495 495,0 	"/>
	<polygon style="fill:#FFA733;" points="40,455 40,40 247.5,40 247.5,0 0,0 0,495 247.5,495 247.5,455 	"/>
	<path style="fill:#FFA733;" d="M173.404,310.486h68.192l18.428,61.115h57.887l-73.885-238.312h-70.621l-72.949,238.312h55.875
		L173.404,310.486z M206.199,173.546h0.693c3.505,14.264,26.966,96.545,26.966,96.545h-52.75
		C181.108,270.091,202.658,187.81,206.199,173.546z"/>
	<rect x="338.95" y="198.775" style="fill:#FFA733;" width="53.824" height="172.826"/>
	<path style="fill:#FFA733;" d="M365.533,177.503c17.769,0,29.012-12.078,29.012-26.86c-0.415-15.583-11.243-27.244-28.595-27.244
		c-17.352,0-28.735,11.66-28.353,27.244C337.215,165.425,348.598,177.503,365.533,177.503z"/>
</g>
<g>
</g>
<g>
</g>
<g>
</g>
<g>
</g>
<g>
</g>
<g>
</g>
<g>
</g>
<g>
</g>
<g>
</g>
<g>
</g>
<g>
</g>
<g>
</g>
<g>
</g>
<g>
</g>
<g>
</g>
</svg>
