<svg width="1922" height="1834" viewBox="0 0 1922 1834" fill="none" xmlns="http://www.w3.org/2000/svg">
<rect width="1920" height="1833" fill="black" fill-opacity="0" transform="translate(1)"/>
<path d="M449.5 1361.86C328.5 1299.68 175.5 1330.98 1 1411.87V1833H1921V1658V1504.5C1921 1504.5 1451.5 1314.8 1109 1487.86C789.345 1649.38 685.902 1483.35 449.5 1361.86Z" fill="#1F417C"/>
<rect width="428" height="1351" fill="black" fill-opacity="0" transform="translate(924 430)"/>
<rect width="428" height="1351" fill="black" fill-opacity="0" transform="translate(924 430)"/>
<rect width="428" height="1339.86" fill="black" fill-opacity="0" transform="translate(924 430)"/>
<path d="M1352 1769.86C1171.16 1565.44 1120.83 1418.37 1201.04 1328.6C1321.32 1193.96 1307.17 1101.82 1309.54 1007.33C1311.88 912.846 1271.78 820.702 1189.23 764.03C1106.67 707.327 1073.69 650.686 1146.83 542.025C1191.79 475.196 1200.29 434.219 1190.71 430.2C1185.4 427.953 1180.57 444.914 1166.29 467.254C1154.82 485.163 1135.11 507.25 1120.83 520.16C1070.97 565.251 1051.16 611.449 1046.77 666.571C1037.32 784.693 1161.9 845.542 1169.17 918.826C1176.43 992.111 1140.48 1095.77 1099.12 1144.09C1057.8 1192.41 960.455 1227.03 929.777 1401.85C909.336 1518.39 943.141 1641.04 1031.19 1769.86H1352Z" fill="#FF623B"/>
<rect width="318.685" height="993.589" fill="black" fill-opacity="0" transform="translate(1032.95 778.162)"/>
<path d="M1274.05 857.991C1273.67 853.498 1259.91 833.758 1250.43 821.67C1243.6 812.968 1233.94 801.45 1224.57 792.089C1214.46 782.354 1200.54 771.29 1213.71 784.6C1232.53 803.82 1242.12 834.451 1245.41 848.754C1248.69 863.056 1252.39 878.371 1257.51 907.736C1262.66 937.258 1259.37 984.374 1256.24 1004.85C1251.38 1036.62 1229.64 1101.55 1218.05 1129.39C1206.45 1157.21 1179.06 1205.56 1123.42 1251.76C1066.71 1298.84 1047.25 1360.8 1037.26 1423.83C1021.72 1521.92 1059.7 1639.06 1148.16 1771.26C1148.6 1771.93 1217.48 1771.9 1351.62 1771.26C1352.64 1771.26 1260.48 1663.99 1227.5 1604.5C1212.9 1578.11 1198.93 1555.46 1188.25 1532.17C1180.35 1511.4 1179.33 1508.8 1175.85 1497.92C1166.12 1446.31 1162.6 1413.39 1166.99 1398.51C1173.56 1376.21 1211.08 1318.63 1222.12 1305.36C1231.7 1293.85 1282.02 1221.31 1282.53 1203.56C1282.84 1192.27 1291.98 1180.05 1296.56 1165.56C1301.14 1151.1 1301.26 1150.15 1301.26 1143.47C1301.26 1125.18 1313.43 1088.76 1306.32 1065.92C1299.24 1043.07 1310.55 1066.17 1309.7 1020.32C1308.88 974.47 1310.39 973.331 1308.37 964.218C1307.01 958.111 1305.53 940.744 1301.26 929.19L1296.91 911.163L1291.82 894.256C1290.74 890.143 1285.07 878.464 1274.05 857.991Z" fill="#FF8B64"/>
<rect width="95.2193" height="110.964" fill="black" fill-opacity="0" transform="translate(1230.76 1643.87)"/>
<path d="M1311.78 1676.95C1330.52 1704.96 1330.74 1737.74 1312.29 1750.11C1293.84 1762.45 1263.66 1749.76 1244.96 1721.76C1226.22 1693.76 1226 1660.97 1244.45 1648.6C1262.9 1636.23 1293.08 1648.95 1311.78 1676.95Z" fill="#FFC0AA"/>
<rect width="59.5911" height="90.4454" fill="black" fill-opacity="0" transform="translate(1130.44 1413.21)"/>
<path d="M1190.02 1457.73C1190.59 1482.7 1177.73 1503.27 1161.27 1503.65C1144.84 1504.03 1131.03 1484.06 1130.46 1459.09C1129.89 1434.16 1142.78 1413.59 1159.21 1413.21C1175.64 1412.83 1189.45 1432.8 1190.02 1457.73Z" fill="#FFC0AA"/>
<rect width="61.5402" height="79.7528" fill="black" fill-opacity="0" transform="translate(1149.25 1316.87)"/>
<path d="M1205.09 1368.53C1195.26 1389.54 1176.02 1401.35 1162.18 1394.83C1148.34 1388.34 1145.09 1366 1154.95 1344.96C1164.77 1323.95 1184.01 1312.14 1197.85 1318.66C1211.69 1325.15 1214.94 1347.49 1205.09 1368.53Z" fill="#FFC0AA"/>
<rect width="55.5762" height="66.3252" fill="black" fill-opacity="0" transform="translate(1207.09 1237.37)"/>
<path d="M1255.07 1283.16C1244.55 1300.09 1226.95 1308.16 1215.8 1301.2C1204.65 1294.24 1204.14 1274.84 1214.69 1257.91C1225.21 1240.98 1242.84 1232.91 1254 1239.87C1265.12 1246.83 1265.62 1266.23 1255.07 1283.16Z" fill="#FFC0AA"/>
<rect width="44.904" height="62.6668" fill="black" fill-opacity="0" transform="translate(1255.47 1163.68)"/>
<path d="M1298.1 1201.49C1292.7 1218.42 1279.24 1229.24 1268.09 1225.67C1256.97 1222.09 1252.32 1205.45 1257.72 1188.52C1263.16 1171.62 1276.59 1160.77 1287.74 1164.37C1298.89 1167.95 1303.53 1184.59 1298.1 1201.49Z" fill="#FFC0AA"/>
<rect width="37.3045" height="56.0781" fill="black" fill-opacity="0" transform="translate(1278.97 1097.51)"/>
<path d="M1316.05 1127.48C1314.43 1142.92 1304.86 1154.56 1294.69 1153.52C1284.52 1152.44 1277.6 1139.03 1279.21 1123.62C1280.82 1108.18 1290.39 1096.5 1300.56 1097.58C1310.74 1098.65 1317.66 1112.04 1316.05 1127.48Z" fill="#FFC0AA"/>
<rect width="31.9716" height="48.5467" fill="black" fill-opacity="0" transform="translate(1288.77 1040.14)"/>
<path d="M1320.72 1063.97C1321.1 1077.36 1314.25 1088.43 1305.43 1088.68C1296.62 1088.91 1289.16 1078.24 1288.78 1064.86C1288.4 1051.47 1295.26 1040.4 1304.07 1040.14C1312.89 1039.92 1320.34 1050.59 1320.72 1063.97Z" fill="#FFC0AA"/>
<rect width="31.9982" height="48.5235" fill="black" fill-opacity="0" transform="translate(1250.21 1034.79)"/>
<path d="M1282.18 1059.67C1281.64 1073.05 1274.09 1083.62 1265.27 1083.3C1256.46 1082.96 1249.7 1071.82 1250.24 1058.43C1250.74 1045.05 1258.32 1034.45 1267.14 1034.8C1275.95 1035.11 1282.68 1046.28 1282.18 1059.67Z" fill="#FFC0AA"/>
<rect width="34.9658" height="51.9188" fill="black" fill-opacity="0" transform="translate(1237.98 1091.24)"/>
<path d="M1272.48 1119.85C1270.27 1134.12 1260.82 1144.5 1251.44 1143.01C1242.05 1141.56 1236.24 1128.78 1238.45 1114.54C1240.69 1100.3 1250.11 1089.92 1259.49 1091.37C1268.88 1092.83 1274.69 1105.61 1272.48 1119.85Z" fill="#FFC0AA"/>
<rect width="41.8533" height="58.4227" fill="black" fill-opacity="0" transform="translate(1213.4 1148.84)"/>
<path d="M1253.14 1184.09C1248.09 1199.88 1235.54 1209.97 1225.18 1206.62C1214.79 1203.29 1210.46 1187.79 1215.51 1172C1220.57 1156.24 1233.08 1146.15 1243.47 1149.47C1253.87 1152.82 1258.2 1168.33 1253.14 1184.09Z" fill="#FFC0AA"/>
<rect width="55.5797" height="66.3474" fill="black" fill-opacity="0" transform="translate(1160.25 1207.66)"/>
<path d="M1208.25 1253.45C1197.69 1270.38 1180.1 1278.48 1168.94 1271.52C1157.79 1264.55 1157.32 1245.16 1167.84 1228.23C1178.39 1211.3 1195.99 1203.2 1207.14 1210.16C1218.29 1217.15 1218.77 1236.52 1208.25 1253.45Z" fill="#FFC0AA"/>
<rect width="62.8499" height="78.7136" fill="black" fill-opacity="0" transform="translate(1089.88 1283.7)"/>
<path d="M1145.75 1336.1C1134.85 1356.6 1115.04 1367.39 1101.55 1360.18C1088.06 1353 1085.95 1330.5 1096.85 1310.02C1107.75 1289.52 1127.56 1278.73 1141.05 1285.94C1154.54 1293.13 1156.65 1315.63 1145.75 1336.1Z" fill="#FFC0AA"/>
<rect width="63.5289" height="96.3003" fill="black" fill-opacity="0" transform="translate(1055.32 1402.3)"/>
<path d="M1118.77 1449.03C1119.97 1475.61 1106.74 1497.82 1089.23 1498.58C1071.73 1499.37 1056.56 1478.43 1055.39 1451.88C1054.19 1425.3 1067.43 1403.09 1084.94 1402.33C1102.44 1401.54 1117.6 1422.48 1118.77 1449.03Z" fill="#FFC0AA"/>
<rect width="76.1225" height="104.734" fill="black" fill-opacity="0" transform="translate(1076 1538.93)"/>
<path d="M1147.65 1579.49C1157.54 1607.66 1150.49 1635.79 1131.95 1642.3C1113.4 1648.82 1090.34 1631.26 1080.48 1603.1C1070.59 1574.97 1077.64 1546.81 1096.18 1540.29C1114.73 1533.77 1137.79 1551.33 1147.65 1579.49Z" fill="#FFC0AA"/>
<rect width="95.1953" height="110.964" fill="black" fill-opacity="0" transform="translate(1139.86 1670.04)"/>
<path d="M1220.88 1703.12C1239.59 1731.13 1239.81 1763.91 1221.36 1776.28C1202.91 1788.62 1172.74 1775.93 1154.03 1747.93C1135.33 1719.92 1135.11 1687.14 1153.56 1674.77C1171.98 1662.4 1202.15 1675.12 1220.88 1703.12Z" fill="#FFC0AA"/>
<rect width="18.4005" height="27.3974" fill="black" fill-opacity="0" transform="translate(1270.26 915.123)"/>
<path d="M1288.34 927.243C1289.66 934.742 1286.79 941.545 1281.89 942.431C1277 943.286 1271.94 937.907 1270.58 930.407C1269.26 922.876 1272.16 916.073 1277.06 915.219C1281.96 914.333 1287.01 919.712 1288.34 927.243Z" fill="#FFC0AA"/>
<rect width="77.5494" height="95.9114" fill="black" fill-opacity="0" transform="translate(1162.17 1530.57)"/>
<path d="M1230.58 1562C1244.39 1586.83 1242.31 1614.43 1225.94 1623.54C1209.61 1632.65 1185.09 1619.9 1171.31 1595.06C1157.51 1570.19 1159.56 1542.63 1175.93 1533.52C1192.29 1524.4 1216.78 1537.16 1230.58 1562Z" fill="#FFC0AA"/>
<rect width="24.8243" height="38.559" fill="black" fill-opacity="0" transform="translate(1294 989.301)"/>
<path d="M1318.73 1009.51C1317.91 1020.15 1311.75 1028.37 1304.93 1027.84C1298.13 1027.33 1293.27 1018.28 1294.09 1007.65C1294.91 997.015 1301.1 988.788 1307.89 989.326C1314.69 989.832 1319.55 998.882 1318.73 1009.51Z" fill="#FFC0AA"/>
<rect width="25.6679" height="38.5502" fill="black" fill-opacity="0" transform="translate(1266.07 984.26)"/>
<path d="M1291.62 1004.7C1290.64 1015.3 1284.17 1023.44 1277.15 1022.77C1270.14 1022.14 1265.24 1012.99 1266.19 1002.39C1267.17 991.763 1273.65 983.662 1280.66 984.295C1287.67 984.928 1292.57 994.073 1291.62 1004.7Z" fill="#FFC0AA"/>
<rect width="18.8617" height="28.9214" fill="black" fill-opacity="0" transform="translate(1274.59 946.102)"/>
<path d="M1293.46 960.563C1293.46 968.537 1289.22 975.023 1284.01 975.023C1278.83 975.023 1274.59 968.537 1274.59 960.563C1274.59 952.557 1278.83 946.102 1284.04 946.102C1289.25 946.102 1293.46 952.589 1293.46 960.563Z" fill="#FFC0AA"/>
<rect width="18.8766" height="28.9262" fill="black" fill-opacity="0" transform="translate(1297.49 948.916)"/>
<path d="M1316.36 963.126C1316.55 971.1 1312.51 977.682 1307.29 977.84C1302.11 977.967 1297.72 971.606 1297.5 963.601C1297.28 955.627 1301.35 949.045 1306.54 948.919C1311.75 948.76 1316.14 955.121 1316.36 963.126Z" fill="#FFC0AA"/>
<rect width="33.2321" height="41.5632" fill="black" fill-opacity="0" transform="translate(1262.79 1676.23)"/>
<path d="M1292.29 1690.09C1298.07 1700.91 1297.03 1712.77 1289.92 1716.6C1282.84 1720.43 1272.35 1714.77 1266.54 1703.94C1260.72 1693.15 1261.8 1681.26 1268.88 1677.43C1275.98 1673.6 1286.47 1679.29 1292.29 1690.09Z" fill="#845F53"/>
<rect width="33.2365" height="41.5508" fill="black" fill-opacity="0" transform="translate(1172.39 1701.26)"/>
<path d="M1201.86 1715.11C1207.68 1725.9 1206.64 1737.8 1199.53 1741.63C1192.42 1745.43 1181.93 1739.76 1176.15 1728.97C1170.33 1718.15 1171.38 1706.29 1178.49 1702.46C1185.59 1698.63 1196.05 1704.29 1201.86 1715.11Z" fill="#845F53"/>
<rect width="30.6549" height="43.5133" fill="black" fill-opacity="0" transform="translate(1098.67 1567.97)"/>
<path d="M1128.03 1585.66C1131.44 1597.47 1127.9 1608.86 1120.13 1611.1C1112.39 1613.32 1103.35 1605.57 1099.97 1593.76C1096.56 1581.96 1100.1 1570.57 1107.87 1568.36C1115.61 1566.11 1124.65 1573.89 1128.03 1585.66Z" fill="#845F53"/>
<rect width="30.6497" height="38.3216" fill="black" fill-opacity="0" transform="translate(1186.25 1558.07)"/>
<path d="M1213.43 1570.82C1218.8 1580.79 1217.82 1591.77 1211.28 1595.28C1204.74 1598.83 1195.07 1593.57 1189.7 1583.61C1184.36 1573.64 1185.31 1562.69 1191.88 1559.18C1198.42 1555.64 1208.09 1560.86 1213.43 1570.82Z" fill="#845F53"/>
<rect width="26.9191" height="40.946" fill="black" fill-opacity="0" transform="translate(1073.62 1429.98)"/>
<path d="M1100.54 1450.36C1100.61 1461.69 1094.63 1470.9 1087.21 1470.93C1079.79 1470.99 1073.69 1461.85 1073.62 1450.55C1073.56 1439.25 1079.53 1430.01 1086.96 1429.98C1094.38 1429.95 1100.48 1439.06 1100.54 1450.36Z" fill="#845F53"/>
<rect width="26.9191" height="40.9459" fill="black" fill-opacity="0" transform="translate(1146.8 1437.96)"/>
<path d="M1173.71 1458.33C1173.78 1469.63 1167.81 1478.87 1160.38 1478.9C1152.96 1478.93 1146.86 1469.82 1146.8 1458.49C1146.73 1447.2 1152.7 1437.99 1160.13 1437.96C1167.55 1437.89 1173.62 1447.04 1173.71 1458.33Z" fill="#845F53"/>
<rect width="23.9087" height="30.3418" fill="black" fill-opacity="0" transform="translate(1169.44 1340.09)"/>
<path d="M1190.84 1360.08C1186.79 1368.03 1179.28 1372.3 1174.06 1369.64C1168.85 1366.95 1167.9 1358.37 1171.95 1350.43C1175.99 1342.49 1183.51 1338.22 1188.72 1340.88C1193.93 1343.53 1194.88 1352.14 1190.84 1360.08Z" fill="#845F53"/>
<rect width="23.8771" height="30.3227" fill="black" fill-opacity="0" transform="translate(1110.89 1306.39)"/>
<path d="M1132.26 1326.38C1128.22 1334.29 1120.73 1338.6 1115.52 1335.91C1110.31 1333.25 1109.36 1324.64 1113.4 1316.73C1117.45 1308.79 1124.93 1304.52 1130.15 1307.18C1135.36 1309.83 1136.31 1318.44 1132.26 1326.38Z" fill="#845F53"/>
<rect width="22.0177" height="26.6863" fill="black" fill-opacity="0" transform="translate(1178.93 1226.36)"/>
<path d="M1198.11 1244.56C1194.03 1251.42 1187.05 1254.81 1182.56 1252.12C1178.04 1249.46 1177.7 1241.71 1181.77 1234.84C1185.85 1227.98 1192.8 1224.59 1197.32 1227.28C1201.83 1229.97 1202.18 1237.72 1198.11 1244.56Z" fill="#845F53"/>
<rect width="22.0209" height="26.718" fill="black" fill-opacity="0" transform="translate(1225.37 1257.18)"/>
<path d="M1244.55 1275.41C1240.47 1282.27 1233.52 1285.66 1229 1282.97C1224.49 1280.28 1224.14 1272.53 1228.21 1265.66C1232.29 1258.8 1239.27 1255.41 1243.79 1258.1C1248.28 1260.79 1248.62 1268.54 1244.55 1275.41Z" fill="#845F53"/>
<rect width="19.0178" height="26.7408" fill="black" fill-opacity="0" transform="translate(1269.22 1180.09)"/>
<path d="M1287.33 1196.11C1285.12 1203.36 1279.43 1208.04 1274.69 1206.55C1269.95 1205.1 1267.9 1198.04 1270.11 1190.8C1272.35 1183.58 1278.01 1178.9 1282.78 1180.35C1287.52 1181.81 1289.57 1188.9 1287.33 1196.11Z" fill="#845F53"/>
<rect width="19.0179" height="26.7621" fill="black" fill-opacity="0" transform="translate(1226.88 1163.67)"/>
<path d="M1244.99 1179.72C1242.78 1186.93 1237.12 1191.62 1232.35 1190.16C1227.61 1188.67 1225.56 1181.62 1227.77 1174.4C1230.02 1167.16 1235.67 1162.47 1240.44 1163.93C1245.18 1165.42 1247.23 1172.47 1244.99 1179.72Z" fill="#845F53"/>
<rect width="15.3854" height="23.2606" fill="black" fill-opacity="0" transform="translate(1290.71 1113.92)"/>
<path d="M1306.03 1126.21C1305.49 1132.6 1301.61 1137.51 1297.41 1137.16C1293.2 1136.81 1290.23 1131.31 1290.77 1124.88C1291.31 1118.49 1295.19 1113.59 1299.4 1113.93C1303.6 1114.28 1306.57 1119.79 1306.03 1126.21Z" fill="#845F53"/>
<rect width="15.3854" height="23.2606" fill="black" fill-opacity="0" transform="translate(1248.44 1105.56)"/>
<path d="M1263.76 1117.86C1263.22 1124.25 1259.33 1129.16 1255.13 1128.81C1250.93 1128.46 1247.96 1122.95 1248.5 1116.53C1249.04 1110.14 1252.92 1105.23 1257.12 1105.58C1261.33 1105.96 1264.3 1111.44 1263.76 1117.86Z" fill="#845F53"/>
<rect width="12.7093" height="19.2038" fill="black" fill-opacity="0" transform="translate(1260.23 1047.95)"/>
<path d="M1272.89 1058.09C1272.45 1063.37 1269.26 1067.42 1265.78 1067.14C1262.3 1066.85 1259.84 1062.29 1260.28 1057.01C1260.76 1051.73 1263.95 1047.68 1267.42 1047.96C1270.9 1048.24 1273.33 1052.8 1272.89 1058.09Z" fill="#845F53"/>
<rect width="12.6601" height="19.2444" fill="black" fill-opacity="0" transform="translate(1299.23 1054.79)"/>
<path d="M1311.88 1064.67C1311.65 1069.98 1308.68 1074.16 1305.18 1074.03C1301.7 1073.88 1299.05 1069.48 1299.24 1064.16C1299.46 1058.85 1302.46 1054.67 1305.94 1054.79C1309.44 1054.92 1312.1 1059.35 1311.88 1064.67Z" fill="#845F53"/>
<rect width="9.66677" height="14.667" fill="black" fill-opacity="0" transform="translate(1302.31 1001.03)"/>
<path d="M1311.94 1008.72C1311.65 1012.74 1309.25 1015.87 1306.6 1015.68C1303.95 1015.49 1302.05 1012.05 1302.33 1008C1302.62 1003.98 1305.02 1000.84 1307.67 1001.03C1310.33 1001.22 1312.25 1004.67 1311.94 1008.72Z" fill="#845F53"/>
<rect width="9.66677" height="14.667" fill="black" fill-opacity="0" transform="translate(1274.56 996.564)"/>
<path d="M1284.2 1004.23C1283.91 1008.28 1281.51 1011.41 1278.86 1011.22C1276.21 1011.03 1274.28 1007.58 1274.59 1003.53C1274.88 999.515 1277.28 996.382 1279.93 996.572C1282.59 996.762 1284.48 1000.21 1284.2 1004.23Z" fill="#845F53"/>
<rect width="7.80717" height="11.8982" fill="black" fill-opacity="0" transform="translate(1303.28 957.367)"/>
<path d="M1311.09 963.253C1311.15 966.512 1309.47 969.233 1307.29 969.265C1305.15 969.297 1303.35 966.67 1303.28 963.379C1303.22 960.12 1304.92 957.399 1307.07 957.367C1309.22 957.336 1311.02 959.962 1311.09 963.253Z" fill="#845F53"/>
<rect width="7.80714" height="11.8982" fill="black" fill-opacity="0" transform="translate(1280.53 954.709)"/>
<path d="M1288.34 960.721C1288.27 964.012 1286.47 966.638 1284.33 966.607C1282.18 966.543 1280.47 963.854 1280.53 960.563C1280.6 957.304 1282.4 954.677 1284.55 954.709C1286.7 954.741 1288.4 957.43 1288.34 960.721Z" fill="#845F53"/>
<rect width="6.70239" height="10.1679" fill="black" fill-opacity="0" transform="translate(1276.41 924.042)"/>
<path d="M1283.09 928.889C1283.28 931.705 1281.96 934.078 1280.09 934.205C1278.26 934.331 1276.62 932.179 1276.43 929.363C1276.24 926.547 1277.56 924.174 1279.4 924.047C1281.26 923.921 1282.9 926.104 1283.09 928.889Z" fill="#845F53"/>
<rect width="6.85415" height="10.0861" fill="black" fill-opacity="0" transform="translate(1298.24 923.406)"/>
<path d="M1304.96 927.812C1305.49 930.565 1304.45 933.097 1302.65 933.445C1300.82 933.825 1298.92 931.863 1298.38 929.11C1297.85 926.325 1298.89 923.794 1300.69 923.446C1302.52 923.098 1304.42 925.06 1304.96 927.812Z" fill="#845F53"/>
<rect width="7.09645" height="9.90174" fill="black" fill-opacity="0" transform="translate(1282.67 890.745)"/>
<path d="M1289.41 894.652C1290.27 897.341 1289.54 899.968 1287.8 900.537C1286.03 901.107 1283.92 899.398 1283.03 896.74C1282.18 894.05 1282.9 891.424 1284.67 890.854C1286.41 890.285 1288.56 891.994 1289.41 894.652Z" fill="#845F53"/>
<rect width="16.8941" height="22.3809" fill="black" fill-opacity="0" transform="translate(1266.89 856.369)"/>
<path d="M1282.33 864.464C1284.96 870.413 1283.91 876.615 1280.06 878.324C1276.17 880.001 1270.93 876.583 1268.34 870.634C1265.72 864.717 1266.76 858.515 1270.61 856.807C1274.5 855.098 1279.74 858.547 1282.33 864.464Z" fill="#FFC0AA"/>
<rect width="18.3427" height="27.4346" fill="black" fill-opacity="0" transform="translate(1290.65 914.7)"/>
<path d="M1308.72 926.959C1309.95 934.49 1306.98 941.261 1302.08 942.052C1297.18 942.875 1292.19 937.432 1290.93 929.902C1289.7 922.371 1292.7 915.599 1297.6 914.776C1302.49 913.985 1307.48 919.428 1308.72 926.959Z" fill="#FFC0AA"/>
<rect width="16.0243" height="22.7359" fill="black" fill-opacity="0" transform="translate(1280.01 884.027)"/>
<path d="M1295.29 893.195C1297.15 899.334 1295.42 905.346 1291.4 906.549C1287.39 907.751 1282.62 903.764 1280.76 897.594C1278.89 891.423 1280.66 885.443 1284.67 884.24C1288.69 883.038 1293.46 887.025 1295.29 893.195Z" fill="#FFC0AA"/>
<rect width="13.2084" height="18.791" fill="black" fill-opacity="0" transform="translate(1264.65 890.904)"/>
<path d="M1277.28 898.512C1278.76 903.606 1277.28 908.542 1273.96 909.523C1270.65 910.504 1266.73 907.182 1265.24 902.087C1263.73 896.993 1265.21 892.056 1268.53 891.075C1271.85 890.095 1275.76 893.417 1277.28 898.512Z" fill="#FFC0AA"/>
<rect width="13.5937" height="18.5267" fill="black" fill-opacity="0" transform="translate(1254.58 866.402)"/>
<path d="M1267.23 873.419C1269.13 878.355 1268.05 883.387 1264.83 884.652C1261.61 885.886 1257.44 882.88 1255.51 877.912C1253.62 872.976 1254.69 867.945 1257.91 866.679C1261.17 865.445 1265.34 868.451 1267.23 873.419Z" fill="#FFC0AA"/>
<rect width="16.8946" height="22.363" fill="black" fill-opacity="0" transform="translate(1249.59 832.669)"/>
<path d="M1265.05 840.764C1267.64 846.713 1266.63 852.915 1262.75 854.592C1258.89 856.3 1253.65 852.883 1251.03 846.934C1248.43 840.985 1249.45 834.815 1253.33 833.106C1257.19 831.398 1262.46 834.847 1265.05 840.764Z" fill="#FFC0AA"/>
<rect width="6.73361" height="10.1678" fill="black" fill-opacity="0" transform="translate(1296.5 923.472)"/>
<path d="M1303.22 928.319C1303.41 931.135 1302.05 933.508 1300.22 933.635C1298.38 933.762 1296.71 931.578 1296.52 928.794C1296.33 925.977 1297.66 923.604 1299.52 923.478C1301.35 923.351 1303 925.503 1303.22 928.319Z" fill="#845F53"/>
<rect width="7.02622" height="9.9602" fill="black" fill-opacity="0" transform="translate(1284.46 889.809)"/>
<path d="M1291.18 893.829C1291.97 896.55 1291.18 899.145 1289.41 899.683C1287.61 900.189 1285.56 898.417 1284.77 895.727C1283.98 893.038 1284.77 890.411 1286.54 889.905C1288.31 889.367 1290.39 891.139 1291.18 893.829Z" fill="#845F53"/>
<rect width="7.32075" height="9.73053" fill="black" fill-opacity="0" transform="translate(1271.56 862.479)"/>
<path d="M1278.29 866.046C1279.4 868.641 1278.89 871.331 1277.19 872.027C1275.48 872.755 1273.24 871.236 1272.13 868.641C1271.06 866.046 1271.53 863.388 1273.24 862.661C1274.94 861.933 1277.22 863.452 1278.29 866.046Z" fill="#845F53"/>
<rect width="7.29549" height="9.76472" fill="black" fill-opacity="0" transform="translate(1254.63 838.73)"/>
<path d="M1261.39 842.346C1262.43 844.941 1261.93 847.63 1260.22 848.327C1258.51 849.023 1256.24 847.504 1255.2 844.877C1254.12 842.283 1254.63 839.625 1256.36 838.897C1258.07 838.201 1260.31 839.751 1261.39 842.346Z" fill="#845F53"/>
<rect width="5.51447" height="7.83329" fill="black" fill-opacity="0" transform="translate(1268.19 895.94)"/>
<path d="M1273.46 899.113C1274.09 901.233 1273.46 903.29 1272.07 903.701C1270.68 904.113 1269.03 902.72 1268.43 900.6C1267.8 898.48 1268.43 896.423 1269.82 896.012C1271.21 895.601 1272.86 896.993 1273.46 899.113Z" fill="#845F53"/>
<rect width="5.52729" height="7.80162" fill="black" fill-opacity="0" transform="translate(1258.46 871.575)"/>
<path d="M1263.76 874.748C1264.36 876.836 1263.73 878.893 1262.34 879.305C1260.95 879.716 1259.33 878.324 1258.7 876.204C1258.07 874.083 1258.7 872.058 1260.09 871.647C1261.48 871.236 1263.13 872.628 1263.76 874.748Z" fill="#845F53"/>
<path d="M392.5 1406C187.318 1357.87 60.4536 1441.21 1 1491.5V1765H1921V1575.5C1909.34 1587.47 1853.03 1634.51 1786 1637C1573.92 1644.89 1442.11 1430.07 1121 1586.5C754 1765.28 636.5 1463.23 392.5 1406Z" fill="#4FC1FF"/>
<rect width="571" height="1804" fill="black" fill-opacity="0" transform="translate(1921) scale(-1 1)"/>
<rect width="571" height="1804" fill="black" fill-opacity="0" transform="translate(1921) scale(-1 1)"/>
<rect width="571" height="1789.12" fill="black" fill-opacity="0" transform="translate(1921) scale(-1 1)"/>
<path d="M1350 1789.12C1591.27 1516.17 1658.41 1319.78 1551.39 1199.91C1390.93 1020.12 1409.81 897.08 1406.65 770.914C1403.53 644.747 1457.02 521.708 1567.16 446.033C1677.29 370.316 1721.3 294.684 1623.72 149.588C1563.74 60.3503 1552.4 5.63308 1565.18 0.26699C1572.26 -2.73295 1578.71 19.9145 1597.76 49.7449C1613.06 73.6599 1639.36 103.152 1658.41 120.391C1724.92 180.601 1751.35 242.29 1757.21 315.895C1769.81 473.624 1603.62 554.876 1593.92 652.733C1584.23 750.59 1632.19 889.01 1687.37 953.53C1742.5 1018.05 1872.37 1064.27 1913.29 1297.72C1940.56 1453.34 1895.46 1617.11 1777.99 1789.12H1350Z" fill="#FF623B"/>
<rect width="425.162" height="1326.75" fill="black" fill-opacity="0" transform="translate(1775.65 464.903) scale(-1 1)"/>
<path d="M1454 571.5C1454.5 565.5 1472.85 539.141 1485.5 523C1494.62 511.38 1507.5 496 1520 483.5C1533.5 470.5 1552.07 455.727 1534.5 473.5C1509.39 499.164 1496.59 540.067 1492.21 559.165C1487.82 578.263 1482.89 598.714 1476.06 637.924C1469.19 677.346 1473.58 740.26 1477.75 767.598C1484.24 810.019 1513.24 896.722 1528.71 933.904C1544.18 971.044 1580.72 1035.61 1654.95 1097.3C1730.61 1160.17 1756.57 1242.9 1769.89 1327.07C1790.63 1458.05 1739.97 1614.47 1621.95 1791C1621.36 1791.89 1529.47 1791.85 1350.5 1791C1349.15 1791 1468.5 1650.44 1512.5 1571C1531.97 1535.76 1554.21 1502.84 1568.46 1471.74C1579 1444 1580.36 1440.54 1585 1426C1597.98 1357.09 1602.68 1313.12 1596.82 1293.26C1588.06 1263.48 1538 1186.6 1523.27 1168.87C1510.5 1153.5 1443.36 1056.65 1442.68 1032.94C1442.26 1017.86 1430.08 1001.55 1423.97 982.2C1417.86 962.89 1417.69 961.622 1417.69 952.707C1417.69 928.285 1401.46 879.652 1410.94 849.145C1420.38 818.639 1405.3 849.483 1406.43 788.259C1407.53 727.035 1405.51 725.514 1408.2 713.345C1410.02 705.191 1412 682 1417.69 666.572L1423.5 642.5L1430.29 619.925C1431.72 614.432 1439.29 598.838 1454 571.5Z" fill="#FF8B64"/>
<rect width="127.033" height="148.171" fill="black" fill-opacity="0" transform="translate(1511.75 1620.89) scale(-1 1)"/>
<path d="M1403.66 1665.07C1378.66 1702.46 1378.37 1746.23 1402.98 1762.75C1427.6 1779.23 1467.85 1762.29 1492.8 1724.9C1517.8 1687.5 1518.09 1643.73 1493.48 1627.21C1468.86 1610.69 1428.61 1627.67 1403.66 1665.07Z" fill="#FFC0AA"/>
<rect width="79.5012" height="120.772" fill="black" fill-opacity="0" transform="translate(1645.58 1312.88) scale(-1 1)"/>
<path d="M1566.1 1372.34C1565.34 1405.68 1582.5 1433.14 1604.46 1433.65C1626.38 1434.15 1644.8 1407.49 1645.56 1374.16C1646.31 1340.86 1629.12 1313.4 1607.2 1312.89C1585.28 1312.38 1566.86 1339.04 1566.1 1372.34Z" fill="#FFC0AA"/>
<rect width="82.1016" height="106.494" fill="black" fill-opacity="0" transform="translate(1620.49 1184.24) scale(-1 1)"/>
<path d="M1546 1253.23C1559.11 1281.28 1584.78 1297.04 1603.24 1288.34C1621.7 1279.68 1626.04 1249.85 1612.89 1221.75C1599.78 1193.69 1574.11 1177.93 1555.65 1186.64C1537.19 1195.3 1532.85 1225.13 1546 1253.23Z" fill="#FFC0AA"/>
<rect width="74.1449" height="88.5646" fill="black" fill-opacity="0" transform="translate(1543.32 1078.09) scale(-1 1)"/>
<path d="M1479.32 1139.23C1493.35 1161.84 1516.83 1172.61 1531.71 1163.32C1546.59 1154.02 1547.26 1128.12 1533.18 1105.51C1519.15 1082.91 1495.63 1072.13 1480.75 1081.43C1465.91 1090.72 1465.24 1116.63 1479.32 1139.23Z" fill="#FFC0AA"/>
<rect width="59.907" height="83.6795" fill="black" fill-opacity="0" transform="translate(1478.78 979.69) scale(-1 1)"/>
<path d="M1421.91 1030.18C1429.12 1052.78 1447.07 1067.23 1461.95 1062.46C1476.79 1057.68 1482.98 1035.46 1475.78 1012.85C1468.53 990.29 1450.61 975.797 1435.73 980.614C1420.85 985.389 1414.66 1007.61 1421.91 1030.18Z" fill="#FFC0AA"/>
<rect width="49.7683" height="74.8815" fill="black" fill-opacity="0" transform="translate(1447.42 891.327) scale(-1 1)"/>
<path d="M1397.97 931.347C1400.12 951.967 1412.89 967.516 1426.46 966.121C1440.03 964.685 1449.26 946.769 1447.11 926.192C1444.96 905.573 1432.19 889.982 1418.62 891.418C1405.05 892.855 1395.82 910.728 1397.97 931.347Z" fill="#FFC0AA"/>
<rect width="42.6537" height="64.8247" fill="black" fill-opacity="0" transform="translate(1434.36 814.725) scale(-1 1)"/>
<path d="M1391.73 846.546C1391.22 864.419 1400.37 879.208 1412.13 879.546C1423.89 879.841 1433.84 865.602 1434.34 847.729C1434.85 829.856 1425.7 815.068 1413.94 814.73C1402.18 814.434 1392.23 828.673 1391.73 846.546Z" fill="#FFC0AA"/>
<rect width="42.6892" height="64.7938" fill="black" fill-opacity="0" transform="translate(1485.81 807.578) scale(-1 1)"/>
<path d="M1443.15 840.8C1443.87 858.673 1453.94 872.785 1465.7 872.363C1477.46 871.898 1486.48 857.025 1485.77 839.152C1485.09 821.279 1474.97 807.124 1463.21 807.589C1451.46 808.012 1442.48 822.927 1443.15 840.8Z" fill="#FFC0AA"/>
<rect width="46.6483" height="69.3275" fill="black" fill-opacity="0" transform="translate(1502.11 882.956) scale(-1 1)"/>
<path d="M1456.09 921.165C1459.04 940.221 1471.64 954.08 1484.16 952.094C1496.68 950.15 1504.44 933.08 1501.49 914.066C1498.49 895.053 1485.93 881.194 1473.42 883.137C1460.9 885.081 1453.14 902.151 1456.09 921.165Z" fill="#FFC0AA"/>
<rect width="55.837" height="78.0122" fill="black" fill-opacity="0" transform="translate(1534.91 959.868) scale(-1 1)"/>
<path d="M1481.89 1006.94C1488.63 1028.02 1505.36 1041.5 1519.19 1037.02C1533.06 1032.59 1538.83 1011.88 1532.09 990.797C1525.34 969.755 1508.65 956.277 1494.79 960.713C1480.92 965.192 1475.14 985.896 1481.89 1006.94Z" fill="#FFC0AA"/>
<rect width="74.1496" height="88.5942" fill="black" fill-opacity="0" transform="translate(1605.81 1038.42) scale(-1 1)"/>
<path d="M1541.78 1099.56C1555.86 1122.16 1579.34 1132.98 1594.22 1123.68C1609.1 1114.39 1609.73 1088.49 1595.69 1065.88C1581.61 1043.28 1558.14 1032.46 1543.26 1041.75C1528.38 1051.09 1527.75 1076.95 1541.78 1099.56Z" fill="#FFC0AA"/>
<rect width="83.8488" height="105.107" fill="black" fill-opacity="0" transform="translate(1699.7 1139.96) scale(-1 1)"/>
<path d="M1625.16 1209.92C1639.7 1237.3 1666.13 1251.71 1684.12 1242.07C1702.12 1232.48 1704.95 1202.44 1690.4 1175.1C1675.86 1147.72 1649.43 1133.32 1631.44 1142.95C1613.44 1152.54 1610.61 1182.58 1625.16 1209.92Z" fill="#FFC0AA"/>
<rect width="84.7547" height="128.591" fill="black" fill-opacity="0" transform="translate(1745.81 1298.33) scale(-1 1)"/>
<path d="M1661.15 1360.72C1659.55 1396.21 1677.21 1425.87 1700.56 1426.89C1723.91 1427.94 1744.14 1399.97 1745.7 1364.52C1747.31 1329.03 1729.65 1299.37 1706.29 1298.35C1682.94 1297.3 1662.71 1325.27 1661.15 1360.72Z" fill="#FFC0AA"/>
<rect width="101.556" height="139.852" fill="black" fill-opacity="0" transform="translate(1718.21 1480.76) scale(-1 1)"/>
<path d="M1622.63 1534.93C1609.43 1572.53 1618.83 1610.09 1643.57 1618.8C1668.32 1627.5 1699.09 1604.05 1712.24 1566.45C1725.43 1528.89 1716.03 1491.28 1691.29 1482.58C1666.55 1473.87 1635.78 1497.32 1622.63 1534.93Z" fill="#FFC0AA"/>
<rect width="127.001" height="148.171" fill="black" fill-opacity="0" transform="translate(1633.02 1655.83) scale(-1 1)"/>
<path d="M1524.92 1700.01C1499.97 1737.4 1499.67 1781.18 1524.29 1797.7C1548.91 1814.18 1589.16 1797.23 1614.11 1759.84C1639.06 1722.44 1639.36 1678.67 1614.74 1662.15C1590.17 1645.63 1549.92 1662.61 1524.92 1700.01Z" fill="#FFC0AA"/>
<rect width="24.5483" height="36.5839" fill="black" fill-opacity="0" transform="translate(1459.05 647.789) scale(-1 1)"/>
<path d="M1434.93 663.972C1433.16 673.986 1437 683.07 1443.53 684.253C1450.06 685.394 1456.81 678.211 1458.62 668.197C1460.39 658.141 1456.51 649.057 1449.98 647.916C1443.45 646.733 1436.7 653.916 1434.93 663.972Z" fill="#FFC0AA"/>
<rect width="103.46" height="128.071" fill="black" fill-opacity="0" transform="translate(1603.26 1469.6) scale(-1 1)"/>
<path d="M1511.98 1511.56C1493.56 1544.73 1496.34 1581.57 1518.18 1593.74C1539.97 1605.91 1572.68 1588.88 1591.06 1555.72C1609.48 1522.51 1606.74 1485.7 1584.9 1473.53C1563.07 1461.37 1530.4 1478.39 1511.98 1511.56Z" fill="#FFC0AA"/>
<rect width="33.1184" height="51.4881" fill="black" fill-opacity="0" transform="translate(1427.38 746.839) scale(-1 1)"/>
<path d="M1394.38 773.83C1395.48 788.027 1403.7 799.012 1412.8 798.294C1421.87 797.618 1428.36 785.534 1427.26 771.337C1426.17 757.14 1417.9 746.154 1408.84 746.872C1399.78 747.548 1393.29 759.633 1394.38 773.83Z" fill="#FFC0AA"/>
<rect width="34.2439" height="51.4764" fill="black" fill-opacity="0" transform="translate(1464.64 740.108) scale(-1 1)"/>
<path d="M1430.55 767.407C1431.86 781.562 1440.5 792.421 1449.85 791.533C1459.21 790.688 1465.74 778.477 1464.48 764.323C1463.17 750.126 1454.53 739.309 1445.17 740.154C1435.82 740.999 1429.28 753.21 1430.55 767.407Z" fill="#FFC0AA"/>
<rect width="25.1636" height="38.619" fill="black" fill-opacity="0" transform="translate(1453.27 689.155) scale(-1 1)"/>
<path d="M1428.1 708.464C1428.1 719.112 1433.75 727.774 1440.71 727.774C1447.62 727.774 1453.27 719.112 1453.27 708.464C1453.27 697.774 1447.62 689.155 1440.66 689.155C1433.71 689.155 1428.1 697.817 1428.1 708.464Z" fill="#FFC0AA"/>
<rect width="25.1836" height="38.6253" fill="black" fill-opacity="0" transform="translate(1422.72 692.912) scale(-1 1)"/>
<path d="M1397.55 711.887C1397.29 722.535 1402.69 731.323 1409.64 731.535C1416.55 731.704 1422.41 723.211 1422.71 712.521C1423 701.873 1417.57 693.085 1410.65 692.916C1403.7 692.704 1397.84 701.197 1397.55 711.887Z" fill="#FFC0AA"/>
<rect width="44.3353" height="55.4997" fill="black" fill-opacity="0" transform="translate(1469.02 1664.11) scale(-1 1)"/>
<path d="M1429.66 1682.6C1421.95 1697.05 1423.34 1712.9 1432.82 1718.01C1442.27 1723.12 1456.26 1715.56 1464.02 1701.11C1471.77 1686.7 1470.34 1670.81 1460.9 1665.7C1451.41 1660.59 1437.42 1668.19 1429.66 1682.6Z" fill="#845F53"/>
<rect width="44.3412" height="55.483" fill="black" fill-opacity="0" transform="translate(1589.62 1697.52) scale(-1 1)"/>
<path d="M1550.3 1716.02C1542.54 1730.43 1543.93 1746.32 1553.42 1751.43C1562.9 1756.5 1576.89 1748.94 1584.61 1734.53C1592.36 1720.08 1590.97 1704.23 1581.49 1699.12C1572 1694.01 1558.05 1701.57 1550.3 1716.02Z" fill="#845F53"/>
<rect width="40.897" height="58.1037" fill="black" fill-opacity="0" transform="translate(1687.96 1519.54) scale(-1 1)"/>
<path d="M1648.8 1543.17C1644.25 1558.93 1648.97 1574.14 1659.34 1577.14C1669.67 1580.1 1681.72 1569.74 1686.23 1553.98C1690.78 1538.22 1686.06 1523.01 1675.69 1520.05C1665.37 1517.05 1653.31 1527.45 1648.8 1543.17Z" fill="#845F53"/>
<rect width="40.8902" height="51.1711" fill="black" fill-opacity="0" transform="translate(1571.13 1506.32) scale(-1 1)"/>
<path d="M1534.87 1523.35C1527.7 1536.66 1529.01 1551.32 1537.74 1556.01C1546.46 1560.74 1559.36 1553.73 1566.52 1540.42C1573.65 1527.11 1572.38 1512.49 1563.62 1507.8C1554.89 1503.07 1541.99 1510.04 1534.87 1523.35Z" fill="#845F53"/>
<rect width="35.9132" height="54.6755" fill="black" fill-opacity="0" transform="translate(1721.38 1335.28) scale(-1 1)"/>
<path d="M1685.47 1362.49C1685.39 1377.62 1693.35 1389.92 1703.26 1389.96C1713.16 1390.04 1721.3 1377.83 1721.38 1362.75C1721.47 1347.66 1713.5 1335.33 1703.6 1335.28C1693.69 1335.24 1685.56 1347.41 1685.47 1362.49Z" fill="#845F53"/>
<rect width="35.9131" height="54.6754" fill="black" fill-opacity="0" transform="translate(1623.77 1345.93) scale(-1 1)"/>
<path d="M1587.85 1373.14C1587.77 1388.23 1595.73 1400.56 1605.64 1400.61C1615.55 1400.65 1623.68 1388.48 1623.76 1373.35C1623.85 1358.27 1615.88 1345.97 1605.98 1345.93C1596.07 1345.85 1587.98 1358.06 1587.85 1373.14Z" fill="#845F53"/>
<rect width="31.8968" height="40.5157" fill="black" fill-opacity="0" transform="translate(1593.56 1215.25) scale(-1 1)"/>
<path d="M1565.01 1241.95C1570.4 1252.55 1580.43 1258.26 1587.39 1254.71C1594.34 1251.12 1595.61 1239.67 1590.21 1229.06C1584.82 1218.45 1574.79 1212.75 1567.83 1216.3C1560.88 1219.85 1559.61 1231.34 1565.01 1241.95Z" fill="#845F53"/>
<rect width="31.8547" height="40.4902" fill="black" fill-opacity="0" transform="translate(1671.66 1170.25) scale(-1 1)"/>
<path d="M1643.15 1196.95C1648.55 1207.51 1658.54 1213.26 1665.49 1209.67C1672.45 1206.12 1673.71 1194.62 1668.32 1184.06C1662.92 1173.46 1652.93 1167.75 1645.98 1171.3C1639.02 1174.85 1637.76 1186.34 1643.15 1196.95Z" fill="#845F53"/>
<rect width="29.374" height="35.6344" fill="black" fill-opacity="0" transform="translate(1580.9 1063.38) scale(-1 1)"/>
<path d="M1555.31 1087.68C1560.75 1096.85 1570.07 1101.37 1576.05 1097.78C1582.08 1094.23 1582.54 1083.88 1577.1 1074.71C1571.67 1065.54 1562.39 1061.02 1556.37 1064.61C1550.34 1068.2 1549.88 1078.56 1555.31 1087.68Z" fill="#845F53"/>
<rect width="29.3784" height="35.6767" fill="black" fill-opacity="0" transform="translate(1518.94 1104.53) scale(-1 1)"/>
<path d="M1493.35 1128.88C1498.79 1138.05 1508.06 1142.57 1514.09 1138.98C1520.12 1135.39 1520.58 1125.03 1515.14 1115.86C1509.71 1106.7 1500.39 1102.17 1494.36 1105.77C1488.38 1109.36 1487.91 1119.71 1493.35 1128.88Z" fill="#845F53"/>
<rect width="25.3719" height="35.7072" fill="black" fill-opacity="0" transform="translate(1460.44 1001.6) scale(-1 1)"/>
<path d="M1436.28 1022.99C1439.23 1032.67 1446.82 1038.92 1453.14 1036.94C1459.46 1034.99 1462.2 1025.57 1459.25 1015.9C1456.26 1006.26 1448.72 1000.01 1442.35 1001.95C1436.03 1003.9 1433.29 1013.36 1436.28 1022.99Z" fill="#845F53"/>
<rect width="25.372" height="35.7356" fill="black" fill-opacity="0" transform="translate(1516.92 979.668) scale(-1 1)"/>
<path d="M1492.76 1001.11C1495.71 1010.74 1503.26 1016.99 1509.62 1015.05C1515.94 1013.06 1518.68 1003.64 1515.73 994.008C1512.74 984.332 1505.2 978.079 1498.83 980.023C1492.51 982.008 1489.77 991.431 1492.76 1001.11Z" fill="#845F53"/>
<rect width="20.5259" height="31.06" fill="black" fill-opacity="0" transform="translate(1431.77 913.24) scale(-1 1)"/>
<path d="M1411.33 929.657C1412.04 938.192 1417.23 944.741 1422.84 944.276C1428.44 943.812 1432.4 936.46 1431.69 927.883C1430.97 919.348 1425.79 912.798 1420.18 913.263C1414.57 913.728 1410.61 921.08 1411.33 929.657Z" fill="#845F53"/>
<rect width="20.5259" height="31.06" fill="black" fill-opacity="0" transform="translate(1488.17 902.085) scale(-1 1)"/>
<path d="M1467.72 918.503C1468.44 927.038 1473.63 933.587 1479.23 933.122C1484.84 932.657 1488.8 925.305 1488.08 916.728C1487.37 908.193 1482.18 901.644 1476.58 902.108C1470.97 902.616 1467.01 909.925 1467.72 918.503Z" fill="#845F53"/>
<rect width="16.9556" height="25.643" fill="black" fill-opacity="0" transform="translate(1472.43 825.148) scale(-1 1)"/>
<path d="M1455.54 838.687C1456.13 845.744 1460.39 851.152 1465.03 850.772C1469.66 850.392 1472.95 844.307 1472.36 837.251C1471.73 830.195 1467.47 824.786 1462.84 825.167C1458.2 825.547 1454.95 831.631 1455.54 838.687Z" fill="#845F53"/>
<rect width="16.8899" height="25.6972" fill="black" fill-opacity="0" transform="translate(1420.4 834.289) scale(-1 1)"/>
<path d="M1403.53 847.476C1403.83 854.574 1407.79 860.152 1412.47 859.983C1417.1 859.771 1420.64 853.898 1420.39 846.8C1420.1 839.701 1416.09 834.124 1411.45 834.293C1406.78 834.462 1403.24 840.378 1403.53 847.476Z" fill="#845F53"/>
<rect width="12.8966" height="19.5849" fill="black" fill-opacity="0" transform="translate(1416.3 762.495) scale(-1 1)"/>
<path d="M1403.45 772.773C1403.83 778.139 1407.03 782.322 1410.57 782.069C1414.11 781.815 1416.64 777.21 1416.26 771.801C1415.88 766.435 1412.68 762.252 1409.14 762.506C1405.6 762.759 1403.02 767.365 1403.45 772.773Z" fill="#845F53"/>
<rect width="12.8966" height="19.5849" fill="black" fill-opacity="0" transform="translate(1453.31 756.537) scale(-1 1)"/>
<path d="M1440.45 766.773C1440.83 772.181 1444.04 776.364 1447.58 776.111C1451.12 775.857 1453.69 771.252 1453.27 765.843C1452.89 760.477 1449.68 756.294 1446.14 756.548C1442.6 756.801 1440.07 761.407 1440.45 766.773Z" fill="#845F53"/>
<rect width="10.4156" height="15.8878" fill="black" fill-opacity="0" transform="translate(1415 704.197) scale(-1 1)"/>
<path d="M1404.58 712.056C1404.5 716.408 1406.73 720.042 1409.64 720.084C1412.51 720.126 1414.91 716.619 1415 712.225C1415.08 707.873 1412.8 704.239 1409.94 704.197C1407.07 704.155 1404.67 707.662 1404.58 712.056Z" fill="#845F53"/>
<rect width="10.4156" height="15.8878" fill="black" fill-opacity="0" transform="translate(1445.35 700.647) scale(-1 1)"/>
<path d="M1434.93 708.676C1435.02 713.07 1437.42 716.577 1440.29 716.535C1443.15 716.45 1445.43 712.859 1445.34 708.465C1445.26 704.113 1442.86 700.606 1439.99 700.648C1437.12 700.69 1434.85 704.282 1434.93 708.676Z" fill="#845F53"/>
<rect width="8.94174" height="13.5772" fill="black" fill-opacity="0" transform="translate(1450.85 659.698) scale(-1 1)"/>
<path d="M1441.93 666.169C1441.68 669.93 1443.45 673.099 1445.93 673.268C1448.38 673.437 1450.57 670.564 1450.82 666.803C1451.08 663.043 1449.31 659.874 1446.86 659.705C1444.37 659.536 1442.18 662.451 1441.93 666.169Z" fill="#845F53"/>
<rect width="9.1442" height="13.468" fill="black" fill-opacity="0" transform="translate(1421.72 658.848) scale(-1 1)"/>
<path d="M1412.76 664.733C1412.04 668.409 1413.44 671.789 1415.84 672.254C1418.28 672.761 1420.81 670.141 1421.53 666.465C1422.25 662.747 1420.85 659.367 1418.45 658.902C1416.01 658.437 1413.48 661.057 1412.76 664.733Z" fill="#845F53"/>
<rect width="9.46746" height="13.2219" fill="black" fill-opacity="0" transform="translate(1442.49 615.236) scale(-1 1)"/>
<path d="M1433.5 620.452C1432.36 624.044 1433.33 627.551 1435.65 628.311C1438.01 629.072 1440.83 626.79 1442.01 623.241C1443.15 619.65 1442.18 616.143 1439.82 615.382C1437.5 614.622 1434.64 616.903 1433.5 620.452Z" fill="#845F53"/>
<rect width="22.5386" height="29.8854" fill="black" fill-opacity="0" transform="translate(1463.55 569.333) scale(-1 1)"/>
<path d="M1442.94 580.143C1439.44 588.087 1440.83 596.368 1445.98 598.65C1451.16 600.889 1458.16 596.326 1461.61 588.382C1465.11 580.481 1463.72 572.2 1458.58 569.918C1453.39 567.636 1446.4 572.242 1442.94 580.143Z" fill="#FFC0AA"/>
<rect width="24.4713" height="36.6336" fill="black" fill-opacity="0" transform="translate(1431.85 647.223) scale(-1 1)"/>
<path d="M1407.75 663.592C1406.1 673.649 1410.06 682.691 1416.6 683.747C1423.13 684.846 1429.79 677.578 1431.48 667.522C1433.12 657.466 1429.12 648.424 1422.58 647.325C1416.05 646.269 1409.39 653.536 1407.75 663.592Z" fill="#FFC0AA"/>
<rect width="21.3782" height="30.3594" fill="black" fill-opacity="0" transform="translate(1446.04 606.265) scale(-1 1)"/>
<path d="M1425.66 618.508C1423.17 626.705 1425.49 634.733 1430.84 636.339C1436.2 637.945 1442.56 632.621 1445.05 624.381C1447.54 616.142 1445.17 608.156 1439.82 606.551C1434.47 604.945 1428.1 610.269 1425.66 618.508Z" fill="#FFC0AA"/>
<rect width="17.6215" height="25.0917" fill="black" fill-opacity="0" transform="translate(1466.54 615.448) scale(-1 1)"/>
<path d="M1449.68 625.607C1447.7 632.41 1449.68 639.001 1454.11 640.311C1458.54 641.621 1463.76 637.184 1465.74 630.381C1467.77 623.579 1465.79 616.987 1461.36 615.677C1456.93 614.368 1451.71 618.804 1449.68 625.607Z" fill="#FFC0AA"/>
<rect width="18.1355" height="24.7388" fill="black" fill-opacity="0" transform="translate(1479.98 582.731) scale(-1 1)"/>
<path d="M1463.09 592.101C1460.56 598.692 1461.99 605.41 1466.29 607.1C1470.59 608.748 1476.16 604.734 1478.73 598.101C1481.26 591.509 1479.82 584.791 1475.52 583.101C1471.18 581.453 1465.62 585.467 1463.09 592.101Z" fill="#FFC0AA"/>
<rect width="22.5392" height="29.8615" fill="black" fill-opacity="0" transform="translate(1486.62 537.686) scale(-1 1)"/>
<path d="M1466 548.496C1462.54 556.439 1463.89 564.721 1469.07 566.96C1474.22 569.242 1481.21 564.679 1484.71 556.735C1488.17 548.792 1486.82 540.552 1481.63 538.271C1476.49 535.989 1469.45 540.595 1466 548.496Z" fill="#FFC0AA"/>
<rect width="8.98339" height="13.5772" fill="black" fill-opacity="0" transform="translate(1424.04 658.937) scale(-1 1)"/>
<path d="M1415.08 665.409C1414.83 669.169 1416.64 672.338 1419.08 672.507C1421.53 672.676 1423.76 669.761 1424.02 666.043C1424.27 662.282 1422.5 659.113 1420.01 658.944C1417.57 658.775 1415.37 661.649 1415.08 665.409Z" fill="#845F53"/>
<rect width="9.37376" height="13.2999" fill="black" fill-opacity="0" transform="translate(1440.1 613.986) scale(-1 1)"/>
<path d="M1431.14 619.354C1430.09 622.987 1431.14 626.452 1433.5 627.17C1435.9 627.847 1438.64 625.48 1439.7 621.889C1440.75 618.297 1439.7 614.79 1437.33 614.114C1434.97 613.396 1432.19 615.762 1431.14 619.354Z" fill="#845F53"/>
<rect width="9.7667" height="12.9933" fill="black" fill-opacity="0" transform="translate(1457.32 577.492) scale(-1 1)"/>
<path d="M1448.34 582.256C1446.86 585.721 1447.54 589.312 1449.81 590.242C1452.09 591.214 1455.08 589.185 1456.56 585.721C1457.99 582.256 1457.36 578.707 1455.08 577.735C1452.8 576.763 1449.77 578.791 1448.34 582.256Z" fill="#845F53"/>
<rect width="9.733" height="13.0389" fill="black" fill-opacity="0" transform="translate(1479.9 545.781) scale(-1 1)"/>
<path d="M1470.89 550.609C1469.5 554.073 1470.17 557.665 1472.45 558.594C1474.72 559.524 1477.76 557.496 1479.15 553.989C1480.58 550.524 1479.91 546.975 1477.59 546.003C1475.31 545.074 1472.32 547.144 1470.89 550.609Z" fill="#845F53"/>
<rect width="7.35692" height="10.4598" fill="black" fill-opacity="0" transform="translate(1461.81 622.173) scale(-1 1)"/>
<path d="M1454.78 626.41C1453.94 629.241 1454.78 631.987 1456.64 632.536C1458.49 633.086 1460.69 631.227 1461.49 628.396C1462.33 625.565 1461.49 622.818 1459.63 622.269C1457.78 621.72 1455.59 623.579 1454.78 626.41Z" fill="#845F53"/>
<rect width="7.37403" height="10.4176" fill="black" fill-opacity="0" transform="translate(1474.8 589.638) scale(-1 1)"/>
<path d="M1467.73 593.875C1466.92 596.664 1467.77 599.41 1469.62 599.96C1471.48 600.509 1473.63 598.65 1474.47 595.819C1475.31 592.988 1474.47 590.284 1472.61 589.734C1470.76 589.185 1468.57 591.044 1467.73 593.875Z" fill="#845F53"/>
<path d="M440.657 1537.23C231.62 1510.41 60.4536 1545.69 1 1595.98V1833H1921V1724.68C1909.34 1736.66 1875.53 1757.13 1808.5 1759.62C1596.42 1767.51 1427.61 1486.73 1106.5 1643.15C739.5 1821.94 701.952 1570.76 440.657 1537.23Z" fill="#1B98DC"/>
</svg>
