<svg width="569" height="1014" viewBox="0 0 470 1014" fill="none" xmlns="http://www.w3.org/2000/svg">
<rect width="567.938" height="1013.22" fill="black" fill-opacity="0" transform="translate(0.928223)"/>
<rect width="405.25" height="504.404" fill="black" fill-opacity="0" transform="translate(194.719 391.829) rotate(22.5939)"/>
<mask id="path-1-outside-1" maskUnits="userSpaceOnUse" x="313.092" y="448.463" width="104.596" height="104.596" fill="black">
<rect fill="white" x="313.092" y="448.463" width="104.596" height="104.596"/>
<path fill-rule="evenodd" clip-rule="evenodd" d="M353.789 527.382C368.84 533.645 386.119 526.521 392.382 511.47C398.645 496.419 391.521 479.141 376.47 472.878C361.419 466.615 344.141 473.738 337.878 488.789C331.615 503.84 338.738 521.119 353.789 527.382ZM351.868 531.998C369.469 539.322 389.674 530.992 396.998 513.391C404.322 495.791 395.992 475.586 378.391 468.262C360.791 460.937 340.586 469.268 333.261 486.868C325.937 504.469 334.268 524.674 351.868 531.998Z"/>
</mask>
<path fill-rule="evenodd" clip-rule="evenodd" d="M353.789 527.382C368.84 533.645 386.119 526.521 392.382 511.47C398.645 496.419 391.521 479.141 376.47 472.878C361.419 466.615 344.141 473.738 337.878 488.789C331.615 503.84 338.738 521.119 353.789 527.382ZM351.868 531.998C369.469 539.322 389.674 530.992 396.998 513.391C404.322 495.791 395.992 475.586 378.391 468.262C360.791 460.937 340.586 469.268 333.261 486.868C325.937 504.469 334.268 524.674 351.868 531.998Z" fill="#6A7682"/>
<path d="M387.765 509.549C382.563 522.051 368.212 527.968 355.71 522.766L351.868 531.998C369.469 539.322 389.674 530.992 396.998 513.391L387.765 509.549ZM374.549 477.494C387.051 482.696 392.968 497.048 387.765 509.549L396.998 513.391C404.322 495.791 395.992 475.586 378.391 468.262L374.549 477.494ZM342.494 490.71C347.696 478.209 362.048 472.292 374.549 477.494L378.391 468.262C360.791 460.937 340.586 469.268 333.261 486.868L342.494 490.71ZM355.71 522.766C343.209 517.563 337.292 503.212 342.494 490.71L333.261 486.868C325.937 504.469 334.268 524.674 351.868 531.998L355.71 522.766ZM392.382 511.47C386.119 526.521 368.84 533.645 353.789 527.382L349.947 536.614C370.097 544.999 393.229 535.462 401.614 515.312L392.382 511.47ZM376.47 472.878C391.521 479.141 398.645 496.419 392.382 511.47L401.614 515.312C409.999 495.162 400.462 472.03 380.312 463.645L376.47 472.878ZM337.878 488.789C344.141 473.738 361.419 466.615 376.47 472.878L380.312 463.645C360.162 455.26 337.03 464.797 328.645 484.947L337.878 488.789ZM353.789 527.382C338.738 521.119 331.615 503.84 337.878 488.789L328.645 484.947C320.26 505.097 329.797 528.229 349.947 536.614L353.789 527.382Z" fill="#202933" mask="url(#path-1-outside-1)"/>
<mask id="path-3-inside-2" fill="white">
<path fill-rule="evenodd" clip-rule="evenodd" d="M200 820.871L323.7 567.25C319.552 565.524 303.755 558.039 286.05 549.532C278.099 555.548 267.254 557.3 257.384 553.193C242.598 547.04 235.598 530.064 241.752 515.277C247.905 500.49 264.881 493.491 279.668 499.645C288.684 503.397 294.805 511.172 296.814 520.022C298.955 521.072 301.278 522.23 303.717 523.446C313.975 528.562 326.293 534.704 335.802 538.168L348.5 495.679C348.5 495.679 359.353 491.645 369.047 495.679C378.741 499.713 381.5 508.5 381.5 508.5L363.038 549.502L396.697 562.239C404.54 556.818 414.892 555.374 424.349 559.31C439.136 565.463 446.135 582.439 439.981 597.226C433.828 612.013 416.852 619.012 402.065 612.858C392.951 609.065 386.795 601.16 384.855 592.19C372.445 586.738 358.731 581.129 350.936 578.584L246.5 839C269.5 854.11 310.5 856.5 337 855.5C370.688 854.229 392.052 835.065 395.82 831.218C396.888 830.127 395.208 829.525 392.816 828.668C388.46 827.107 381.743 824.701 384.967 816.953C408.624 804.009 417.215 779.398 423 762.825C428.488 747.101 431.451 738.613 442.358 754.185C460.023 779.408 450.409 838.951 437.522 862.11C433.647 855.805 419.162 848.188 416.978 850.312C416.704 850.578 416.305 851.042 415.76 851.676C410.868 857.359 394.251 876.66 351.726 888.688C321.592 897.211 270.704 896.614 244.293 896.304L244.289 896.304L244.286 896.304C236.317 896.211 230.577 896.143 228.31 896.361C224.859 896.692 218.607 903.697 211.607 911.542C201.447 922.927 189.711 936.079 182.673 933.15C178.259 931.314 179.154 919.677 180.169 906.471C181.07 894.75 182.066 881.794 179.531 873.354C178.107 870.596 174.525 868.427 169.254 865.234C158.706 858.846 141.395 848.362 121.084 820.871C81.4765 767.263 83.1742 732.475 83.7612 720.442C83.8507 718.608 83.9144 717.303 83.8022 716.54C83.5237 714.647 81.3048 714.042 78.5505 713.292C74.5915 712.214 69.5265 710.835 67.5277 704.893C74.4995 643.89 161.131 603.927 151.458 627.174C148.284 634.801 144.717 641.433 141.409 647.582C131.103 666.743 123.316 681.22 137.798 706.516C138.97 711.122 129.558 712.237 122.46 713.078L122.457 713.078C118.355 713.565 115.026 713.959 114.959 714.883C114.73 718.037 118 750 133 772.5C159.401 812.101 184.173 820.871 200 820.871Z"/>
</mask>
<path fill-rule="evenodd" clip-rule="evenodd" d="M200 820.871L323.7 567.25C319.552 565.524 303.755 558.039 286.05 549.532C278.099 555.548 267.254 557.3 257.384 553.193C242.598 547.04 235.598 530.064 241.752 515.277C247.905 500.49 264.881 493.491 279.668 499.645C288.684 503.397 294.805 511.172 296.814 520.022C298.955 521.072 301.278 522.23 303.717 523.446C313.975 528.562 326.293 534.704 335.802 538.168L348.5 495.679C348.5 495.679 359.353 491.645 369.047 495.679C378.741 499.713 381.5 508.5 381.5 508.5L363.038 549.502L396.697 562.239C404.54 556.818 414.892 555.374 424.349 559.31C439.136 565.463 446.135 582.439 439.981 597.226C433.828 612.013 416.852 619.012 402.065 612.858C392.951 609.065 386.795 601.16 384.855 592.19C372.445 586.738 358.731 581.129 350.936 578.584L246.5 839C269.5 854.11 310.5 856.5 337 855.5C370.688 854.229 392.052 835.065 395.82 831.218C396.888 830.127 395.208 829.525 392.816 828.668C388.46 827.107 381.743 824.701 384.967 816.953C408.624 804.009 417.215 779.398 423 762.825C428.488 747.101 431.451 738.613 442.358 754.185C460.023 779.408 450.409 838.951 437.522 862.11C433.647 855.805 419.162 848.188 416.978 850.312C416.704 850.578 416.305 851.042 415.76 851.676C410.868 857.359 394.251 876.66 351.726 888.688C321.592 897.211 270.704 896.614 244.293 896.304L244.289 896.304L244.286 896.304C236.317 896.211 230.577 896.143 228.31 896.361C224.859 896.692 218.607 903.697 211.607 911.542C201.447 922.927 189.711 936.079 182.673 933.15C178.259 931.314 179.154 919.677 180.169 906.471C181.07 894.75 182.066 881.794 179.531 873.354C178.107 870.596 174.525 868.427 169.254 865.234C158.706 858.846 141.395 848.362 121.084 820.871C81.4765 767.263 83.1742 732.475 83.7612 720.442C83.8507 718.608 83.9144 717.303 83.8022 716.54C83.5237 714.647 81.3048 714.042 78.5505 713.292C74.5915 712.214 69.5265 710.835 67.5277 704.893C74.4995 643.89 161.131 603.927 151.458 627.174C148.284 634.801 144.717 641.433 141.409 647.582C131.103 666.743 123.316 681.22 137.798 706.516C138.97 711.122 129.558 712.237 122.46 713.078L122.457 713.078C118.355 713.565 115.026 713.959 114.959 714.883C114.73 718.037 118 750 133 772.5C159.401 812.101 184.173 820.871 200 820.871Z" fill="#6A7682"/>
<path d="M323.7 567.25L327.295 569.004L329.156 565.188L325.237 563.557L323.7 567.25ZM200 820.871V824.871L202.5 824.871L203.595 822.624L200 820.871ZM286.05 549.532L287.782 545.926L285.582 544.869L283.636 546.342L286.05 549.532ZM257.384 553.193L258.921 549.5L258.921 549.5L257.384 553.193ZM241.752 515.277L238.059 513.74L238.059 513.74L241.752 515.277ZM279.668 499.645L281.205 495.952L281.205 495.952L279.668 499.645ZM296.814 520.022L292.913 520.907L293.337 522.771L295.052 523.613L296.814 520.022ZM303.717 523.446L301.932 527.026L301.932 527.026L303.717 523.446ZM335.802 538.168L334.433 541.926L338.42 543.378L339.635 539.313L335.802 538.168ZM348.5 495.679L347.106 491.93L345.238 492.624L344.668 494.534L348.5 495.679ZM369.047 495.679L370.584 491.986L370.584 491.986L369.047 495.679ZM381.5 508.5L385.147 510.142L385.772 508.754L385.316 507.302L381.5 508.5ZM363.038 549.502L359.391 547.859L357.645 551.737L361.622 553.243L363.038 549.502ZM396.697 562.239L395.281 565.98L397.244 566.723L398.971 565.529L396.697 562.239ZM424.349 559.31L425.886 555.617L425.886 555.617L424.349 559.31ZM439.981 597.226L436.288 595.689L436.288 595.689L439.981 597.226ZM402.065 612.858L403.602 609.165L403.602 609.165L402.065 612.858ZM384.855 592.19L388.764 591.345L388.333 589.35L386.464 588.528L384.855 592.19ZM350.936 578.584L352.177 574.782L348.617 573.619L347.223 577.095L350.936 578.584ZM246.5 839L242.788 837.511L241.57 840.547L244.304 842.343L246.5 839ZM337 855.5L336.849 851.503L336.849 851.503L337 855.5ZM395.82 831.218L392.962 828.419L392.962 828.419L395.82 831.218ZM392.816 828.668L391.467 832.434L391.467 832.434L392.816 828.668ZM384.967 816.953L383.047 813.444L381.814 814.119L381.274 815.416L384.967 816.953ZM423 762.825L426.776 764.143L426.776 764.143L423 762.825ZM442.358 754.185L445.634 751.89L445.634 751.89L442.358 754.185ZM437.522 862.11L434.114 864.204L437.693 870.029L441.017 864.055L437.522 862.11ZM416.978 850.312L419.767 853.18L419.767 853.179L416.978 850.312ZM415.76 851.676L418.791 854.285L418.792 854.285L415.76 851.676ZM351.726 888.688L352.815 892.537L352.815 892.537L351.726 888.688ZM244.293 896.304L244.34 892.304L244.316 892.304L244.293 892.304L244.293 896.304ZM244.286 896.304L244.239 900.304L244.262 900.304L244.286 900.304L244.286 896.304ZM228.31 896.361L228.692 900.342L228.692 900.342L228.31 896.361ZM211.607 911.542L214.592 914.205L214.592 914.205L211.607 911.542ZM182.673 933.15L184.21 929.457L184.21 929.457L182.673 933.15ZM180.169 906.471L176.181 906.164L176.181 906.164L180.169 906.471ZM179.531 873.354L183.362 872.203L183.255 871.848L183.085 871.519L179.531 873.354ZM169.254 865.234L167.182 868.656L167.182 868.656L169.254 865.234ZM121.084 820.871L117.867 823.248L117.867 823.248L121.084 820.871ZM83.7612 720.442L79.766 720.247L79.766 720.247L83.7612 720.442ZM83.8022 716.54L87.7597 715.958L87.7596 715.958L83.8022 716.54ZM78.5505 713.292L79.6015 709.433L79.6013 709.433L78.5505 713.292ZM67.5277 704.893L63.5536 704.439L63.4524 705.324L63.7364 706.169L67.5277 704.893ZM151.458 627.174L147.765 625.637L147.765 625.637L151.458 627.174ZM141.409 647.582L137.886 645.687L137.886 645.688L141.409 647.582ZM137.798 706.516L141.675 705.529L141.54 705.001L141.269 704.528L137.798 706.516ZM122.46 713.078L122.46 717.078L122.696 717.078L122.931 717.05L122.46 713.078ZM122.457 713.078L122.457 709.078L122.221 709.078L121.986 709.106L122.457 713.078ZM114.959 714.883L110.97 714.593L110.97 714.593L114.959 714.883ZM133 772.5L129.672 774.719L129.672 774.719L133 772.5ZM320.105 565.497L196.405 819.117L203.595 822.624L327.295 569.004L320.105 565.497ZM284.317 553.137C301.959 561.614 317.888 569.164 322.163 570.943L325.237 563.557C321.216 561.884 305.551 554.464 287.782 545.926L284.317 553.137ZM283.636 546.342C276.772 551.536 267.425 553.039 258.921 549.5L255.848 556.886C267.083 561.562 279.425 559.56 288.463 552.722L283.636 546.342ZM258.921 549.5C246.174 544.196 240.14 529.561 245.445 516.814L238.059 513.74C231.057 530.567 239.021 549.884 255.848 556.886L258.921 549.5ZM245.445 516.814C250.75 504.067 265.384 498.033 278.131 503.338L281.205 495.952C264.378 488.95 245.061 496.914 238.059 513.74L245.445 516.814ZM278.131 503.338C285.901 506.571 291.179 513.267 292.913 520.907L300.715 519.136C298.431 509.077 291.468 500.222 281.205 495.952L278.131 503.338ZM305.502 519.867C303.066 518.652 300.731 517.488 298.576 516.43L295.052 523.613C297.179 524.656 299.49 525.808 301.932 527.026L305.502 519.867ZM337.171 534.409C327.922 531.04 315.831 525.017 305.502 519.867L301.932 527.026C312.12 532.106 324.664 538.368 334.433 541.926L337.171 534.409ZM344.668 494.534L331.97 537.022L339.635 539.313L352.333 496.825L344.668 494.534ZM370.584 491.986C364.843 489.597 358.922 489.648 354.628 490.199C352.452 490.479 350.612 490.898 349.306 491.25C348.651 491.427 348.124 491.588 347.751 491.709C347.564 491.77 347.415 491.82 347.307 491.858C347.252 491.877 347.208 491.893 347.175 491.905C347.158 491.911 347.144 491.916 347.133 491.92C347.127 491.922 347.122 491.924 347.118 491.926C347.115 491.927 347.113 491.927 347.111 491.928C347.111 491.928 347.109 491.929 347.109 491.929C347.108 491.929 347.106 491.93 348.5 495.679C349.894 499.429 349.893 499.429 349.892 499.429C349.891 499.43 349.89 499.43 349.89 499.43C349.889 499.431 349.887 499.431 349.887 499.431C349.885 499.432 349.884 499.432 349.883 499.432C349.882 499.433 349.884 499.432 349.888 499.431C349.896 499.428 349.914 499.421 349.942 499.412C349.998 499.392 350.091 499.36 350.22 499.319C350.478 499.235 350.875 499.113 351.389 498.974C352.42 498.696 353.899 498.359 355.648 498.134C359.204 497.677 363.557 497.727 367.51 499.372L370.584 491.986ZM381.5 508.5C385.316 507.302 385.316 507.3 385.315 507.298C385.315 507.298 385.315 507.296 385.314 507.295C385.313 507.292 385.313 507.29 385.312 507.287C385.31 507.282 385.308 507.276 385.306 507.269C385.302 507.256 385.297 507.241 385.291 507.223C385.28 507.189 385.265 507.145 385.247 507.094C385.212 506.992 385.164 506.857 385.101 506.693C384.977 506.365 384.795 505.92 384.548 505.385C384.055 504.318 383.291 502.879 382.179 501.3C379.955 498.14 376.288 494.36 370.584 491.986L367.51 499.372C371.5 501.032 374.06 503.663 375.638 505.905C376.428 507.027 376.96 508.036 377.287 508.743C377.45 509.095 377.56 509.368 377.624 509.537C377.656 509.621 377.676 509.678 377.686 509.707C377.691 509.721 377.693 509.727 377.693 509.726C377.692 509.725 377.692 509.723 377.69 509.718C377.689 509.716 377.688 509.713 377.687 509.71C377.687 509.708 377.686 509.706 377.686 509.705C377.685 509.704 377.685 509.702 377.685 509.702C377.684 509.7 377.684 509.698 381.5 508.5ZM366.685 551.144L385.147 510.142L377.853 506.858L359.391 547.859L366.685 551.144ZM398.112 558.497L364.454 545.76L361.622 553.243L395.281 565.98L398.112 558.497ZM425.886 555.617C415.121 551.137 403.338 552.787 394.423 558.948L398.971 565.529C405.743 560.85 414.664 559.612 422.812 563.003L425.886 555.617ZM443.674 598.762C450.677 581.936 442.712 562.619 425.886 555.617L422.812 563.003C435.56 568.307 441.593 582.942 436.288 595.689L443.674 598.762ZM400.529 616.551C417.355 623.554 436.672 615.589 443.674 598.762L436.288 595.689C430.984 608.436 416.35 614.47 403.602 609.165L400.529 616.551ZM380.945 593.036C383.15 603.231 390.153 612.234 400.529 616.551L403.602 609.165C395.748 605.897 390.439 599.089 388.764 591.345L380.945 593.036ZM349.695 582.387C357.288 584.866 370.848 590.405 383.246 595.853L386.464 588.528C374.043 583.071 360.174 577.392 352.177 574.782L349.695 582.387ZM250.213 840.489L354.648 580.073L347.223 577.095L242.788 837.511L250.213 840.489ZM336.849 851.503C323.77 851.996 307.145 851.65 291.006 849.332C274.782 847.001 259.469 842.734 248.696 835.657L244.304 842.343C256.532 850.377 273.219 854.859 289.869 857.251C306.605 859.655 323.73 860.004 337.151 859.497L336.849 851.503ZM392.962 828.419C389.558 831.895 369.104 850.286 336.849 851.503L337.151 859.497C372.273 858.172 394.546 838.236 398.678 834.016L392.962 828.419ZM391.467 832.434C392.088 832.656 392.555 832.824 392.939 832.98C393.354 833.149 393.443 833.214 393.382 833.174C393.341 833.146 393.149 833.014 392.926 832.752C392.692 832.479 392.359 831.982 392.215 831.264C391.884 829.608 392.815 828.569 392.962 828.419L398.678 834.016C399.358 833.321 400.48 831.797 400.06 829.695C399.694 827.867 398.372 826.889 397.848 826.536C396.743 825.792 395.122 825.245 394.165 824.902L391.467 832.434ZM381.274 815.416C380.252 817.872 379.869 820.269 380.286 822.551C380.707 824.863 381.877 826.657 383.265 828.003C385.822 830.482 389.487 831.724 391.467 832.434L394.165 824.902C391.789 824.051 389.918 823.31 388.833 822.259C388.4 821.839 388.223 821.482 388.156 821.115C388.083 820.718 388.07 819.909 388.66 818.49L381.274 815.416ZM419.223 761.506C413.38 778.247 405.179 801.334 383.047 813.444L386.887 820.462C412.068 806.684 421.05 780.548 426.776 764.143L419.223 761.506ZM445.634 751.89C442.853 747.919 440.227 744.938 437.575 743.332C436.181 742.489 434.578 741.901 432.82 741.93C431.015 741.96 429.465 742.634 428.212 743.596C425.94 745.339 424.38 748.243 423.147 751.036C421.848 753.978 420.577 757.627 419.223 761.506L426.776 764.143C428.166 760.16 429.324 756.852 430.465 754.267C431.672 751.533 432.563 750.34 433.082 749.942C433.224 749.834 433.154 749.926 432.954 749.929C432.801 749.932 432.929 749.872 433.432 750.176C434.575 750.868 436.409 752.665 439.081 756.48L445.634 751.89ZM441.017 864.055C447.829 851.814 453.547 830.531 455.382 809.265C456.304 798.578 456.262 787.727 454.825 777.856C453.394 768.029 450.542 758.899 445.634 751.89L439.081 756.48C443.005 762.083 445.576 769.855 446.908 779.009C448.235 788.12 448.296 798.332 447.412 808.578C445.634 829.179 440.102 849.247 434.027 860.165L441.017 864.055ZM419.767 853.179C418.851 854.07 417.922 853.941 418.216 853.949C418.34 853.952 418.727 853.999 419.423 854.206C420.781 854.611 422.642 855.421 424.677 856.549C426.69 857.665 428.735 859.014 430.468 860.417C432.249 861.858 433.486 863.183 434.114 864.204L440.93 860.016C439.62 857.885 437.594 855.893 435.501 854.199C433.36 852.466 430.92 850.862 428.555 849.551C426.211 848.252 423.799 847.162 421.706 846.539C420.676 846.232 419.543 845.983 418.442 845.952C417.51 845.926 415.651 846.023 414.189 847.445L419.767 853.179ZM418.792 854.285C419.402 853.576 419.654 853.289 419.767 853.18L414.19 847.444C413.754 847.867 413.208 848.509 412.728 849.066L418.792 854.285ZM352.815 892.537C396.303 880.237 413.549 860.375 418.791 854.285L412.728 849.066C408.186 854.343 392.2 873.084 350.638 884.839L352.815 892.537ZM244.246 900.304C257.444 900.459 276.874 900.687 296.79 899.804C316.639 898.924 337.28 896.931 352.815 892.537L350.638 884.839C336.038 888.968 316.168 890.937 296.436 891.812C276.772 892.684 257.552 892.459 244.34 892.304L244.246 900.304ZM244.289 900.304H244.293L244.293 892.304L244.289 892.304L244.289 900.304ZM244.286 900.304L244.289 900.304L244.289 892.304L244.286 892.304L244.286 900.304ZM228.692 900.342C230.68 900.152 236.097 900.208 244.239 900.304L244.333 892.304C236.536 892.213 230.474 892.135 227.928 892.379L228.692 900.342ZM214.592 914.205C218.125 910.245 221.329 906.658 224.069 904.01C225.438 902.687 226.589 901.699 227.521 901.047C228.558 900.322 228.891 900.323 228.692 900.342L227.928 892.379C226.003 892.564 224.261 893.565 222.936 894.491C221.506 895.491 220.01 896.807 218.509 898.258C215.511 901.156 212.089 904.994 208.623 908.878L214.592 914.205ZM181.136 936.843C184.332 938.174 187.62 937.483 190.358 936.266C193.12 935.039 195.905 933.03 198.568 930.755C203.9 926.197 209.566 919.837 214.592 914.205L208.623 908.878C203.488 914.632 198.206 920.54 193.37 924.673C190.949 926.742 188.846 928.184 187.11 928.955C185.352 929.737 184.533 929.592 184.21 929.457L181.136 936.843ZM176.181 906.164C175.68 912.679 175.175 919.161 175.388 924.242C175.495 926.774 175.786 929.251 176.484 931.334C177.168 933.378 178.491 935.743 181.136 936.843L184.21 929.457C184.648 929.64 184.427 929.861 184.07 928.794C183.725 927.765 183.476 926.163 183.381 923.906C183.192 919.408 183.643 913.468 184.157 906.777L176.181 906.164ZM175.7 874.505C176.792 878.14 177.183 883.007 177.139 888.651C177.095 894.247 176.634 900.275 176.181 906.164L184.157 906.777C184.606 900.946 185.093 894.635 185.139 888.713C185.184 882.839 184.805 877.008 183.362 872.203L175.7 874.505ZM167.182 868.656C169.873 870.286 171.903 871.519 173.451 872.669C175.008 873.825 175.681 874.617 175.977 875.189L183.085 871.519C181.957 869.333 180.127 867.662 178.219 866.245C176.303 864.822 173.906 863.375 171.326 861.813L167.182 868.656ZM117.867 823.248C138.61 851.324 156.405 862.129 167.182 868.656L171.326 861.813C161.007 855.563 144.181 845.401 124.301 818.494L117.867 823.248ZM79.766 720.247C79.4642 726.433 78.877 738.607 83.4816 756.085C88.0771 773.527 97.7949 796.081 117.867 823.248L124.301 818.494C104.765 792.053 95.5283 770.408 91.2176 754.047C86.916 737.719 87.4712 726.484 87.7565 720.637L79.766 720.247ZM79.8448 717.122C79.8432 717.111 79.8523 717.173 79.8578 717.344C79.8632 717.507 79.8639 717.724 79.8581 718.009C79.8465 718.59 79.8117 719.31 79.766 720.247L87.7565 720.637C87.8343 719.04 87.9444 717.214 87.7597 715.958L79.8448 717.122ZM77.4996 717.152C78.2079 717.345 78.7748 717.5 79.2759 717.66C79.7785 717.821 80.0864 717.947 80.2717 718.043C80.4579 718.139 80.3792 718.132 80.2297 717.96C80.0397 717.741 79.8905 717.433 79.8448 717.122L87.7596 715.958C87.3582 713.229 85.4711 711.723 83.9378 710.932C82.5471 710.215 80.838 709.77 79.6015 709.433L77.4996 717.152ZM63.7364 706.169C66.483 714.333 73.709 716.12 77.4997 717.152L79.6013 709.433C75.4741 708.309 72.57 707.337 71.3189 703.618L63.7364 706.169ZM155.151 628.711C155.893 626.928 156.367 625.01 156.163 623.116C155.939 621.048 154.921 619.251 153.198 618.053C151.628 616.961 149.779 616.576 148.104 616.492C146.39 616.405 144.518 616.614 142.59 617.016C134.986 618.599 124.34 623.643 113.463 631.148C91.7389 646.137 67.2308 672.264 63.5536 704.439L71.5018 705.348C74.7964 676.52 97.0901 652.164 118.006 637.732C128.449 630.527 138.084 626.126 144.221 624.848C145.728 624.534 146.882 624.44 147.7 624.481C148.557 624.525 148.745 624.7 148.631 624.621C148.365 624.436 148.223 624.105 148.209 623.976C148.209 623.976 148.21 623.984 148.21 624.001C148.211 624.019 148.21 624.045 148.208 624.081C148.204 624.153 148.192 624.259 148.164 624.402C148.106 624.694 147.988 625.102 147.765 625.637L155.151 628.711ZM144.932 649.477C148.232 643.342 151.89 636.546 155.151 628.711L147.765 625.637C144.677 633.056 141.201 639.524 137.886 645.687L144.932 649.477ZM141.269 704.528C134.381 692.497 133.002 683.465 134.26 675.362C135.56 666.989 139.702 659.199 144.932 649.477L137.886 645.688C132.809 655.126 127.904 664.156 126.355 674.135C124.764 684.385 126.733 695.239 134.327 708.503L141.269 704.528ZM122.931 717.05C126.364 716.643 130.898 716.12 134.416 715.029C136.14 714.494 138.118 713.681 139.609 712.304C140.399 711.574 141.14 710.605 141.558 709.361C141.986 708.088 141.992 706.776 141.675 705.529L133.922 707.502C133.897 707.406 133.865 707.137 133.975 706.811C134.076 706.512 134.218 706.393 134.18 706.428C134.014 706.581 133.414 706.964 132.045 707.388C129.376 708.216 125.654 708.672 121.989 709.106L122.931 717.05ZM122.457 717.078H122.46L122.46 709.078L122.457 709.078L122.457 717.078ZM118.949 715.174C118.864 716.337 118.265 717.102 117.887 717.461C117.541 717.789 117.248 717.917 117.232 717.924C117.196 717.94 117.389 717.859 117.992 717.737C119.145 717.502 120.81 717.301 122.928 717.05L121.986 709.106C120.002 709.341 117.952 709.581 116.399 709.897C115.648 710.049 114.74 710.271 113.933 710.636C113.531 710.818 112.935 711.131 112.378 711.66C111.789 712.22 111.071 713.199 110.97 714.593L118.949 715.174ZM136.328 770.281C129.198 759.587 124.77 746.484 122.16 735.511C120.862 730.053 120.029 725.191 119.536 721.521C119.29 719.685 119.131 718.162 119.041 717.025C118.996 716.456 118.969 715.999 118.957 715.658C118.943 715.281 118.951 715.147 118.949 715.174L110.97 714.593C110.878 715.855 111.105 718.841 111.607 722.584C112.132 726.497 113.012 731.623 114.377 737.363C117.095 748.785 121.802 762.914 129.672 774.719L136.328 770.281ZM200 816.871C185.882 816.871 162.22 809.119 136.328 770.281L129.672 774.719C156.581 815.083 182.464 824.871 200 824.871V816.871Z" fill="#202933" mask="url(#path-3-inside-2)"/>
<rect width="217" height="500" fill="black" fill-opacity="0" transform="translate(328)"/>
<path d="M519.446 35.9284C515.031 35.5852 513.442 39.401 510.439 41.8961C500.932 48.3831 509.407 57.5329 511.941 62.8543C515.729 62.6546 518.582 60.4138 519.446 59.3184V35.9284Z" fill="#A78A60" stroke="#45341C"/>
<path d="M335.149 414.968C333.793 411.024 331.411 426.005 331.773 430.11C332.361 438.104 344.51 439.672 344.247 438.551C343.985 437.43 341.706 428.78 345.708 421.791C349.528 415.121 336.748 419.618 335.149 414.968Z" fill="#A78A60" stroke="#45341C"/>
<rect width="17.0534" height="24.7139" fill="black" fill-opacity="0" transform="matrix(-0.536201 -0.84409 -0.845442 0.534068 417.085 460.502)"/>
<path d="M398.136 453.299C391.694 459.917 399.733 465.031 395.441 472.52C398.062 472.457 403.267 469.756 405.065 467.559C411.08 461.105 401.847 455.789 408.66 447.239C408.66 447.239 404.579 446.681 398.136 453.299Z" fill="#A78A60" stroke="#45341C"/>
<rect width="17.0534" height="24.7139" fill="black" fill-opacity="0" transform="matrix(-0.603372 -0.797459 -0.79898 0.601357 407.063 466.535)"/>
<path d="M387.589 460.904C381.708 468.026 390.139 472.466 386.473 480.281C389.08 480.004 394.047 476.887 395.66 474.55C401.127 467.626 391.491 463.083 397.582 454.004C397.582 454.004 393.469 453.782 387.589 460.904Z" fill="#A78A60" stroke="#45341C"/>
<rect width="17.0548" height="24.7119" fill="black" fill-opacity="0" transform="matrix(-0.562181 -0.827014 -0.82847 0.560034 427.086 453.583)"/>
<path d="M407.922 446.97C401.688 453.784 409.883 458.647 405.826 466.265C408.445 466.121 413.563 463.26 415.292 461.008C421.102 454.371 411.709 449.344 418.252 440.587C418.252 440.587 414.156 440.156 407.922 446.97Z" fill="#A78A60" stroke="#45341C"/>
<rect width="17.0548" height="24.7119" fill="black" fill-opacity="0" transform="matrix(-0.562181 -0.827014 -0.82847 0.560034 437.124 447.238)"/>
<path d="M417.96 440.626C411.726 447.44 419.921 452.302 415.864 459.921C418.482 459.776 423.601 456.916 425.329 454.664C431.14 448.027 421.747 443 428.29 434.242C428.29 434.242 424.193 433.811 417.96 440.626Z" fill="#A78A60" stroke="#45341C"/>
<rect width="17.0682" height="24.6925" fill="black" fill-opacity="0" transform="matrix(-0.773746 -0.633495 -0.635613 0.772008 444.325 433.753)"/>
<path d="M424.067 432.834C420.028 441.132 429.27 443.476 427.547 451.929C430.016 451.05 434.11 446.859 435.127 444.21C438.811 436.202 428.374 434.039 432.156 423.791C432.156 423.791 428.106 424.536 424.067 432.834Z" fill="#A78A60" stroke="#45341C"/>
<rect width="17.0776" height="24.6788" fill="black" fill-opacity="0" transform="matrix(-0.892266 -0.45151 -0.45352 0.891246 448.505 419.886)"/>
<path d="M428.527 423.354C426.382 432.327 435.913 432.624 436.063 441.249C438.283 439.858 441.372 434.884 441.791 432.078C443.652 423.466 432.993 423.603 434.465 412.782C434.465 412.782 430.672 414.382 428.527 423.354Z" fill="#A78A60" stroke="#45341C"/>
<rect width="17.0851" height="24.6679" fill="black" fill-opacity="0" transform="matrix(-0.975998 -0.217779 -0.218941 0.975738 448.154 404.918)"/>
<path d="M429.652 413.198C429.795 422.42 439.105 420.362 441.385 428.683C443.193 426.788 444.955 421.208 444.666 418.386C444.338 409.582 434.042 412.339 432.789 401.49C432.789 401.49 429.51 403.975 429.652 413.198Z" fill="#A78A60" stroke="#45341C"/>
<rect width="17.0869" height="24.6653" fill="black" fill-opacity="0" transform="matrix(-0.995239 -0.0974665 -0.0980072 0.995186 447.502 391.885)"/>
<path d="M430.152 402.352C431.421 411.488 440.409 408.313 443.69 416.295C445.252 414.195 446.319 408.441 445.688 405.676C444.285 396.977 434.403 400.966 431.833 390.35C431.833 390.35 428.882 393.215 430.152 402.352Z" fill="#A78A60" stroke="#45341C"/>
<rect width="17.0868" height="24.6655" fill="black" fill-opacity="0" transform="matrix(-0.99388 0.110465 0.111077 0.993812 444.061 378.243)"/>
<path d="M429.264 392.071C432.405 400.746 440.538 395.781 445.408 402.911C446.499 400.534 446.346 394.685 445.153 392.11C441.972 383.89 433.135 389.836 428.413 379.983C428.413 379.983 426.122 383.396 429.264 392.071Z" fill="#A78A60" stroke="#45341C"/>
<rect width="17.0868" height="24.6655" fill="black" fill-opacity="0" transform="matrix(-0.99388 0.110465 0.111077 0.993812 443.06 366.267)"/>
<path d="M428.263 380.095C431.405 388.77 439.538 383.805 444.407 390.935C445.499 388.558 445.345 382.709 444.153 380.134C440.972 371.914 432.134 377.86 427.413 368.006C427.413 368.006 425.122 371.42 428.263 380.095Z" fill="#A78A60" stroke="#45341C"/>
<rect width="16.709" height="23.9078" fill="black" fill-opacity="0" transform="matrix(0.999421 -0.0340376 -0.034228 -0.999414 420.891 345.82)"/>
<path d="M436.363 333.55C433.956 324.933 425.651 329.13 421.443 321.879C420.199 324.096 419.906 329.761 420.874 332.337C423.354 340.516 432.42 335.423 436.278 345.296C436.278 345.296 438.77 342.166 436.363 333.55Z" fill="#A78A60" stroke="#45341C"/>
<rect width="17.0868" height="24.6655" fill="black" fill-opacity="0" transform="matrix(-0.99388 0.110465 0.111077 0.993812 442.059 354.291)"/>
<path d="M427.262 368.119C430.404 376.794 438.537 371.829 443.406 378.959C444.498 376.581 444.345 370.733 443.152 368.158C439.971 359.938 431.133 365.884 426.412 356.03C426.412 356.03 424.121 359.444 427.262 368.119Z" fill="#A78A60" stroke="#45341C"/>
<rect width="17.0807" height="24.6744" fill="black" fill-opacity="0" transform="matrix(-0.927164 -0.374656 -0.376457 0.926434 471.572 210.454)"/>
<path d="M451.959 215.593C450.582 224.714 460.104 224.207 460.984 232.788C463.079 231.215 465.736 225.998 465.916 223.168C467.041 214.429 456.43 215.464 456.981 204.557C456.981 204.557 453.337 206.472 451.959 215.593Z" fill="#A78A60" stroke="#45341C"/>
<rect width="17.0826" height="24.6716" fill="black" fill-opacity="0" transform="matrix(-0.948929 -0.315489 -0.317079 0.948399 475.13 198.557)"/>
<path d="M455.882 204.921C455.085 214.111 464.556 213.005 465.978 221.514C467.969 219.812 470.29 214.439 470.29 211.602C470.859 202.81 460.336 204.511 460.194 193.592C460.194 193.592 456.679 195.732 455.882 204.921Z" fill="#A78A60" stroke="#45341C"/>
<rect width="17.0873" height="24.6647" fill="black" fill-opacity="0" transform="matrix(-0.99942 -0.0340655 -0.0342561 0.999413 472.63 183.485)"/>
<path d="M455.983 195.032C457.833 204.07 466.6 200.33 470.384 208.087C471.809 205.892 472.506 200.083 471.7 197.363C469.744 188.771 460.137 193.379 456.895 182.948C456.895 182.948 454.133 185.995 455.983 195.032Z" fill="#A78A60" stroke="#45341C"/>
<rect width="17.0858" height="24.667" fill="black" fill-opacity="0" transform="matrix(-0.983269 0.182158 0.183144 0.983086 467.498 169.939)"/>
<path d="M453.747 184.802C457.512 193.227 465.262 187.686 470.637 194.444C471.553 191.994 470.974 186.172 469.597 183.69C465.826 175.723 457.445 182.293 452.018 172.807C452.018 172.807 449.982 176.377 453.747 184.802Z" fill="#A78A60" stroke="#45341C"/>
<rect width="17.079" height="24.6768" fill="black" fill-opacity="0" transform="matrix(-0.908101 0.41875 0.420681 0.907208 458.096 158.266)"/>
<path d="M448.45 176.054C454.184 183.291 460.323 176.014 467.205 181.239C467.486 178.639 465.484 173.14 463.535 171.074C457.908 164.282 451.413 172.712 443.806 164.855C443.806 164.855 442.716 168.816 448.45 176.054Z" fill="#A78A60" stroke="#45341C"/>
<rect width="17.0742" height="24.6839" fill="black" fill-opacity="0" transform="matrix(-0.850363 0.526196 0.528323 0.849044 449.635 148.311)"/>
<path d="M442.236 167.139C448.813 173.625 454.015 165.655 461.485 170.005C461.446 167.391 458.787 162.175 456.6 160.362C450.184 154.305 444.768 163.461 436.257 156.589C436.257 156.589 435.66 160.653 442.236 167.139Z" fill="#A78A60" stroke="#45341C"/>
<rect width="17.0646" height="24.6977" fill="black" fill-opacity="0" transform="translate(438.588 139.564) scale(-1.00139 0.998605) rotate(43.7924)"/>
<path d="M435.266 159.513C443.048 164.498 446.48 155.626 454.692 158.337C454.11 155.787 450.424 151.235 447.907 149.913C440.372 145.314 436.977 155.392 427.223 150.429C427.223 150.429 427.483 154.528 435.266 159.513Z" fill="#A78A60" stroke="#45341C"/>
<rect width="19.154" height="24.5787" fill="black" fill-opacity="0" transform="matrix(-0.043808 0.99904 0.999335 0.0364584 440.476 62.561)"/>
<path d="M451.736 81.1898C460.774 79.0984 457.178 69.2825 464.969 65.0269C462.802 63.4346 457.021 62.6656 454.297 63.575C445.702 65.7835 450.151 76.5384 439.702 80.1926C439.702 80.1926 442.698 83.2813 451.736 81.1898Z" fill="#A78A60" stroke="#45341C"/>
<rect width="19.8983" height="31.3955" fill="black" fill-opacity="0" transform="matrix(0.150389 0.988627 0.987662 -0.156599 423.14 66.7927)"/>
<path d="M441.206 83.0779C452.104 78.805 445.518 69.6692 454.393 63.49C451.338 62.3838 443.922 62.973 440.697 64.5448C430.379 68.8318 438.234 78.7206 425.897 84.9186C425.897 84.9186 430.309 87.3508 441.206 83.0779Z" fill="#A78A60" stroke="#45341C"/>
<rect width="19.3782" height="24.3419" fill="black" fill-opacity="0" transform="matrix(0.519642 0.854384 0.855668 -0.517524 418.04 75.6152)"/>
<path d="M437.836 85.1683C444.138 78.4959 435.641 72.1913 439.694 64.3759C437.006 64.2139 431.789 66.7094 430.047 68.9551C424.177 75.4856 433.908 82.1162 427.318 90.8703C427.318 90.8703 431.534 91.8407 437.836 85.1683Z" fill="#A78A60" stroke="#45341C"/>
<rect width="17.8201" height="28.4646" fill="black" fill-opacity="0" transform="matrix(0.773298 0.634043 0.636159 -0.771558 409.186 91.8743)"/>
<path d="M431.174 91.8326C436.018 82.4191 426.092 80.3036 428.425 70.8391C425.69 71.9435 421.009 76.8056 419.759 79.7961C415.317 88.8696 426.554 90.7216 421.883 102.285C421.883 102.285 426.33 101.246 431.174 91.8326Z" fill="#A78A60" stroke="#45341C"/>
<rect width="18.2664" height="20.9537" fill="black" fill-opacity="0" transform="matrix(0.847836 0.530258 0.532388 -0.846501 406.105 99.5742)"/>
<path d="M426.302 100.073C428.402 92.4 418.751 90.4081 418.531 82.6314C416.294 83.4792 413.206 87.3896 412.804 89.8344C410.989 97.2363 421.779 99.0419 420.374 108.499C420.374 108.499 424.202 107.747 426.302 100.073Z" fill="#A78A60" stroke="#45341C"/>
<rect width="17.0856" height="24.6672" fill="black" fill-opacity="0" transform="matrix(0.981563 0.191141 0.192172 -0.981361 406.062 116.472)"/>
<path d="M424.33 107.693C423.935 98.4775 414.685 100.788 412.178 92.5326C410.423 94.4755 408.814 100.102 409.18 102.915C409.749 111.707 419.966 108.67 421.514 119.481C421.514 119.481 424.725 116.908 424.33 107.693Z" fill="#A78A60" stroke="#45341C"/>
<rect width="17.087" height="24.6652" fill="black" fill-opacity="0" transform="matrix(0.995748 -0.092121 -0.0926326 -0.9957 410.218 130.423)"/>
<path d="M425.269 116.87C422.289 108.139 414.065 112.953 409.329 105.735C408.193 108.091 408.238 113.942 409.383 116.539C412.411 124.815 421.357 119.033 425.895 128.973C425.895 128.973 428.249 125.602 425.269 116.87Z" fill="#A78A60" stroke="#45341C"/>
<rect width="17.8146" height="24.6689" fill="black" fill-opacity="0" transform="matrix(0.968652 -0.248423 -0.249728 -0.968316 414.585 141.771)"/>
<path d="M427.963 125.838C423.543 117.711 415.831 123.856 409.84 117.521C409.037 120.042 409.991 125.817 411.571 128.19C415.97 135.859 424.275 128.636 430.485 137.693C430.485 137.693 432.383 133.965 427.963 125.838Z" fill="#A78A60" stroke="#45341C"/>
<rect width="17.0756" height="24.6817" fill="black" fill-opacity="0" transform="matrix(-0.868518 0.495658 0.497748 0.867322 426.063 121.62)"/>
<path d="M417.998 140.173C424.338 146.889 429.822 139.109 437.132 143.721C437.186 141.107 434.714 135.8 432.593 133.91C426.398 127.629 420.659 136.588 412.399 129.418C412.399 129.418 411.657 133.458 417.998 140.173Z" fill="#A78A60" stroke="#45341C"/>
<rect width="17.0855" height="24.6673" fill="black" fill-opacity="0" transform="matrix(-0.980465 0.196696 0.197754 0.980252 437.868 341.341)"/>
<path d="M424.339 356.405C428.229 364.774 435.896 359.119 441.371 365.797C442.251 363.333 441.585 357.52 440.171 355.059C436.282 347.148 428 353.842 422.432 344.437C422.432 344.437 420.449 348.037 424.339 356.405Z" fill="#A78A60" stroke="#45341C"/>
<rect width="17.0646" height="24.6977" fill="black" fill-opacity="0" transform="translate(430.494 130.66) scale(-1.00139 0.998605) rotate(43.7924)"/>
<path d="M427.172 150.609C434.954 155.594 438.386 146.722 446.598 149.433C446.016 146.883 442.33 142.331 439.813 141.009C432.278 136.41 428.884 146.488 419.129 141.525C419.129 141.525 419.39 145.624 427.172 150.609Z" fill="#A78A60" stroke="#45341C"/>
<rect width="17.0855" height="24.6673" fill="black" fill-opacity="0" transform="matrix(-0.980465 0.196696 0.197754 0.980252 435.824 329.341)"/>
<path d="M422.296 344.406C426.186 352.774 433.852 347.119 439.328 353.797C440.207 351.334 439.542 345.52 438.128 343.06C434.239 335.149 425.956 341.842 420.389 332.438C420.389 332.438 418.406 336.038 422.296 344.406Z" fill="#A78A60" stroke="#45341C"/>
<rect width="17.0826" height="24.6717" fill="black" fill-opacity="0" transform="matrix(-0.948242 -0.317547 -0.319145 0.947706 453.152 267.437)"/>
<path d="M433.89 273.759C433.073 282.946 442.547 281.861 443.95 290.373C445.945 288.676 448.277 283.307 448.284 280.471C448.872 271.68 438.345 273.359 438.227 262.439C438.227 262.439 434.707 264.571 433.89 273.759Z" fill="#A78A60" stroke="#45341C"/>
<rect width="18.0707" height="23.9705" fill="black" fill-opacity="0" transform="matrix(0.921123 0.389271 0.391119 -0.92034 441.09 239.577)"/>
<path d="M461.514 235.434C462.821 226.523 452.875 226.579 451.831 218.093C449.664 219.544 446.963 224.553 446.817 227.33C445.768 235.877 456.843 235.352 456.427 246.059C456.427 246.059 460.208 244.345 461.514 235.434Z" fill="#A78A60" stroke="#45341C"/>
<rect width="17.0826" height="24.6717" fill="black" fill-opacity="0" transform="matrix(-0.948242 -0.317547 -0.319145 0.947706 457.306 256.155)"/>
<path d="M438.043 262.477C437.226 271.665 446.7 270.58 448.103 279.092C450.098 277.394 452.431 272.026 452.437 269.19C453.025 260.399 442.498 262.077 442.38 251.157C442.38 251.157 438.86 253.29 438.043 262.477Z" fill="#A78A60" stroke="#45341C"/>
<rect width="17.0848" height="24.6684" fill="black" fill-opacity="0" transform="matrix(-0.972323 -0.233641 -0.234878 0.972025 458.977 242.649)"/>
<path d="M440.342 250.626C440.334 259.85 449.676 257.943 451.82 266.3C453.658 264.436 455.511 258.884 455.269 256.058C455.085 247.25 444.745 249.839 443.67 238.971C443.67 238.971 440.351 241.403 440.342 250.626Z" fill="#A78A60" stroke="#45341C"/>
<rect width="17.0848" height="24.6684" fill="black" fill-opacity="0" transform="matrix(-0.972323 -0.233641 -0.234878 0.972025 462.194 230.908)"/>
<path d="M443.56 238.885C443.552 248.109 452.894 246.202 455.037 254.559C456.876 252.695 458.729 247.143 458.487 244.317C458.302 235.509 447.963 238.098 446.888 227.23C446.888 227.23 443.568 229.662 443.56 238.885Z" fill="#A78A60" stroke="#45341C"/>
<rect width="16.7039" height="23.9151" fill="black" fill-opacity="0" transform="matrix(0.943106 0.332492 0.334147 -0.942521 421.074 308.968)"/>
<path d="M439.971 303.182C440.887 294.283 431.619 295.165 430.357 286.883C428.387 288.494 426.04 293.66 425.997 296.411C425.31 304.928 435.614 303.49 435.589 314.085C435.589 314.085 439.055 312.08 439.971 303.182Z" fill="#A78A60" stroke="#45341C"/>
<rect width="16.7084" height="23.9087" fill="black" fill-opacity="0" transform="matrix(0.992309 0.123784 0.124466 -0.992224 421.074 323.124)"/>
<path d="M438.294 313.444C437.282 304.556 428.417 307.393 425.41 299.571C423.83 301.564 422.644 307.111 423.192 309.808C424.346 318.275 434.104 314.674 436.351 325.03C436.351 325.03 439.307 322.332 438.294 313.444Z" fill="#A78A60" stroke="#45341C"/>
<rect width="15.4854" height="23.9106" fill="black" fill-opacity="0" transform="matrix(0.977859 -0.209264 -0.210385 -0.977619 335.032 456.013)"/>
<path d="M346.956 441.458C343.214 433.367 336.385 438.829 331.244 432.372C330.506 434.753 331.254 440.372 332.599 442.752C336.33 450.4 343.693 443.934 348.984 453.027C348.984 453.027 350.698 449.549 346.956 441.458Z" fill="#A78A60" stroke="#45341C"/>
<rect width="16.7091" height="23.9077" fill="black" fill-opacity="0" transform="translate(421.074 334.287) scale(1 -1)"/>
<path d="M436.956 322.55C434.846 313.857 426.402 317.769 422.445 310.379C421.125 312.553 420.639 318.204 421.518 320.812C423.717 329.07 432.952 324.289 436.47 334.287C436.47 334.287 439.067 331.244 436.956 322.55Z" fill="#A78A60" stroke="#45341C"/>
<rect width="14.9268" height="21.3909" fill="black" fill-opacity="0" transform="matrix(0.849962 -0.526845 -0.528972 -0.84864 345.32 464.141)"/>
<path d="M351.825 447.754C346.107 442.147 341.548 449.091 335.046 445.343C335.073 447.614 337.378 452.134 339.28 453.7C344.858 458.936 349.607 450.959 357.01 456.895C357.01 456.895 357.542 453.362 351.825 447.754Z" fill="#A78A60" stroke="#45341C"/>
<rect width="16.7054" height="23.913" fill="black" fill-opacity="0" transform="matrix(0.960056 0.279809 0.281252 -0.959634 425.554 297.629)"/>
<path d="M444.101 290.807C444.52 281.872 435.316 283.265 433.596 275.065C431.718 276.782 429.661 282.07 429.772 284.819C429.559 293.361 439.768 291.355 440.332 301.936C440.332 301.936 443.681 299.742 444.101 290.807Z" fill="#A78A60" stroke="#45341C"/>
<rect width="15.1256" height="21.8089" fill="black" fill-opacity="0" transform="matrix(0.770364 -0.637604 -0.784731 -0.619837 356.123 469.27)"/>
<path d="M358.797 453.467C351.102 449.769 348.014 456.855 339.965 454.961C340.6 456.951 344.306 460.427 346.787 461.394C354.232 464.795 357.249 456.761 366.859 460.384C366.859 460.384 366.492 457.164 358.797 453.467Z" fill="#A78A60" stroke="#45341C"/>
<rect width="14.0802" height="23.2052" fill="black" fill-opacity="0" transform="matrix(0.490003 -0.871721 -0.93863 -0.344927 369.778 471.231)"/>
<path d="M365.644 455.635C356.852 454.275 356.93 461.787 348.563 462.22C349.999 463.917 354.946 466.166 357.685 466.393C366.117 467.543 365.574 459.159 376.136 459.922C376.136 459.922 374.436 456.995 365.644 455.635Z" fill="#A78A60" stroke="#45341C"/>
<rect width="13.8579" height="23.4791" fill="black" fill-opacity="0" transform="matrix(0.393022 -0.919529 -0.963108 -0.269115 379.599 474.052)"/>
<path d="M373.675 458.838C364.764 458.15 365.712 465.623 357.433 466.688C359.058 468.268 364.245 470.133 366.998 470.151C375.527 470.657 374.014 462.351 384.617 462.311C384.617 462.311 382.586 459.526 373.675 458.838Z" fill="#A78A60" stroke="#45341C"/>
<rect width="26.6051" height="30.7415" fill="black" fill-opacity="0" transform="matrix(0.848219 -0.529645 -0.533671 -0.845692 382.043 500)"/>
<path d="M395.44 473.843C386.623 466.17 377.905 477.544 367.488 472.846C367.198 476.322 370.419 482.877 373.396 484.972C382.033 492.098 391.224 479.111 402.836 487.016C402.836 487.016 404.256 481.517 395.44 473.843Z" fill="#A78A60" stroke="#45341C"/>
<rect width="28.3658" height="17.7484" fill="black" fill-opacity="0" transform="matrix(0.848219 -0.529645 -0.533671 -0.845692 375.472 489.01)"/>
<path d="M393.692 467.361C387.208 463.801 376.6 473.848 367.974 472.768C366.935 475.318 368.473 479.304 370.773 480.15C377.211 483.358 388.614 472.053 397.641 475.167C397.641 475.167 400.176 470.921 393.692 467.361Z" fill="#A78A60" stroke="#45341C"/>
<rect width="38.5984" height="18.7175" fill="black" fill-opacity="0" transform="matrix(0.66534 -0.74654 -0.749865 -0.661591 372.036 491.383)"/>
<path d="M389.556 457.915C381.208 457.052 370.528 473.638 360.107 476.636C359.355 480.037 361.925 483.803 364.808 483.637C373.036 484.123 384.421 465.721 395.698 464.833C395.698 464.833 397.904 458.777 389.556 457.915Z" fill="#A78A60" stroke="#45341C"/>
<rect width="17.0397" height="24.7336" fill="black" fill-opacity="0" transform="translate(476.861 81.8379) scale(-1 1) rotate(-89.9038)"/>
<path d="M464.692 65.6615C455.701 67.8291 459.763 76.4325 452.125 80.4813C454.376 81.823 460.223 82.3094 462.919 81.408C471.46 79.1515 466.497 69.7425 476.834 66.1375C476.834 66.1375 473.682 63.4939 464.692 65.6615Z" fill="#A78A60" stroke="#45341C"/>
<rect width="17.0397" height="24.7336" fill="black" fill-opacity="0" transform="translate(488.74 82.1831) scale(-1 1) rotate(-89.9038)"/>
<path d="M476.571 66.0067C467.581 68.1743 471.642 76.7777 464.004 80.8265C466.255 82.1682 472.102 82.6546 474.799 81.7532C483.339 79.4967 478.376 70.0877 488.714 66.4827C488.714 66.4827 485.561 63.8391 476.571 66.0067Z" fill="#A78A60" stroke="#45341C"/>
<rect width="17.0436" height="24.728" fill="black" fill-opacity="0" transform="matrix(-0.286029 -0.958221 -0.958657 0.284565 502.276 75.0276)"/>
<path d="M486.005 62.9584C478.001 67.5803 484.343 74.6812 478.171 80.7246C480.711 81.3743 486.456 80.1866 488.785 78.5594C496.333 73.9795 488.897 66.361 497.785 59.9797C497.785 59.9797 494.01 58.3365 486.005 62.9584Z" fill="#A78A60" stroke="#45341C"/>
<rect width="17.051" height="24.7174" fill="black" fill-opacity="0" transform="matrix(-0.486737 -0.873548 -0.8747 0.484664 513.524 65.8694)"/>
<path d="M495.021 57.5924C488.208 63.8302 495.939 69.3963 491.223 76.6271C493.843 76.7141 499.195 74.3163 501.117 72.2254C507.494 66.1271 498.583 60.2911 505.877 52.1452C505.877 52.1452 501.835 51.3545 495.021 57.5924Z" fill="#A78A60" stroke="#45341C"/>
<rect width="18.1758" height="25.1581" fill="black" fill-opacity="0" transform="translate(522.4 54.0784) scale(-1.00139 0.998607) rotate(-46.6446)"/>
<path d="M501.53 49.9976C496.447 57.9358 505.759 61.7836 503.056 70.2402C505.708 69.7147 510.402 66.023 511.742 63.447C516.426 55.753 505.857 51.9071 510.886 41.9165C510.886 41.9165 506.612 42.0594 501.53 49.9976Z" fill="#A78A60" stroke="#45341C"/>
<rect width="17.0771" height="24.6796" fill="black" fill-opacity="0" transform="matrix(-0.886115 -0.463466 -0.465501 0.885047 545 7.91455)"/>
<path d="M369.965 470.475C373.468 469.477 376.679 471.218 377.079 476.806" stroke="#45341C"/>
<path d="M388.583 475.609C394.854 476.46 396.521 480.442 396.021 484.433" stroke="#45341C"/>
<path d="M383.162 477.625C386.664 478.125 388.534 481.176 388.034 485.167" stroke="#45341C"/>
<path d="M377.047 476.459C378.549 476.804 379.443 478.109 379.443 479.107" stroke="#45341C"/>
<path d="M381.239 472.835C383.741 473.334 384.738 475.451 384.738 476.995" stroke="#45341C"/>
<path d="M384.96 469.772C387.462 469.274 389.023 473.377 389.023 475.372M387.965 467.689C391.699 467.689 394 472 393.5 474.5" stroke="#45341C"/>
<path d="M376.228 465.334C379.227 465.46 383.138 466.721 383.138 471.312" stroke="#45341C"/>
<path d="M381.185 461.059C384.393 461.197 388.577 462.547 388.583 467.446" stroke="#45341C"/>
<path d="M385.494 458.589C388.901 458.976 392.554 460.481 391.603 465.674" stroke="#45341C"/>
<path d="M363.747 475.01C370.221 475.345 366.537 479.385 371.374 481.124M376.734 480.242C379.944 479.913 381.925 484.651 381.424 486.647" stroke="#45341C"/>
</svg>
