<?xml version="1.0" encoding="UTF-8" standalone="no"?>
<!DOCTYPE svg PUBLIC "-//W3C//DTD SVG 1.1//EN" "http://www.w3.org/Graphics/SVG/1.1/DTD/svg11.dtd">
<svg version="1.1" xmlns="http://www.w3.org/2000/svg" xmlns:xlink="http://www.w3.org/1999/xlink" preserveAspectRatio="xMidYMid meet" viewBox="66.8811103303081 188.2881524321839 367.3930832180789 123.668924967681" width="367.39" height="123.67"><defs><path d="M124.84 189.61C126.6 187.85 129.46 187.85 131.22 189.61C131.86 190.25 130.58 188.97 131.22 189.61C132.98 191.37 132.98 194.23 131.22 195.99C119.25 207.96 86.55 240.66 74.59 252.63C72.82 254.39 69.97 254.39 68.2 252.63C67.56 251.99 68.84 253.26 68.2 252.63C66.44 250.86 66.44 248.01 68.2 246.24C80.17 234.28 112.87 201.58 124.84 189.61Z" id="kFWifaVO"></path><path d="M74.59 247.62C72.82 245.86 69.97 245.86 68.2 247.62C67.56 248.26 68.84 246.98 68.2 247.62C66.44 249.38 66.44 252.24 68.2 254C80.17 265.97 112.87 298.67 124.84 310.64C126.6 312.4 129.46 312.4 131.22 310.64C131.86 310 130.58 311.27 131.22 310.64C132.98 308.87 132.98 306.01 131.22 304.25C119.25 292.29 86.55 259.58 74.59 247.62Z" id="a1JlnANkSG"></path><path d="M376.32 310.64C374.56 312.4 371.7 312.4 369.94 310.64C369.3 310 370.57 311.27 369.94 310.64C368.17 308.87 368.17 306.01 369.94 304.25C381.9 292.29 414.6 259.58 426.57 247.62C428.33 245.86 431.19 245.86 432.95 247.62C433.59 248.26 432.31 246.98 432.95 247.62C434.71 249.38 434.71 252.24 432.95 254C420.99 265.97 388.28 298.67 376.32 310.64Z" id="bNO4l6OEp"></path><path d="M426.57 252.63C428.33 254.39 431.19 254.39 432.95 252.63C433.59 251.99 432.31 253.26 432.95 252.63C434.71 250.86 434.71 248.01 432.95 246.24C420.99 234.28 388.28 201.58 376.32 189.61C374.56 187.85 371.7 187.85 369.94 189.61C369.3 190.25 370.57 188.97 369.94 189.61C368.17 191.37 368.17 194.23 369.94 195.99C381.9 207.96 414.6 240.66 426.57 252.63Z" id="dIpizu0Ke"></path><path d="M191.13 192.47L235.23 192.47L235.23 207.24L191.13 207.24L191.13 192.47Z" id="b2dR70eWF5"></path><path d="M186.15 207.24L209.64 207.24L209.64 251.35L186.15 251.35L186.15 207.24Z" id="b5LPjp7h3"></path><path d="M176.36 251.35L176.36 207.24L191.13 207.24L191.13 251.35L176.36 251.35Z" id="a1GdIYVrVo"></path><path d="M235.23 290.61L262.54 290.61L262.54 310.42L235.23 310.42L235.23 290.61Z" id="asSwxeUPL"></path><path d="M191.13 266.11L191.13 251.35L205.89 251.35L205.89 266.11L191.13 266.11Z" id="b3ijhR6BV"></path><path d="M215.07 280.88L242.37 280.88L242.37 266.11L215.07 266.11L215.07 280.88Z" id="axh6OaokV"></path><path d="M205.89 280.88L205.89 266.11L220.66 266.11L220.66 280.88L205.89 280.88Z" id="b24uQRufY2"></path><path d="M204.12 246.31L227.61 246.31L227.61 266.11L204.12 266.11L204.12 246.31Z" id="b8090MpGv"></path><path d="M220.46 295.65L220.46 280.88L235.23 280.88L235.23 295.65L220.46 295.65Z" id="cyZBRdcPy"></path><path d="M231.52 295.65L262.54 295.65L262.54 275.85L231.52 275.85L231.52 295.65Z" id="nVe3nfGSw"></path><path d="M235.43 207.24L262.73 207.24L262.73 222.01L235.43 222.01L235.43 207.24Z" id="b8YMR26g7"></path><path d="M308.87 192.47L264.77 192.47L264.77 207.24L308.87 207.24L308.87 192.47Z" id="e3VLPwa6ne"></path><path d="M323.64 251.35L323.64 207.24L308.87 207.24L308.87 251.35L323.64 251.35Z" id="a2dymN4Ynb"></path><path d="M264.77 295.65L250 295.65L250 310.42L264.77 310.42L264.77 295.65Z" id="i1e75Vlwl3"></path><path d="M308.87 266.11L308.87 251.35L294.11 251.35L294.11 266.11L308.87 266.11Z" id="b1bQMdxVBD"></path><path d="M294.11 280.88L294.11 266.11L279.34 266.11L279.34 280.88L294.11 280.88Z" id="bBoSlk65W"></path><path d="M279.54 295.65L279.54 280.88L264.77 280.88L264.77 295.65L279.54 295.65Z" id="f1qxR8oEdx"></path><path d="M264.77 207.24L250 207.24L250 222.01L264.77 222.01L264.77 207.24Z" id="c1x6l58j3K"></path><path d="M205.8 207.24L308.97 207.24L308.97 251.35L205.8 251.35L205.8 207.24Z" id="b1p3dVOyVc"></path><path d="M220.66 246.31L294.11 246.31L294.11 266.11L220.66 266.11L220.66 246.31Z" id="a1j8ePLCns"></path><path d="M235.33 261.08L279.44 261.08L279.44 280.88L235.33 280.88L235.33 261.08Z" id="aHgcL5xXO"></path><path d="M250 275.85L264.77 275.85L264.77 295.65L250 295.65L250 275.85Z" id="d2odTcwcr"></path><path d="M254.11 207.24L235.43 207.24L235.43 222.01L254.11 222.01L254.11 207.24Z" id="abbEdvYywx"></path><path d="M308.87 222.01L308.87 207.24L264.77 207.24L264.77 222.01L308.87 222.01Z" id="a3KC67NAg4"></path><path d="M308.87 207.24L294.11 207.24L294.11 251.35L308.87 251.35L308.87 207.24Z" id="cvuvK3qsw"></path></defs><g><g><g><use xlink:href="#kFWifaVO" opacity="1" fill="#ffffff" fill-opacity="1"></use><g><use xlink:href="#kFWifaVO" opacity="1" fill-opacity="0" stroke="#ffffff" stroke-width="4" stroke-opacity="1"></use></g></g><g><use xlink:href="#a1JlnANkSG" opacity="1" fill="#ffffff" fill-opacity="1"></use><g><use xlink:href="#a1JlnANkSG" opacity="1" fill-opacity="0" stroke="#ffffff" stroke-width="4" stroke-opacity="1"></use></g></g></g><g><g><use xlink:href="#bNO4l6OEp" opacity="1" fill="#ffffff" fill-opacity="1"></use><g><use xlink:href="#bNO4l6OEp" opacity="1" fill-opacity="0" stroke="#ffffff" stroke-width="4" stroke-opacity="1"></use></g></g><g><use xlink:href="#dIpizu0Ke" opacity="1" fill="#ffffff" fill-opacity="1"></use><g><use xlink:href="#dIpizu0Ke" opacity="1" fill-opacity="0" stroke="#ffffff" stroke-width="4" stroke-opacity="1"></use></g></g></g><g><g><use xlink:href="#b2dR70eWF5" opacity="1" fill="#000000" fill-opacity="1"></use></g><g><use xlink:href="#b5LPjp7h3" opacity="1" fill="#a40000" fill-opacity="1"></use></g><g><use xlink:href="#a1GdIYVrVo" opacity="1" fill="#000000" fill-opacity="1"></use></g><g><use xlink:href="#asSwxeUPL" opacity="1" fill="#000000" fill-opacity="1"></use></g><g><use xlink:href="#b3ijhR6BV" opacity="1" fill="#000000" fill-opacity="1"></use></g><g><use xlink:href="#axh6OaokV" opacity="1" fill="#a40000" fill-opacity="1"></use></g><g><use xlink:href="#b24uQRufY2" opacity="1" fill="#000000" fill-opacity="1"></use></g><g><use xlink:href="#b8090MpGv" opacity="1" fill="#a40000" fill-opacity="1"></use></g><g><use xlink:href="#cyZBRdcPy" opacity="1" fill="#000000" fill-opacity="1"></use></g><g><use xlink:href="#nVe3nfGSw" opacity="1" fill="#a40000" fill-opacity="1"></use></g><g><use xlink:href="#b8YMR26g7" opacity="1" fill="#000000" fill-opacity="1"></use></g><g><use xlink:href="#e3VLPwa6ne" opacity="1" fill="#000000" fill-opacity="1"></use></g><g><use xlink:href="#a2dymN4Ynb" opacity="1" fill="#000000" fill-opacity="1"></use></g><g><use xlink:href="#i1e75Vlwl3" opacity="1" fill="#000000" fill-opacity="1"></use></g><g><use xlink:href="#b1bQMdxVBD" opacity="1" fill="#000000" fill-opacity="1"></use></g><g><use xlink:href="#bBoSlk65W" opacity="1" fill="#000000" fill-opacity="1"></use></g><g><use xlink:href="#f1qxR8oEdx" opacity="1" fill="#000000" fill-opacity="1"></use></g><g><use xlink:href="#c1x6l58j3K" opacity="1" fill="#000000" fill-opacity="1"></use></g><g><use xlink:href="#b1p3dVOyVc" opacity="1" fill="#ff0000" fill-opacity="1"></use><g><use xlink:href="#b1p3dVOyVc" opacity="1" fill-opacity="0" stroke="#2a3a4a" stroke-width="0" stroke-opacity="1"></use></g></g><g><use xlink:href="#a1j8ePLCns" opacity="1" fill="#ff0000" fill-opacity="1"></use><g><use xlink:href="#a1j8ePLCns" opacity="1" fill-opacity="0" stroke="#2a3a4a" stroke-width="0" stroke-opacity="1"></use></g></g><g><use xlink:href="#aHgcL5xXO" opacity="1" fill="#ff0000" fill-opacity="1"></use><g><use xlink:href="#aHgcL5xXO" opacity="1" fill-opacity="0" stroke="#2a3a4a" stroke-width="0" stroke-opacity="1"></use></g></g><g><use xlink:href="#d2odTcwcr" opacity="1" fill="#ff0000" fill-opacity="1"></use><g><use xlink:href="#d2odTcwcr" opacity="1" fill-opacity="0" stroke="#2a3a4a" stroke-width="0" stroke-opacity="1"></use></g></g><g><use xlink:href="#abbEdvYywx" opacity="1" fill="#000000" fill-opacity="1"></use></g><g><use xlink:href="#a3KC67NAg4" opacity="1" fill="#ff6c6c" fill-opacity="1"></use></g><g><use xlink:href="#cvuvK3qsw" opacity="1" fill="#ff6c6c" fill-opacity="1"></use></g></g></g></svg>