<?xml version="1.0" encoding="UTF-8" standalone="no"?>
<!DOCTYPE svg PUBLIC "-//W3C//DTD SVG 1.1//EN" "http://www.w3.org/Graphics/SVG/1.1/DTD/svg11.dtd">
<svg version="1.1" xmlns="http://www.w3.org/2000/svg" xmlns:xlink="http://www.w3.org/1999/xlink" preserveAspectRatio="xMidYMid meet" viewBox="0 0 292 234" width="292" height="234"><defs><path d="M280.78 4.47C284.49 4.47 287.5 7.48 287.5 11.19C287.5 54.86 287.5 179.14 287.5 222.81C287.5 226.52 284.49 229.53 280.78 229.53C225.53 229.53 66.47 229.53 11.22 229.53C7.51 229.53 4.5 226.52 4.5 222.81C4.5 179.14 4.5 54.86 4.5 11.19C4.5 7.48 7.51 4.47 11.22 4.47C66.47 4.47 225.53 4.47 280.78 4.47Z" id="b5CaySnubS"></path><path d="M5.22 6.68L285.46 6.68L285.46 53.83L5.22 53.83L5.22 6.68Z" id="h79NnH1Yr"></path><path d="M15.15 25.85C15.15 30.57 18.98 34.4 23.7 34.4C28.42 34.4 32.25 30.57 32.25 25.85C32.25 21.13 28.42 17.3 23.7 17.3C18.98 17.3 15.15 21.13 15.15 25.85Z" id="cbpb9ovCE"></path><path d="M42.41 25.85C42.41 30.57 46.24 34.4 50.96 34.4C55.68 34.4 59.51 30.57 59.51 25.85C59.51 21.13 55.68 17.3 50.96 17.3C46.24 17.3 42.41 21.13 42.41 25.85Z" id="c7tYAe0sd"></path><path d="M69.67 25.85C69.67 30.57 73.5 34.4 78.22 34.4C82.94 34.4 86.77 30.57 86.77 25.85C86.77 21.13 82.94 17.3 78.22 17.3C73.5 17.3 69.67 21.13 69.67 25.85Z" id="a2pA7rd76w"></path><path d="M69.2 100.49C70.31 99.39 72.1 99.39 73.2 100.49C73.6 100.89 72.8 100.09 73.2 100.49C74.3 101.6 74.3 103.39 73.2 104.49C65.71 111.98 45.23 132.47 37.73 139.96C36.63 141.06 34.84 141.06 33.74 139.96C33.34 139.56 34.14 140.36 33.74 139.96C32.63 138.85 32.63 137.06 33.74 135.96C41.23 128.47 61.71 107.99 69.2 100.49Z" id="czfDlP7vN"></path><path d="M37.73 136.82C36.63 135.72 34.84 135.72 33.74 136.82C33.34 137.22 34.14 136.42 33.74 136.82C32.63 137.93 32.63 139.72 33.74 140.82C41.23 148.31 61.71 168.79 69.2 176.29C70.31 177.39 72.1 177.39 73.2 176.29C73.6 175.89 72.8 176.69 73.2 176.29C74.3 175.18 74.3 173.39 73.2 172.29C65.71 164.8 45.23 144.32 37.73 136.82Z" id="g3jY9I5TPY"></path><path d="M226.18 176.29C225.07 177.39 223.28 177.39 222.18 176.29C221.78 175.89 222.58 176.69 222.18 176.29C221.07 175.18 221.07 173.39 222.18 172.29C229.67 164.8 250.15 144.32 257.64 136.82C258.75 135.72 260.54 135.72 261.64 136.82C262.04 137.22 261.24 136.42 261.64 136.82C262.75 137.93 262.75 139.72 261.64 140.82C254.15 148.31 233.67 168.79 226.18 176.29Z" id="bJ5BYAmS7"></path><path d="M257.64 139.96C258.75 141.06 260.54 141.06 261.64 139.96C262.04 139.56 261.24 140.36 261.64 139.96C262.75 138.85 262.75 137.06 261.64 135.96C254.15 128.47 233.67 107.99 226.18 100.49C225.07 99.39 223.28 99.39 222.18 100.49C221.78 100.89 222.58 100.09 222.18 100.49C221.07 101.6 221.07 103.39 222.18 104.49C229.67 111.98 250.15 132.47 257.64 139.96Z" id="l1lOUivxmM"></path><path d="M110.66 99.67L138.28 99.67L138.28 108.91L110.66 108.91L110.66 99.67Z" id="bjtrhWdHR"></path><path d="M107.55 108.91L122.26 108.91L122.26 136.54L107.55 136.54L107.55 108.91Z" id="a173oEO2r"></path><path d="M101.41 136.54L101.41 108.91L110.66 108.91L110.66 136.54L101.41 136.54Z" id="a7yibG4Fo"></path><path d="M138.28 161.13L155.38 161.13L155.38 173.53L138.28 173.53L138.28 161.13Z" id="a8C6kDGxt"></path><path d="M118.8 133.38L133.51 133.38L133.51 145.79L118.8 145.79L118.8 133.38Z" id="b1dfLalMeD"></path><path d="M110.66 145.79L110.66 136.54L119.91 136.54L119.91 145.79L110.66 145.79Z" id="a2QTEaDmRB"></path><path d="M125.66 155.03L142.76 155.03L142.76 145.79L125.66 145.79L125.66 155.03Z" id="bc5Oeri3Q"></path><path d="M119.91 155.03L119.91 145.79L129.16 145.79L129.16 155.03L119.91 155.03Z" id="h10UpTuGEV"></path><path d="M135.96 164.28L155.38 164.28L155.38 151.88L135.96 151.88L135.96 164.28Z" id="iiXKMr1HY"></path><path d="M129.03 164.28L129.03 155.03L138.28 155.03L138.28 164.28L129.03 164.28Z" id="aSPuQxB8g"></path><path d="M138.41 108.91L155.51 108.91L155.51 118.16L138.41 118.16L138.41 108.91Z" id="b1djAjrC4p"></path><path d="M184.4 99.67L156.78 99.67L156.78 108.91L184.4 108.91L184.4 99.67Z" id="a2hiDs9hq"></path><path d="M193.65 136.54L193.65 108.91L184.4 108.91L184.4 136.54L193.65 136.54Z" id="cvxhpa5Ft"></path><path d="M156.78 164.28L147.53 164.28L147.53 173.53L156.78 173.53L156.78 164.28Z" id="a27G8YWiVJ"></path><path d="M184.4 145.79L184.4 136.54L175.15 136.54L175.15 145.79L184.4 145.79Z" id="h9PrvkIZI"></path><path d="M175.15 155.03L175.15 145.79L165.91 145.79L165.91 155.03L175.15 155.03Z" id="a5pDZloNq"></path><path d="M166.03 164.28L166.03 155.03L156.78 155.03L156.78 164.28L166.03 164.28Z" id="bW4YVd8lI"></path><path d="M119.85 108.91L184.46 108.91L184.46 136.54L119.85 136.54L119.85 108.91Z" id="dKaOcmMsu"></path><path d="M156.78 108.91L147.53 108.91L147.53 118.16L156.78 118.16L156.78 108.91Z" id="btPGoqUC0"></path><path d="M129.16 133.38L175.15 133.38L175.15 145.79L129.16 145.79L129.16 133.38Z" id="a5IIXbqhAN"></path><path d="M138.34 142.63L165.97 142.63L165.97 155.03L138.34 155.03L138.34 142.63Z" id="hlYhSeYql"></path><path d="M147.53 151.88L156.78 151.88L156.78 164.28L147.53 164.28L147.53 151.88Z" id="a1qTILd2wg"></path><path d="M150.1 108.91L138.41 108.91L138.41 118.16L150.1 118.16L150.1 108.91Z" id="bXB2KatZ5"></path><path d="M184.4 118.16L184.4 108.91L156.78 108.91L156.78 118.16L184.4 118.16Z" id="e1Nkx81gd"></path><path d="M184.4 108.91L175.15 108.91L175.15 136.54L184.4 136.54L184.4 108.91Z" id="b3OYAK7Ehr"></path></defs><g><g><g><g><use xlink:href="#b5CaySnubS" opacity="1" fill="#ffffff" fill-opacity="1"></use><g><use xlink:href="#b5CaySnubS" opacity="1" fill-opacity="0" stroke="#2a3a4a" stroke-width="9" stroke-opacity="1"></use></g></g><g><use xlink:href="#h79NnH1Yr" opacity="1" fill="#2a3a4a" fill-opacity="1"></use></g><g><use xlink:href="#cbpb9ovCE" opacity="1" fill="#ffffff" fill-opacity="1"></use></g><g><use xlink:href="#c7tYAe0sd" opacity="1" fill="#ffffff" fill-opacity="1"></use></g><g><use xlink:href="#a2pA7rd76w" opacity="1" fill="#ffffff" fill-opacity="1"></use></g></g><g><g><use xlink:href="#czfDlP7vN" opacity="1" fill="#000000" fill-opacity="1"></use><g><use xlink:href="#czfDlP7vN" opacity="1" fill-opacity="0" stroke="#000000" stroke-width="4" stroke-opacity="1"></use></g></g><g><use xlink:href="#g3jY9I5TPY" opacity="1" fill="#000000" fill-opacity="1"></use><g><use xlink:href="#g3jY9I5TPY" opacity="1" fill-opacity="0" stroke="#000000" stroke-width="4" stroke-opacity="1"></use></g></g></g><g><g><use xlink:href="#bJ5BYAmS7" opacity="1" fill="#000000" fill-opacity="1"></use><g><use xlink:href="#bJ5BYAmS7" opacity="1" fill-opacity="0" stroke="#000000" stroke-width="4" stroke-opacity="1"></use></g></g><g><use xlink:href="#l1lOUivxmM" opacity="1" fill="#000000" fill-opacity="1"></use><g><use xlink:href="#l1lOUivxmM" opacity="1" fill-opacity="0" stroke="#000000" stroke-width="4" stroke-opacity="1"></use></g></g></g><g><g><use xlink:href="#bjtrhWdHR" opacity="1" fill="#000000" fill-opacity="1"></use></g><g><use xlink:href="#a173oEO2r" opacity="1" fill="#a40000" fill-opacity="1"></use></g><g><use xlink:href="#a7yibG4Fo" opacity="1" fill="#000000" fill-opacity="1"></use></g><g><use xlink:href="#a8C6kDGxt" opacity="1" fill="#000000" fill-opacity="1"></use></g><g><use xlink:href="#b1dfLalMeD" opacity="1" fill="#a40000" fill-opacity="1"></use></g><g><use xlink:href="#a2QTEaDmRB" opacity="1" fill="#000000" fill-opacity="1"></use></g><g><use xlink:href="#bc5Oeri3Q" opacity="1" fill="#a40000" fill-opacity="1"></use></g><g><use xlink:href="#h10UpTuGEV" opacity="1" fill="#000000" fill-opacity="1"></use></g><g><use xlink:href="#iiXKMr1HY" opacity="1" fill="#a40000" fill-opacity="1"></use></g><g><use xlink:href="#aSPuQxB8g" opacity="1" fill="#000000" fill-opacity="1"></use></g><g><use xlink:href="#b1djAjrC4p" opacity="1" fill="#000000" fill-opacity="1"></use></g><g><use xlink:href="#a2hiDs9hq" opacity="1" fill="#000000" fill-opacity="1"></use></g><g><use xlink:href="#cvxhpa5Ft" opacity="1" fill="#000000" fill-opacity="1"></use></g><g><use xlink:href="#a27G8YWiVJ" opacity="1" fill="#000000" fill-opacity="1"></use></g><g><use xlink:href="#h9PrvkIZI" opacity="1" fill="#000000" fill-opacity="1"></use></g><g><use xlink:href="#a5pDZloNq" opacity="1" fill="#000000" fill-opacity="1"></use></g><g><use xlink:href="#bW4YVd8lI" opacity="1" fill="#000000" fill-opacity="1"></use></g><g><use xlink:href="#dKaOcmMsu" opacity="1" fill="#ff0000" fill-opacity="1"></use><g><use xlink:href="#dKaOcmMsu" opacity="1" fill-opacity="0" stroke="#2a3a4a" stroke-width="0" stroke-opacity="1"></use></g></g><g><use xlink:href="#btPGoqUC0" opacity="1" fill="#000000" fill-opacity="1"></use></g><g><use xlink:href="#a5IIXbqhAN" opacity="1" fill="#ff0000" fill-opacity="1"></use><g><use xlink:href="#a5IIXbqhAN" opacity="1" fill-opacity="0" stroke="#2a3a4a" stroke-width="0" stroke-opacity="1"></use></g></g><g><use xlink:href="#hlYhSeYql" opacity="1" fill="#ff0000" fill-opacity="1"></use><g><use xlink:href="#hlYhSeYql" opacity="1" fill-opacity="0" stroke="#2a3a4a" stroke-width="0" stroke-opacity="1"></use></g></g><g><use xlink:href="#a1qTILd2wg" opacity="1" fill="#ff0000" fill-opacity="1"></use><g><use xlink:href="#a1qTILd2wg" opacity="1" fill-opacity="0" stroke="#2a3a4a" stroke-width="0" stroke-opacity="1"></use></g></g><g><use xlink:href="#bXB2KatZ5" opacity="1" fill="#000000" fill-opacity="1"></use></g><g><use xlink:href="#e1Nkx81gd" opacity="1" fill="#ff6c6c" fill-opacity="1"></use></g><g><use xlink:href="#b3OYAK7Ehr" opacity="1" fill="#ff6c6c" fill-opacity="1"></use></g></g></g></g></svg>