<?xml version="1.0" encoding="UTF-8" standalone="no"?>
<!DOCTYPE svg PUBLIC "-//W3C//DTD SVG 1.1//EN" "http://www.w3.org/Graphics/SVG/1.1/DTD/svg11.dtd">
<svg version="1.1" xmlns="http://www.w3.org/2000/svg" xmlns:xlink="http://www.w3.org/1999/xlink" preserveAspectRatio="xMidYMid meet" viewBox="0 0 500 500" width="500" height="500"><defs><path d="M468.48 250.13C468.48 370.79 370.52 468.75 249.87 468.75C129.21 468.75 31.25 370.79 31.25 250.13C31.25 129.48 129.21 31.52 249.87 31.52C370.52 31.52 468.48 129.48 468.48 250.13Z" id="bhAuYKUyY"></path><path d="M124.84 189.61C126.6 187.85 129.46 187.85 131.22 189.61C131.86 190.25 130.58 188.97 131.22 189.61C132.98 191.37 132.98 194.23 131.22 195.99C119.25 207.96 86.55 240.66 74.59 252.63C72.82 254.39 69.97 254.39 68.2 252.63C67.56 251.99 68.84 253.26 68.2 252.63C66.44 250.86 66.44 248.01 68.2 246.24C80.17 234.28 112.87 201.58 124.84 189.61Z" id="d179w8HbMs"></path><path d="M74.59 247.62C72.82 245.86 69.97 245.86 68.2 247.62C67.56 248.26 68.84 246.98 68.2 247.62C66.44 249.38 66.44 252.24 68.2 254C80.17 265.97 112.87 298.67 124.84 310.64C126.6 312.4 129.46 312.4 131.22 310.64C131.86 310 130.58 311.27 131.22 310.64C132.98 308.87 132.98 306.01 131.22 304.25C119.25 292.29 86.55 259.58 74.59 247.62Z" id="aiuCfWbPo"></path><path d="M376.32 310.64C374.56 312.4 371.7 312.4 369.94 310.64C369.3 310 370.57 311.27 369.94 310.64C368.17 308.87 368.17 306.01 369.94 304.25C381.9 292.29 414.6 259.58 426.57 247.62C428.33 245.86 431.19 245.86 432.95 247.62C433.59 248.26 432.31 246.98 432.95 247.62C434.71 249.38 434.71 252.24 432.95 254C420.99 265.97 388.28 298.67 376.32 310.64Z" id="a4j5iMlUt"></path><path d="M426.57 252.63C428.33 254.39 431.19 254.39 432.95 252.63C433.59 251.99 432.31 253.26 432.95 252.63C434.71 250.86 434.71 248.01 432.95 246.24C420.99 234.28 388.28 201.58 376.32 189.61C374.56 187.85 371.7 187.85 369.94 189.61C369.3 190.25 370.57 188.97 369.94 189.61C368.17 191.37 368.17 194.23 369.94 195.99C381.9 207.96 414.6 240.66 426.57 252.63Z" id="ajqXfpIDR"></path><path d="M191.04 188.29L235.14 188.29L235.14 203.06L191.04 203.06L191.04 188.29Z" id="adQtTCbIs"></path><path d="M186.06 203.06L209.55 203.06L209.55 247.16L186.06 247.16L186.06 203.06Z" id="c6z2qB8SE0"></path><path d="M176.27 247.16L176.27 203.06L191.04 203.06L191.04 247.16L176.27 247.16Z" id="dB18wbJ"></path><path d="M235.14 286.43L262.45 286.43L262.45 306.24L235.14 306.24L235.14 286.43Z" id="a2FyqwPjkD"></path><path d="M204.03 242.13L227.52 242.13L227.52 261.93L204.03 261.93L204.03 242.13Z" id="amvh9onTA"></path><path d="M191.04 261.93L191.04 247.16L205.8 247.16L205.8 261.93L191.04 261.93Z" id="b6M41mC35m"></path><path d="M214.98 276.7L242.29 276.7L242.29 261.93L214.98 261.93L214.98 276.7Z" id="d1TNNBLVl3"></path><path d="M205.8 276.7L205.8 261.93L220.57 261.93L220.57 276.7L205.8 276.7Z" id="d5I3UoPNt1"></path><path d="M231.43 291.47L262.45 291.47L262.45 271.66L231.43 271.66L231.43 291.47Z" id="b7PSmPbaEr"></path><path d="M220.37 291.47L220.37 276.7L235.14 276.7L235.14 291.47L220.37 291.47Z" id="gs0l4Jmk4"></path><path d="M235.34 203.06L262.64 203.06L262.64 217.82L235.34 217.82L235.34 203.06Z" id="cdnXiFR8A"></path><path d="M308.79 188.29L264.68 188.29L264.68 203.06L308.79 203.06L308.79 188.29Z" id="b1vklphSfY"></path><path d="M323.55 247.16L323.55 203.06L308.79 203.06L308.79 247.16L323.55 247.16Z" id="b1KcWYd3tj"></path><path d="M264.68 291.47L249.91 291.47L249.91 306.24L264.68 306.24L264.68 291.47Z" id="dkWqUIycu"></path><path d="M308.79 261.93L308.79 247.16L294.02 247.16L294.02 261.93L308.79 261.93Z" id="cbzmg8CYEg"></path><path d="M294.02 276.7L294.02 261.93L279.25 261.93L279.25 276.7L294.02 276.7Z" id="a6y62Rw8n"></path><path d="M279.45 291.47L279.45 276.7L264.68 276.7L264.68 291.47L279.45 291.47Z" id="b26AQHtpCt"></path><path d="M205.71 203.06L308.88 203.06L308.88 247.16L205.71 247.16L205.71 203.06Z" id="aDsd9sCrC"></path><path d="M264.68 203.06L249.91 203.06L249.91 217.82L264.68 217.82L264.68 203.06Z" id="c79Vyquzhi"></path><path d="M220.57 242.13L294.02 242.13L294.02 261.93L220.57 261.93L220.57 242.13Z" id="g2urwiheZv"></path><path d="M235.24 256.9L279.35 256.9L279.35 276.7L235.24 276.7L235.24 256.9Z" id="a2aPuIvTi9"></path><path d="M249.91 271.66L264.68 271.66L264.68 291.47L249.91 291.47L249.91 271.66Z" id="amoRutO3Z"></path><path d="M254.02 203.06L235.34 203.06L235.34 217.82L254.02 217.82L254.02 203.06Z" id="d43xOxKz5n"></path><path d="M308.79 217.82L308.79 203.06L264.68 203.06L264.68 217.82L308.79 217.82Z" id="g1zBEidBki"></path><path d="M308.79 203.06L294.02 203.06L294.02 247.16L308.79 247.16L308.79 203.06Z" id="aLxRfUb77"></path></defs><g><g><g><use xlink:href="#bhAuYKUyY" opacity="1" fill="#1ea2b6" fill-opacity="1"></use></g><g><g><use xlink:href="#d179w8HbMs" opacity="1" fill="#ffffff" fill-opacity="1"></use><g><use xlink:href="#d179w8HbMs" opacity="1" fill-opacity="0" stroke="#ffffff" stroke-width="4" stroke-opacity="1"></use></g></g><g><use xlink:href="#aiuCfWbPo" opacity="1" fill="#ffffff" fill-opacity="1"></use><g><use xlink:href="#aiuCfWbPo" opacity="1" fill-opacity="0" stroke="#ffffff" stroke-width="4" stroke-opacity="1"></use></g></g></g><g><g><use xlink:href="#a4j5iMlUt" opacity="1" fill="#ffffff" fill-opacity="1"></use><g><use xlink:href="#a4j5iMlUt" opacity="1" fill-opacity="0" stroke="#ffffff" stroke-width="4" stroke-opacity="1"></use></g></g><g><use xlink:href="#ajqXfpIDR" opacity="1" fill="#ffffff" fill-opacity="1"></use><g><use xlink:href="#ajqXfpIDR" opacity="1" fill-opacity="0" stroke="#ffffff" stroke-width="4" stroke-opacity="1"></use></g></g></g><g><g><use xlink:href="#adQtTCbIs" opacity="1" fill="#000000" fill-opacity="1"></use></g><g><use xlink:href="#c6z2qB8SE0" opacity="1" fill="#a40000" fill-opacity="1"></use></g><g><use xlink:href="#dB18wbJ" opacity="1" fill="#000000" fill-opacity="1"></use></g><g><use xlink:href="#a2FyqwPjkD" opacity="1" fill="#000000" fill-opacity="1"></use></g><g><use xlink:href="#amvh9onTA" opacity="1" fill="#a40000" fill-opacity="1"></use></g><g><use xlink:href="#b6M41mC35m" opacity="1" fill="#000000" fill-opacity="1"></use></g><g><use xlink:href="#d1TNNBLVl3" opacity="1" fill="#a40000" fill-opacity="1"></use></g><g><use xlink:href="#d5I3UoPNt1" opacity="1" fill="#000000" fill-opacity="1"></use></g><g><use xlink:href="#b7PSmPbaEr" opacity="1" fill="#a40000" fill-opacity="1"></use></g><g><use xlink:href="#gs0l4Jmk4" opacity="1" fill="#000000" fill-opacity="1"></use></g><g><use xlink:href="#cdnXiFR8A" opacity="1" fill="#000000" fill-opacity="1"></use></g><g><use xlink:href="#b1vklphSfY" opacity="1" fill="#000000" fill-opacity="1"></use></g><g><use xlink:href="#b1KcWYd3tj" opacity="1" fill="#000000" fill-opacity="1"></use></g><g><use xlink:href="#dkWqUIycu" opacity="1" fill="#000000" fill-opacity="1"></use></g><g><use xlink:href="#cbzmg8CYEg" opacity="1" fill="#000000" fill-opacity="1"></use></g><g><use xlink:href="#a6y62Rw8n" opacity="1" fill="#000000" fill-opacity="1"></use></g><g><use xlink:href="#b26AQHtpCt" opacity="1" fill="#000000" fill-opacity="1"></use></g><g><use xlink:href="#aDsd9sCrC" opacity="1" fill="#ff0000" fill-opacity="1"></use><g><use xlink:href="#aDsd9sCrC" opacity="1" fill-opacity="0" stroke="#2a3a4a" stroke-width="0" stroke-opacity="1"></use></g></g><g><use xlink:href="#c79Vyquzhi" opacity="1" fill="#000000" fill-opacity="1"></use></g><g><use xlink:href="#g2urwiheZv" opacity="1" fill="#ff0000" fill-opacity="1"></use><g><use xlink:href="#g2urwiheZv" opacity="1" fill-opacity="0" stroke="#2a3a4a" stroke-width="0" stroke-opacity="1"></use></g></g><g><use xlink:href="#a2aPuIvTi9" opacity="1" fill="#ff0000" fill-opacity="1"></use><g><use xlink:href="#a2aPuIvTi9" opacity="1" fill-opacity="0" stroke="#2a3a4a" stroke-width="0" stroke-opacity="1"></use></g></g><g><use xlink:href="#amoRutO3Z" opacity="1" fill="#ff0000" fill-opacity="1"></use><g><use xlink:href="#amoRutO3Z" opacity="1" fill-opacity="0" stroke="#2a3a4a" stroke-width="0" stroke-opacity="1"></use></g></g><g><use xlink:href="#d43xOxKz5n" opacity="1" fill="#000000" fill-opacity="1"></use></g><g><use xlink:href="#g1zBEidBki" opacity="1" fill="#ff6c6c" fill-opacity="1"></use></g><g><use xlink:href="#aLxRfUb77" opacity="1" fill="#ff6c6c" fill-opacity="1"></use></g></g></g></g></svg>