<?xml version="1.0" encoding="UTF-8" standalone="no"?>
<!DOCTYPE svg PUBLIC "-//W3C//DTD SVG 1.1//EN" "http://www.w3.org/Graphics/SVG/1.1/DTD/svg11.dtd">
<svg version="1.1" xmlns="http://www.w3.org/2000/svg" xmlns:xlink="http://www.w3.org/1999/xlink" preserveAspectRatio="xMidYMid meet" viewBox="104.11513777307584 137.91511460026769 291.4999999999998 237.14455694872456" width="282.5" height="229.14"><defs><path d="M378.7 142.42C385.55 142.42 391.12 147.98 391.12 154.84C391.12 188.35 391.12 276.48 391.12 310C391.12 316.85 385.55 322.42 378.7 322.42C324.68 322.42 175.05 322.42 121.04 322.42C114.18 322.42 108.62 316.85 108.62 310C108.62 276.48 108.62 188.35 108.62 154.84C108.62 147.98 114.18 142.42 121.04 142.42C175.05 142.42 324.68 142.42 378.7 142.42Z" id="a3b63SM8cJ"></path><path d="M111.27 279.76L388.46 279.76L388.46 321.18L111.27 321.18L111.27 279.76Z" id="d8izP9Cji"></path><path d="M260.75 300.47C260.75 306.48 255.87 311.35 249.87 311.35C243.86 311.35 238.98 306.48 238.98 300.47C238.98 294.47 243.86 289.59 249.87 289.59C255.87 289.59 260.75 294.47 260.75 300.47Z" id="bYEPXP7vI"></path><path d="M242.76 322.42L256.97 322.42L256.97 358.56L242.76 358.56L242.76 322.42Z" id="b1xdNJimO1"></path><path d="M242.76 329.89L245.61 329.89L245.61 358.56L242.76 358.56L242.76 329.89Z" id="a1PELRtnIk"></path><path d="M301.28 352.89C305.36 352.89 308.67 356.2 308.67 360.28C308.67 361.76 308.67 358.81 308.67 360.28C308.67 364.37 305.36 367.68 301.28 367.68C279.24 367.68 220.49 367.68 198.45 367.68C194.37 367.68 191.06 364.37 191.06 360.28C191.06 358.81 191.06 361.76 191.06 360.28C191.06 356.2 194.37 352.89 198.45 352.89C220.49 352.89 279.24 352.89 301.28 352.89Z" id="b5nzWMOA2r"></path><path d="M307.38 166.22C310.94 166.22 313.83 169.11 313.83 172.67C313.83 190.06 313.83 235.79 313.83 253.19C313.83 256.75 310.94 259.63 307.38 259.63C283.09 259.63 216.64 259.63 192.35 259.63C188.79 259.63 185.9 256.75 185.9 253.19C185.9 235.79 185.9 190.06 185.9 172.67C185.9 169.11 188.79 166.22 192.35 166.22C216.64 166.22 283.09 166.22 307.38 166.22Z" id="ll9Bj41T5"></path><path d="M187.1 167.3L312.63 167.3L312.63 189.85L187.1 189.85L187.1 167.3Z" id="b3nfP2QWm"></path><path d="M215.24 175.53C215.24 177.96 217.22 179.93 219.65 179.93C222.08 179.93 224.05 177.96 224.05 175.53C224.05 173.1 222.08 171.13 219.65 171.13C217.22 171.13 215.24 173.1 215.24 175.53Z" id="f4Eul3Evq"></path><path d="M202.84 175.53C202.84 177.96 204.81 179.93 207.24 179.93C209.67 179.93 211.65 177.96 211.65 175.53C211.65 173.1 209.67 171.13 207.24 171.13C204.81 171.13 202.84 173.1 202.84 175.53Z" id="a1SKsDjU3v"></path><path d="M190.43 175.53C190.43 177.96 192.41 179.93 194.84 179.93C197.27 179.93 199.24 177.96 199.24 175.53C199.24 173.1 197.27 171.13 194.84 171.13C192.41 171.13 190.43 173.1 190.43 175.53Z" id="b1nU9viT3q"></path><path d="M269.54 198.51C271.02 198.51 272.22 199.71 272.22 201.18C272.22 201.72 272.22 200.65 272.22 201.18C272.22 202.66 271.02 203.86 269.54 203.86C254.6 203.86 212.46 203.86 197.52 203.86C196.04 203.86 194.84 202.66 194.84 201.18C194.84 200.65 194.84 201.72 194.84 201.18C194.84 199.71 196.04 198.51 197.52 198.51C212.46 198.51 254.6 198.51 269.54 198.51Z" id="fZ91I4YPC"></path><path d="M247.96 212.55C249.01 212.55 249.87 213.4 249.87 214.45C249.87 215.14 249.87 215.31 249.87 216C249.87 217.05 249.01 217.9 247.96 217.9C237.34 217.9 207.37 217.9 196.74 217.9C195.69 217.9 194.84 217.05 194.84 216C194.84 215.31 194.84 215.14 194.84 214.45C194.84 213.4 195.69 212.55 196.74 212.55C207.37 212.55 237.34 212.55 247.96 212.55Z" id="bi2LObkAS"></path><path d="M258.46 226.57C259.72 226.57 260.75 227.59 260.75 228.85C260.75 229.47 260.75 229.03 260.75 229.65C260.75 230.91 259.72 231.93 258.46 231.93C245.74 231.93 209.84 231.93 197.12 231.93C195.86 231.93 194.84 230.91 194.84 229.65C194.84 229.03 194.84 229.47 194.84 228.85C194.84 227.59 195.86 226.57 197.12 226.57C209.84 226.57 245.74 226.57 258.46 226.57Z" id="j4JxJZEGDO"></path><path d="M254.82 240.49C256.01 240.49 256.97 241.45 256.97 242.64C256.97 243.28 256.97 243.06 256.97 243.7C256.97 244.89 256.01 245.85 254.82 245.85C242.82 245.85 208.98 245.85 196.99 245.85C195.8 245.85 194.84 244.89 194.84 243.7C194.84 243.06 194.84 243.28 194.84 242.64C194.84 241.45 195.8 240.49 196.99 240.49C208.98 240.49 242.82 240.49 254.82 240.49Z" id="c2jSkCiwd"></path><path d="M209.65 360.28C209.65 366.51 204.6 371.56 198.38 371.56C192.15 371.56 187.1 366.51 187.1 360.28C187.1 354.06 192.15 349.01 198.38 349.01C204.6 349.01 209.65 354.06 209.65 360.28Z" id="bMIVlXbmx"></path></defs><g><g><use xlink:href="#a3b63SM8cJ" opacity="1" fill="#ffffff" fill-opacity="1"></use><g><use xlink:href="#a3b63SM8cJ" opacity="1" fill-opacity="0" stroke="#2a3a4a" stroke-width="9" stroke-opacity="1"></use></g></g><g><use xlink:href="#d8izP9Cji" opacity="1" fill="#2a3a4a" fill-opacity="1"></use><g><use xlink:href="#d8izP9Cji" opacity="1" fill-opacity="0" stroke="#000000" stroke-width="0" stroke-opacity="1"></use></g></g><g><use xlink:href="#bYEPXP7vI" opacity="1" fill="#ffffff" fill-opacity="1"></use></g><g><use xlink:href="#b1xdNJimO1" opacity="1" fill="#2a3a4a" fill-opacity="1"></use><g><use xlink:href="#b1xdNJimO1" opacity="1" fill-opacity="0" stroke="#2a3a4a" stroke-width="8" stroke-opacity="1"></use></g></g><g><use xlink:href="#a1PELRtnIk" opacity="1" fill="#1e2b38" fill-opacity="1"></use><g><use xlink:href="#a1PELRtnIk" opacity="1" fill-opacity="0" stroke="#1e2b38" stroke-width="8" stroke-opacity="1"></use></g></g><g><g><filter id="shadow14257932" x="185.06" y="346.89" width="129.62" height="27.78" filterUnits="userSpaceOnUse" primitiveUnits="userSpaceOnUse"><feFlood></feFlood><feComposite in2="SourceAlpha" operator="in"></feComposite><feGaussianBlur stdDeviation="0"></feGaussianBlur><feOffset dx="0" dy="1" result="afterOffset"></feOffset><feFlood flood-color="#000000" flood-opacity="0.5"></feFlood><feComposite in2="afterOffset" operator="in"></feComposite><feMorphology operator="dilate" radius="0"></feMorphology><feComposite in2="SourceAlpha" operator="out"></feComposite></filter><path d="M301.28 352.89C305.36 352.89 308.67 356.2 308.67 360.28C308.67 361.76 308.67 358.81 308.67 360.28C308.67 364.37 305.36 367.68 301.28 367.68C279.24 367.68 220.49 367.68 198.45 367.68C194.37 367.68 191.06 364.37 191.06 360.28C191.06 358.81 191.06 361.76 191.06 360.28C191.06 356.2 194.37 352.89 198.45 352.89C220.49 352.89 279.24 352.89 301.28 352.89Z" id="b1poLCqzft" fill="white" fill-opacity="1" filter="url(#shadow14257932)"></path></g><use xlink:href="#b5nzWMOA2r" opacity="1" fill="#2a3a4a" fill-opacity="1"></use><g><use xlink:href="#b5nzWMOA2r" opacity="1" fill-opacity="0" stroke="#2a3a4a" stroke-width="8" stroke-opacity="1"></use></g></g><g><use xlink:href="#ll9Bj41T5" opacity="1" fill="#ffffff" fill-opacity="1"></use><g><use xlink:href="#ll9Bj41T5" opacity="1" fill-opacity="0" stroke="#2a3a4a" stroke-width="9" stroke-opacity="1"></use></g></g><g><use xlink:href="#b3nfP2QWm" opacity="1" fill="#2a3a4a" fill-opacity="1"></use><g><use xlink:href="#b3nfP2QWm" opacity="1" fill-opacity="0" stroke="#000000" stroke-width="0" stroke-opacity="1"></use></g></g><g><use xlink:href="#f4Eul3Evq" opacity="1" fill="#3fff00" fill-opacity="1"></use></g><g><use xlink:href="#a1SKsDjU3v" opacity="1" fill="#ffe700" fill-opacity="1"></use></g><g><use xlink:href="#b1nU9viT3q" opacity="1" fill="#ff2222" fill-opacity="1"></use></g><g><use xlink:href="#fZ91I4YPC" opacity="1" fill="#2a3a4a" fill-opacity="1"></use></g><g><use xlink:href="#bi2LObkAS" opacity="1" fill="#2a3a4a" fill-opacity="1"></use></g><g><use xlink:href="#j4JxJZEGDO" opacity="1" fill="#2a3a4a" fill-opacity="1"></use></g><g><use xlink:href="#c2jSkCiwd" opacity="1" fill="#2a3a4a" fill-opacity="1"></use></g><g><use xlink:href="#bMIVlXbmx" opacity="1" fill="#1e2b38" fill-opacity="1"></use></g></g></svg>