<?xml version="1.0" encoding="UTF-8" standalone="no"?>
<!DOCTYPE svg PUBLIC "-//W3C//DTD SVG 1.1//EN" "http://www.w3.org/Graphics/SVG/1.1/DTD/svg11.dtd">
<svg version="1.1" xmlns="http://www.w3.org/2000/svg" xmlns:xlink="http://www.w3.org/1999/xlink" preserveAspectRatio="xMidYMid meet" viewBox="0 0 291 233" width="291" height="233"><defs><path d="M274.33 4.24C281.19 4.24 286.75 9.8 286.75 16.66C286.75 50.18 286.75 138.3 286.75 171.82C286.75 178.68 281.19 184.24 274.33 184.24C220.31 184.24 70.69 184.24 16.67 184.24C9.81 184.24 4.25 178.68 4.25 171.82C4.25 138.3 4.25 50.18 4.25 16.66C4.25 9.8 9.81 4.24 16.67 4.24C70.69 4.24 220.31 4.24 274.33 4.24Z" id="dOyb8LgRi"></path><path d="M6.9 141.59L284.1 141.59L284.1 183.01L6.9 183.01L6.9 141.59Z" id="bgXS3vK0E"></path><path d="M156.38 162.3C156.38 168.3 151.51 173.18 145.5 173.18C139.49 173.18 134.62 168.3 134.62 162.3C134.62 156.29 139.49 151.42 145.5 151.42C151.51 151.42 156.38 156.29 156.38 162.3Z" id="cnFZCrXmn"></path><path d="M138.4 184.24L152.6 184.24L152.6 220.38L138.4 220.38L138.4 184.24Z" id="a2LqggUpaE"></path><path d="M196.92 214.72C201 214.72 204.31 218.03 204.31 222.11C204.31 223.59 204.31 220.63 204.31 222.11C204.31 226.19 201 229.5 196.92 229.5C174.87 229.5 116.13 229.5 94.08 229.5C90 229.5 86.69 226.19 86.69 222.11C86.69 220.63 86.69 223.59 86.69 222.11C86.69 218.03 90 214.72 94.08 214.72C116.13 214.72 174.87 214.72 196.92 214.72Z" id="a2f86bBvVf"></path><path d="M203.02 28.05C206.58 28.05 209.46 30.93 209.46 34.49C209.46 51.89 209.46 97.62 209.46 115.01C209.46 118.57 206.58 121.46 203.02 121.46C178.72 121.46 112.28 121.46 87.98 121.46C84.42 121.46 81.54 118.57 81.54 115.01C81.54 97.62 81.54 51.89 81.54 34.49C81.54 30.93 84.42 28.05 87.98 28.05C112.28 28.05 178.72 28.05 203.02 28.05Z" id="d1ZMl4Dt6Y"></path><path d="M82.74 29.12L208.26 29.12L208.26 51.67L82.74 51.67L82.74 29.12Z" id="a8mD31EPG"></path><path d="M110.88 37.35C110.88 39.79 112.85 41.76 115.28 41.76C117.71 41.76 119.69 39.79 119.69 37.35C119.69 34.92 117.71 32.95 115.28 32.95C112.85 32.95 110.88 34.92 110.88 37.35Z" id="agzjEHjb1"></path><path d="M98.47 37.35C98.47 39.79 100.45 41.76 102.88 41.76C105.31 41.76 107.28 39.79 107.28 37.35C107.28 34.92 105.31 32.95 102.88 32.95C100.45 32.95 98.47 34.92 98.47 37.35Z" id="axXigr4Io"></path><path d="M86.07 37.35C86.07 39.79 88.04 41.76 90.47 41.76C92.9 41.76 94.88 39.79 94.88 37.35C94.88 34.92 92.9 32.95 90.47 32.95C88.04 32.95 86.07 34.92 86.07 37.35Z" id="a17YP9oDyp"></path><path d="M143.6 74.37C144.65 74.37 145.5 75.22 145.5 76.28C145.5 76.97 145.5 77.13 145.5 77.82C145.5 78.87 144.65 79.73 143.6 79.73C132.97 79.73 103 79.73 92.38 79.73C91.32 79.73 90.47 78.87 90.47 77.82C90.47 77.13 90.47 76.97 90.47 76.28C90.47 75.22 91.32 74.37 92.38 74.37C103 74.37 132.97 74.37 143.6 74.37Z" id="i3aAFz5lwc"></path><path d="M165.17 60.33C166.65 60.33 167.85 61.53 167.85 63.01C167.85 63.54 167.85 62.47 167.85 63.01C167.85 64.49 166.65 65.69 165.17 65.69C150.23 65.69 108.09 65.69 93.15 65.69C91.67 65.69 90.47 64.49 90.47 63.01C90.47 62.47 90.47 63.54 90.47 63.01C90.47 61.53 91.67 60.33 93.15 60.33C108.09 60.33 150.23 60.33 165.17 60.33Z" id="cC1h9IZh1"></path><path d="M154.1 88.39C155.36 88.39 156.38 89.42 156.38 90.68C156.38 91.29 156.38 90.85 156.38 91.47C156.38 92.73 155.36 93.75 154.1 93.75C141.37 93.75 105.48 93.75 92.75 93.75C91.49 93.75 90.47 92.73 90.47 91.47C90.47 90.85 90.47 91.29 90.47 90.68C90.47 89.42 91.49 88.39 92.75 88.39C105.48 88.39 141.37 88.39 154.1 88.39Z" id="c5rRe9VT48"></path><path d="M150.45 102.32C151.64 102.32 152.6 103.28 152.6 104.47C152.6 105.11 152.6 104.88 152.6 105.52C152.6 106.71 151.64 107.67 150.45 107.67C138.46 107.67 104.62 107.67 92.62 107.67C91.43 107.67 90.47 106.71 90.47 105.52C90.47 104.88 90.47 105.11 90.47 104.47C90.47 103.28 91.43 102.32 92.62 102.32C104.62 102.32 138.46 102.32 150.45 102.32Z" id="a3wE20zV0s"></path></defs><g><g><g><g><use xlink:href="#dOyb8LgRi" opacity="1" fill="#ffffff" fill-opacity="1"></use><g><use xlink:href="#dOyb8LgRi" opacity="1" fill-opacity="0" stroke="#2a3a4a" stroke-width="9" stroke-opacity="1"></use></g></g><g><use xlink:href="#bgXS3vK0E" opacity="1" fill="#2a3a4a" fill-opacity="1"></use><g><use xlink:href="#bgXS3vK0E" opacity="1" fill-opacity="0" stroke="#000000" stroke-width="0" stroke-opacity="1"></use></g></g><g><use xlink:href="#cnFZCrXmn" opacity="1" fill="#ffffff" fill-opacity="1"></use></g><g><use xlink:href="#a2LqggUpaE" opacity="1" fill="#2a3a4a" fill-opacity="1"></use><g><use xlink:href="#a2LqggUpaE" opacity="1" fill-opacity="0" stroke="#2a3a4a" stroke-width="8" stroke-opacity="1"></use></g></g><g><use xlink:href="#a2f86bBvVf" opacity="1" fill="#2a3a4a" fill-opacity="1"></use><g><use xlink:href="#a2f86bBvVf" opacity="1" fill-opacity="0" stroke="#2a3a4a" stroke-width="8" stroke-opacity="1"></use></g></g><g><use xlink:href="#d1ZMl4Dt6Y" opacity="1" fill="#ffffff" fill-opacity="1"></use><g><use xlink:href="#d1ZMl4Dt6Y" opacity="1" fill-opacity="0" stroke="#2a3a4a" stroke-width="9" stroke-opacity="1"></use></g></g><g><use xlink:href="#a8mD31EPG" opacity="1" fill="#2a3a4a" fill-opacity="1"></use><g><use xlink:href="#a8mD31EPG" opacity="1" fill-opacity="0" stroke="#000000" stroke-width="0" stroke-opacity="1"></use></g></g><g><use xlink:href="#agzjEHjb1" opacity="1" fill="#ffffff" fill-opacity="1"></use></g><g><use xlink:href="#axXigr4Io" opacity="1" fill="#ffffff" fill-opacity="1"></use></g><g><use xlink:href="#a17YP9oDyp" opacity="1" fill="#ffffff" fill-opacity="1"></use></g><g><use xlink:href="#i3aAFz5lwc" opacity="1" fill="#2a3a4a" fill-opacity="1"></use></g><g><use xlink:href="#cC1h9IZh1" opacity="1" fill="#2a3a4a" fill-opacity="1"></use></g><g><use xlink:href="#c5rRe9VT48" opacity="1" fill="#2a3a4a" fill-opacity="1"></use></g><g><use xlink:href="#a3wE20zV0s" opacity="1" fill="#2a3a4a" fill-opacity="1"></use></g></g></g></g></svg>