<svg width="194" height="233" viewBox="0 0 194 233" fill="none" xmlns="http://www.w3.org/2000/svg">
<path d="M146.16 184.44H138.88C136.107 184.44 133.68 183.92 131.6 182.88C129.867 181.84 127.787 178.893 125.36 174.04C115.307 180.627 104.907 183.92 94.16 183.92C79.2533 183.92 67.64 179.76 59.32 171.44C51 163.12 46.84 150.64 46.84 134V98.64C46.84 82.3467 51 70.04 59.32 61.72C67.64 53.0533 79.2533 48.72 94.16 48.72H136.8C141.653 48.72 144.08 51.32 144.08 56.52V166.76C155.173 165.72 163.147 162.6 168 157.4C172.853 152.2 175.28 144.573 175.28 134.52V51.32C175.28 30.1733 165.573 19.6 146.16 19.6H84.28C66.6 19.6 51.3467 26.36 38.52 39.88C25.6933 53.0533 19.28 69.8667 19.28 90.32V142.32C19.28 163.12 25.6933 180.107 38.52 193.28C51 206.453 66.2533 213.04 84.28 213.04H143.56C148.067 213.04 150.32 215.813 150.32 221.36V225C150.32 230.2 148.067 232.8 143.56 232.8H84.8C62.6133 232.8 43.0267 224.653 26.04 208.36C9.05334 192.067 0.560002 169.88 0.560002 141.8V90.84C0.560002 63.1067 9.05334 41.0933 26.04 24.8C43.0267 8.50666 62.6133 0.359997 84.8 0.359997H146.16C161.067 0.359997 172.68 5.03999 181 14.4C189.667 23.4133 194 35.5467 194 50.8V135.04C194 150.64 189.667 162.773 181 171.44C172.68 180.107 161.067 184.44 146.16 184.44ZM129.52 76.28C129.52 72.12 128.307 68.8267 125.88 66.4C123.453 63.9733 120.16 62.9333 116 63.28L96.76 65.36C86.7067 66.0533 78.3867 68.8267 71.8 73.68C65.2133 78.5333 61.92 87.0267 61.92 99.16V134C61.92 157.92 72.6667 169.88 94.16 169.88H94.68C117.907 169.88 129.52 158.44 129.52 135.56V76.28Z" fill="black"/>
</svg>
