<svg width="1950" height="685" viewBox="0 0 1950 685" fill="none" xmlns="http://www.w3.org/2000/svg">
<rect width="1948" height="679.455" fill="black" fill-opacity="0" transform="translate(1 5)"/>
<path d="M160.463 149.941L147.963 149.941V149.941H160.463ZM208.08 142.71C214.941 143.474 221.123 138.531 221.887 131.67C222.651 124.809 217.708 118.628 210.847 117.864L208.08 142.71ZM172.963 304.455V149.941H147.963V304.455H172.963ZM172.963 149.941C172.963 145.57 174.058 144.147 174.43 143.732C174.938 143.166 176.195 142.213 179.412 141.573C186.611 140.142 196.426 141.413 208.08 142.71L210.847 117.864C201.196 116.789 186.512 114.672 174.536 117.054C168.167 118.32 161.169 121.074 155.817 127.042C150.33 133.161 147.963 141.098 147.963 149.941L172.963 149.941Z" fill="#97D485"/>
<path d="M173.463 48.601L160.963 48.601V48.601H173.463ZM220.214 28.6063C227.005 29.8485 233.517 25.3504 234.759 18.5596C236.002 11.7687 231.504 5.25657 224.713 4.01433L220.214 28.6063ZM185.963 302.455V48.601H160.963V302.455H185.963ZM185.963 48.6011C185.963 38.8891 187.542 33.5241 189.096 30.6774C190.417 28.2564 191.924 27.2241 193.856 26.5929C196.256 25.809 199.715 25.5673 204.601 26.0459C209.518 26.5275 214.48 27.5573 220.214 28.6063L224.713 4.01433C219.795 3.11475 213.306 1.77887 207.038 1.16493C200.739 0.547978 193.28 0.480869 186.092 2.82901C178.437 5.32995 171.689 10.3871 167.152 18.7004C162.847 26.588 160.963 36.602 160.963 48.601L185.963 48.6011Z" fill="#64A730"/>
<path d="M155.463 99.8015L167.963 99.8014V99.8015H155.463ZM102.029 87.1883C95.1799 88.053 88.9265 83.2016 88.0618 76.3524C87.1971 69.5032 92.0485 63.2499 98.8977 62.3852L102.029 87.1883ZM142.963 296.455V99.8015H167.963V296.455H142.963ZM142.963 99.8015C142.963 93.2711 141.467 90.3454 140.428 89.0311C139.417 87.7532 137.681 86.5308 134.181 85.7417C130.528 84.9178 125.793 84.7704 119.988 85.1629C114.183 85.5553 108.293 86.3974 102.029 87.1883L98.8977 62.3852C104.59 61.6665 111.553 60.676 118.302 60.2198C125.052 59.7635 132.573 59.7514 139.68 61.3539C146.941 62.9911 154.471 66.4861 160.037 73.5237C165.574 80.5249 167.963 89.5129 167.963 99.8014L142.963 99.8015Z" fill="#97D485"/>
<path d="M115.463 167.546L127.963 167.546V167.546H115.463ZM68.589 164.361C61.7134 164.983 55.6358 159.913 55.0142 153.038C54.3925 146.162 59.4623 140.085 66.3378 139.463L68.589 164.361ZM102.963 290.455V167.546H127.963V290.455H102.963ZM102.963 167.546C102.963 166.267 102.76 165.67 102.688 165.495C102.633 165.361 102.598 165.316 102.508 165.234C102.174 164.932 100.845 164.051 97.2968 163.478C89.8591 162.277 79.8379 163.344 68.589 164.361L66.3378 139.463C75.9582 138.593 89.9371 136.966 101.282 138.798C107.125 139.741 113.883 141.808 119.289 146.703C125.155 152.015 127.963 159.307 127.963 167.546L102.963 167.546Z" fill="#64A730"/>
<path d="M193.963 174.455C193.963 167.551 199.56 161.955 206.463 161.955C213.367 161.955 218.963 167.551 218.963 174.455H193.963ZM193.963 355.455V174.455H218.963V355.455H193.963Z" fill="#64A730"/>
<path d="M1562.63 490.605L1550.13 490.605L1550.13 490.605L1562.63 490.605ZM1504.43 426.497C1504.6 419.595 1510.32 414.13 1517.22 414.291C1524.12 414.451 1529.59 420.177 1529.43 427.078L1504.43 426.497ZM1550.13 671.605V490.605H1575.13V671.605H1550.13ZM1550.13 490.605C1550.13 481.733 1544.23 475.899 1532.03 466.713C1526.71 462.705 1519.77 457.703 1514.51 451.834C1508.89 445.575 1504.18 437.298 1504.43 426.497L1529.43 427.078C1529.37 429.549 1530.22 431.912 1533.12 435.139C1536.36 438.757 1540.89 442.088 1547.07 446.742C1557.88 454.881 1575.13 467.683 1575.13 490.605L1550.13 490.605Z" fill="#42A1A9"/>
<path d="M1735.5 538.289C1735.5 545.193 1729.9 550.789 1723 550.789C1716.09 550.789 1710.5 545.193 1710.5 538.289H1735.5ZM1817.19 314.664L1828.96 310.441L1828.96 310.441L1817.19 314.664ZM1749.19 228.467C1749.26 221.563 1754.92 216.026 1761.82 216.099C1768.72 216.172 1774.26 221.827 1774.19 228.73L1749.19 228.467ZM1710.5 538.289V395.793H1735.5V538.289H1710.5ZM1710.5 395.793C1710.5 388.417 1710.19 374.551 1720.51 363.733C1730.64 353.121 1747.89 348.415 1773.75 348.415V373.415C1749.43 373.415 1741.3 378.16 1738.6 380.993C1736.09 383.62 1735.5 387.194 1735.5 395.793H1710.5ZM1773.75 348.415C1794.35 348.415 1801.73 342.044 1804.48 337.596C1807.67 332.442 1807.67 325.152 1805.43 318.888L1828.96 310.441C1832.82 321.21 1834.23 337.046 1825.74 350.758C1816.81 365.178 1799.41 373.415 1773.75 373.415V348.415ZM1805.43 318.888C1803.93 314.722 1801.9 313.274 1799.38 312.33C1795.88 311.016 1791.42 310.734 1784.71 310.464C1779.37 310.248 1770.44 310.106 1763.21 306.515C1759.06 304.451 1755.25 301.212 1752.64 296.418C1750.12 291.803 1749.19 286.61 1749.19 281.284H1774.19C1774.19 283.8 1774.64 284.551 1774.59 284.457C1774.44 284.185 1774.17 284.044 1774.34 284.129C1775.77 284.837 1778.6 285.197 1785.72 285.484C1791.48 285.716 1800.2 285.937 1808.16 288.922C1817.1 292.275 1824.82 298.922 1828.96 310.441L1805.43 318.888ZM1749.19 281.284C1749.19 264.544 1749.06 241.285 1749.19 228.467L1774.19 228.73C1774.06 241.383 1774.19 264.24 1774.19 281.284H1749.19Z" fill="#64A730"/>
<path d="M316.963 354.955C316.963 361.858 311.367 367.455 304.463 367.455C297.56 367.455 291.963 361.858 291.963 354.955H316.963ZM463.463 55.4546C463.463 48.551 469.06 42.9546 475.963 42.9546C482.867 42.9546 488.463 48.551 488.463 55.4546H463.463ZM291.963 354.955V173.955H316.963V354.955H291.963ZM291.963 173.955C291.963 158.842 296.073 140.331 310.706 125.635C325.383 110.894 348.692 101.955 382.963 101.955V126.955C352.835 126.955 336.894 134.765 328.421 143.274C319.904 151.829 316.963 163.067 316.963 173.955H291.963ZM382.963 101.955C403.253 101.955 418.588 101.915 430.497 100.999C442.593 100.069 449.405 98.3195 453.51 96.0043C456.791 94.1541 459.08 91.5491 460.759 85.8309C462.644 79.4109 463.463 69.9701 463.463 55.4546H488.463C488.463 70.1891 487.72 82.7482 484.746 92.8752C481.566 103.704 475.698 112.193 465.791 117.78C456.709 122.902 445.302 124.934 432.414 125.926C419.339 126.931 402.923 126.955 382.963 126.955V101.955Z" fill="#64A730"/>
<circle cx="206.463" cy="175.455" r="9" fill="#EAFFE0"/>
<ellipse cx="100.463" cy="74.9546" rx="10" ry="9.5" fill="#42A1A9"/>
<circle cx="209.463" cy="130.455" r="9" fill="#42A1A9"/>
<path d="M209.91 224.417C209.91 217.513 215.507 211.917 222.41 211.917C229.314 211.917 234.91 217.513 234.91 224.417H209.91ZM209.91 405.417V224.417H234.91V405.417H209.91Z" fill="#42A1A9"/>
<path d="M214.381 19.9547C212.373 15.7115 214.185 10.6438 218.429 8.63576C222.672 6.62774 227.74 8.43979 229.748 12.6831C231.756 16.9264 229.944 21.994 225.7 24.002C221.457 26.0101 216.389 24.198 214.381 19.9547Z" fill="#EAFFE0"/>
<circle cx="222.47" cy="224.787" r="9" fill="#EAFFE0"/>
<circle cx="1517" cy="426.825" r="9" fill="#EAFFE0"/>
<path d="M468.61 59.6095C466.602 55.3662 468.414 50.2986 472.658 48.2905C476.901 46.2825 481.969 48.0946 483.977 52.3379C485.985 56.5811 484.173 61.6488 479.929 63.6568C475.686 65.6649 470.618 63.8528 468.61 59.6095Z" fill="#EAFFE0"/>
<path d="M1754.15 232.923C1752.14 228.68 1753.95 223.612 1758.2 221.604C1762.44 219.596 1767.51 221.408 1769.51 225.651C1771.52 229.895 1769.71 234.962 1765.47 236.97C1761.22 238.978 1756.16 237.166 1754.15 232.923Z" fill="#EAFFE0"/>
<path d="M59.6358 155.757C57.6278 151.514 59.4398 146.446 63.6831 144.438C67.9264 142.43 72.9941 144.242 75.0021 148.485C77.0101 152.729 75.1981 157.796 70.9548 159.804C66.7115 161.812 61.6438 160 59.6358 155.757Z" fill="#EAFFE0"/>
<path d="M1 259.455C1 259.455 151.666 266.675 270.879 311.032C390.093 355.389 475.318 416.766 475.318 416.766C574.24 479.175 675 530.019 792.5 506.455C949.5 474.969 1273.34 446.166 1545.2 541.069C1663.39 582.331 1798.84 491.267 1949 446.166V684.455H1V259.455Z" fill="#FF623B"/>
<circle cx="122.5" cy="371.955" r="2.5" fill="black"/>
<circle cx="173.5" cy="356.955" r="2.5" fill="black"/>
<circle cx="151.5" cy="379.955" r="2.5" fill="black"/>
<circle cx="148.5" cy="364.955" r="2.5" fill="black"/>
<circle cx="189.5" cy="391.955" r="2.5" fill="black"/>
<circle cx="148.5" cy="413.955" r="2.5" fill="black"/>
<circle cx="203.5" cy="366.955" r="2.5" fill="black"/>
<path d="M518.5 670C518.5 676.904 524.096 682.5 531 682.5C537.904 682.5 543.5 676.904 543.5 670H518.5ZM448.5 459C448.5 452.096 442.904 446.5 436 446.5C429.096 446.5 423.5 452.096 423.5 459H448.5ZM543.5 670V542.484H518.5V670H543.5ZM543.5 542.484C543.5 531.87 541.286 518.202 532.478 506.951C523.225 495.131 508.359 488.066 487.516 488.066V513.066C502.347 513.066 509.223 517.801 512.793 522.362C516.808 527.49 518.5 534.781 518.5 542.484H543.5ZM487.516 488.066C476.159 488.066 468.052 488.031 461.872 487.426C455.584 486.811 453.243 485.742 452.322 485.081C451.918 484.791 450.872 484.027 449.958 480.069C448.958 475.74 448.5 469.229 448.5 459H423.5C423.5 469.377 423.907 478.366 425.599 485.694C427.377 493.394 430.849 500.445 437.75 505.395C444.134 509.974 451.885 511.569 459.437 512.308C467.097 513.057 476.577 513.066 487.516 513.066V488.066Z" fill="#97D485"/>
<path d="M1600 455.178C1600 448.274 1605.59 442.678 1612.5 442.678C1619.4 442.678 1625 448.274 1625 455.178H1600ZM1600 636.178V455.178H1625V636.178H1600Z" fill="#64A730"/>
<circle cx="230.5" cy="445.955" r="2.5" fill="black"/>
<path d="M1807.35 639.5C1807.35 646.404 1801.76 652 1794.85 652C1787.95 652 1782.35 646.404 1782.35 639.5H1807.35ZM1794.85 434.587L1782.35 434.587L1782.35 434.587L1794.85 434.587ZM1632.08 287.753C1634.95 281.473 1642.36 278.708 1648.64 281.576C1654.92 284.445 1657.69 291.86 1654.82 298.14L1632.08 287.753ZM1782.35 639.5V434.587H1807.35V639.5H1782.35ZM1782.35 434.587C1782.35 426.557 1780.21 422.46 1777.82 419.974C1775.14 417.187 1770.55 414.782 1762.89 413.175C1755.25 411.574 1745.83 411.019 1734.71 410.931C1723.06 410.839 1712.25 411.219 1698.95 411.219V386.219C1710.38 386.219 1723.93 385.845 1734.9 385.932C1746.4 386.022 1757.86 386.577 1768.02 388.706C1778.14 390.829 1788.26 394.772 1795.83 402.638C1803.69 410.806 1807.35 421.667 1807.35 434.587L1782.35 434.587ZM1698.95 411.219C1673.09 411.219 1653.63 406.432 1639.81 397.147C1625.54 387.556 1618.66 374.078 1616.47 359.964C1614.35 346.304 1616.61 332.152 1620 319.888C1623.42 307.501 1628.26 296.119 1632.08 287.753L1654.82 298.14C1651.2 306.062 1646.99 316.046 1644.09 326.545C1641.16 337.168 1639.82 347.422 1641.17 356.134C1642.45 364.391 1646.1 371.248 1653.76 376.399C1661.88 381.856 1675.75 386.219 1698.95 386.219V411.219Z" fill="#97D485"/>
<path d="M1635.53 296.841C1633.52 292.598 1635.33 287.53 1639.58 285.522C1643.82 283.514 1648.89 285.326 1650.89 289.569C1652.9 293.813 1651.09 298.88 1646.85 300.888C1642.6 302.896 1637.54 301.084 1635.53 296.841Z" fill="#42A1A9"/>
<circle cx="316.5" cy="361.955" r="2.5" fill="black"/>
<path d="M578.5 404C578.5 397.096 584.096 391.5 591 391.5C597.904 391.5 603.5 397.096 603.5 404H578.5ZM578.5 648.5V404H603.5V648.5H578.5Z" fill="#64A730"/>
<circle cx="591" cy="405" r="9" fill="#EAFFE0"/>
<circle cx="436" cy="460" r="9" fill="#42A1A9"/>
<circle cx="79.5" cy="307.955" r="2.5" fill="black"/>
<circle cx="162.5" cy="302.955" r="2.5" fill="black"/>
<circle cx="382.5" cy="416.955" r="2.5" fill="black"/>
<circle cx="362.5" cy="394.955" r="2.5" fill="black"/>
<circle cx="684.5" cy="521.955" r="2.5" fill="black"/>
<circle cx="659.5" cy="516.955" r="2.5" fill="black"/>
<circle cx="670.5" cy="526.955" r="2.5" fill="black"/>
<circle cx="637.5" cy="507.955" r="2.5" fill="black"/>
<circle cx="632.5" cy="531.955" r="2.5" fill="black"/>
<circle cx="1612.41" cy="455.509" r="9" fill="#EAFFE0"/>
<circle cx="398.5" cy="402.955" r="2.5" fill="black"/>
<circle cx="347.5" cy="416.955" r="2.5" fill="black"/>
<circle cx="67.5" cy="405.955" r="2.5" fill="black"/>
<circle cx="65.5" cy="351.955" r="2.5" fill="black"/>
<rect width="5" height="5" fill="black" fill-opacity="0" transform="translate(552 487)"/>
<circle cx="554.5" cy="489.5" r="2.5" fill="black"/>
<rect width="5" height="5" fill="black" fill-opacity="0" transform="translate(232 311.455)"/>
<circle cx="234.5" cy="313.955" r="2.5" fill="black"/>
<rect width="5" height="5" fill="black" fill-opacity="0" transform="translate(312 347.455)"/>
<circle cx="314.5" cy="349.955" r="2.5" fill="black"/>
<rect width="5" height="5" fill="black" fill-opacity="0" transform="translate(449 439.455)"/>
<circle cx="451.5" cy="441.955" r="2.5" fill="black"/>
<rect width="5" height="5" fill="black" fill-opacity="0" transform="translate(150 506.455)"/>
<circle cx="152.5" cy="508.955" r="2.5" fill="black"/>
<rect width="5" height="5" fill="black" fill-opacity="0" transform="translate(331 548.455)"/>
<circle cx="333.5" cy="550.955" r="2.5" fill="black"/>
<rect width="5" height="5" fill="black" fill-opacity="0" transform="translate(353 487.455)"/>
<circle cx="355.5" cy="489.955" r="2.5" fill="black"/>
<rect width="5" height="5" fill="black" fill-opacity="0" transform="translate(467 472)"/>
<circle cx="469.5" cy="474.5" r="2.5" fill="black"/>
<rect width="5" height="5" fill="black" fill-opacity="0" transform="translate(342 376.455)"/>
<circle cx="344.5" cy="378.955" r="2.5" fill="black"/>
<rect width="5" height="5" fill="black" fill-opacity="0" transform="translate(476 527)"/>
<circle cx="478.5" cy="529.5" r="2.5" fill="black"/>
<rect width="5" height="5" fill="black" fill-opacity="0" transform="translate(249 376.455)"/>
<circle cx="251.5" cy="378.955" r="2.5" fill="black"/>
<rect width="5" height="5" fill="black" fill-opacity="0" transform="translate(19 275.455)"/>
<circle cx="21.5" cy="277.955" r="2.5" fill="black"/>
<rect width="5" height="5" fill="black" fill-opacity="0" transform="translate(36 298.455)"/>
<circle cx="38.5" cy="300.955" r="2.5" fill="black"/>
<rect width="5" height="5" fill="black" fill-opacity="0" transform="translate(65 278.455)"/>
<circle cx="67.5" cy="280.955" r="2.5" fill="black"/>
<rect width="5" height="5" fill="black" fill-opacity="0" transform="translate(91 315.455)"/>
<circle cx="93.5" cy="317.955" r="2.5" fill="black"/>
<rect width="5" height="5" fill="black" fill-opacity="0" transform="translate(168 316.455)"/>
<circle cx="170.5" cy="318.955" r="2.5" fill="black"/>
<rect width="5" height="5" fill="black" fill-opacity="0" transform="translate(285 340.455)"/>
<circle cx="287.5" cy="342.955" r="2.5" fill="black"/>
<rect width="5" height="5" fill="black" fill-opacity="0" transform="translate(304 334.455)"/>
<circle cx="306.5" cy="336.955" r="2.5" fill="black"/>
<rect width="5" height="5" fill="black" fill-opacity="0" transform="translate(375 382.455)"/>
<circle cx="377.5" cy="384.955" r="2.5" fill="black"/>
<rect width="5" height="5" fill="black" fill-opacity="0" transform="translate(431 404.455)"/>
<circle cx="433.5" cy="406.955" r="2.5" fill="black"/>
<rect width="5" height="5" fill="black" fill-opacity="0" transform="translate(477 436.455)"/>
<circle cx="479.5" cy="438.955" r="2.5" fill="black"/>
<rect width="5" height="5" fill="black" fill-opacity="0" transform="translate(697 520.455)"/>
<circle cx="699.5" cy="522.955" r="2.5" fill="black"/>
<rect width="5" height="5" fill="black" fill-opacity="0" transform="translate(669 516.455)"/>
<circle cx="671.5" cy="518.955" r="2.5" fill="black"/>
<rect width="5" height="5" fill="black" fill-opacity="0" transform="translate(896 521.455)"/>
<circle cx="898.5" cy="523.955" r="2.5" fill="black"/>
<rect width="5" height="5" fill="black" fill-opacity="0" transform="translate(940 498.455)"/>
<circle cx="942.5" cy="500.955" r="2.5" fill="black"/>
<rect width="5" height="5" fill="black" fill-opacity="0" transform="translate(1038 492.455)"/>
<circle cx="1040.5" cy="494.955" r="2.5" fill="black"/>
<rect width="5" height="5" fill="black" fill-opacity="0" transform="translate(969 513.455)"/>
<circle cx="971.5" cy="515.955" r="2.5" fill="black"/>
<rect width="5" height="5" fill="black" fill-opacity="0" transform="translate(931 495.455)"/>
<circle cx="933.5" cy="497.955" r="2.5" fill="black"/>
<rect width="5" height="5" fill="black" fill-opacity="0" transform="translate(789 518.455)"/>
<circle cx="791.5" cy="520.955" r="2.5" fill="black"/>
<rect width="5" height="5" fill="black" fill-opacity="0" transform="translate(823 535.455)"/>
<circle cx="825.5" cy="537.955" r="2.5" fill="black"/>
<rect width="5" height="5" fill="black" fill-opacity="0" transform="translate(680 587.455)"/>
<rect width="5" height="5" fill="black" fill-opacity="0" transform="translate(1114 497.455)"/>
<circle cx="1116.5" cy="499.955" r="2.5" fill="black"/>
<rect width="5" height="5" fill="black" fill-opacity="0" transform="translate(1103 485.455)"/>
<circle cx="1105.5" cy="487.955" r="2.5" fill="black"/>
<rect width="5" height="5" fill="black" fill-opacity="0" transform="translate(943 531.455)"/>
<circle cx="945.5" cy="533.955" r="2.5" fill="black"/>
<rect width="5" height="5" fill="black" fill-opacity="0" transform="translate(920 514.455)"/>
<circle cx="922.5" cy="516.955" r="2.5" fill="black"/>
<rect width="5" height="5" fill="black" fill-opacity="0" transform="translate(846 560.455)"/>
<circle cx="848.5" cy="562.955" r="2.5" fill="black"/>
<rect width="5" height="5" fill="black" fill-opacity="0" transform="translate(908 505.455)"/>
<circle cx="910.5" cy="507.955" r="2.5" fill="black"/>
<rect width="5" height="5" fill="black" fill-opacity="0" transform="translate(969 495.455)"/>
<circle cx="971.5" cy="497.955" r="2.5" fill="black"/>
<rect width="5" height="5" fill="black" fill-opacity="0" transform="translate(818 541.455)"/>
<circle cx="820.5" cy="543.955" r="2.5" fill="black"/>
<rect width="5" height="5" fill="black" fill-opacity="0" transform="translate(758 567.455)"/>
<circle cx="760.5" cy="569.955" r="2.5" fill="black"/>
<rect width="5" height="5" fill="black" fill-opacity="0" transform="translate(866 533.455)"/>
<circle cx="868.5" cy="535.955" r="2.5" fill="black"/>
<rect width="5" height="5" fill="black" fill-opacity="0" transform="translate(846 523.455)"/>
<circle cx="848.5" cy="525.955" r="2.5" fill="black"/>
<rect width="5" height="5" fill="black" fill-opacity="0" transform="translate(875 514.455)"/>
<circle cx="877.5" cy="516.955" r="2.5" fill="black"/>
<rect width="5" height="5" fill="black" fill-opacity="0" transform="translate(823 517.455)"/>
<circle cx="825.5" cy="519.955" r="2.5" fill="black"/>
<rect width="5" height="5" fill="black" fill-opacity="0" transform="translate(858 510.455)"/>
<circle cx="860.5" cy="512.955" r="2.5" fill="black"/>
<rect width="5" height="5" fill="black" fill-opacity="0" transform="translate(1315 547.455)"/>
<circle cx="1317.5" cy="549.955" r="2.5" fill="black"/>
<rect width="5" height="5" fill="black" fill-opacity="0" transform="translate(1467 547.455)"/>
<circle cx="1469.5" cy="549.955" r="2.5" fill="black"/>
<rect width="5" height="5" fill="black" fill-opacity="0" transform="translate(1313 521.455)"/>
<circle cx="1315.5" cy="523.955" r="2.5" fill="black"/>
<rect width="5" height="5" fill="black" fill-opacity="0" transform="translate(1354 508.455)"/>
<circle cx="1356.5" cy="510.955" r="2.5" fill="black"/>
<rect width="5" height="5" fill="black" fill-opacity="0" transform="translate(1291 501.455)"/>
<circle cx="1293.5" cy="503.955" r="2.5" fill="black"/>
<rect width="5" height="5" fill="black" fill-opacity="0" transform="translate(1200 501.455)"/>
<circle cx="1202.5" cy="503.955" r="2.5" fill="black"/>
<rect width="5" height="5" fill="black" fill-opacity="0" transform="translate(1200 598.455)"/>
<circle cx="1202.5" cy="600.955" r="2.5" fill="black"/>
<rect width="5" height="5" fill="black" fill-opacity="0" transform="translate(1180 562.455)"/>
<circle cx="1182.5" cy="564.955" r="2.5" fill="black"/>
<rect width="5" height="5" fill="black" fill-opacity="0" transform="translate(1136 605.455)"/>
<circle cx="1138.5" cy="607.955" r="2.5" fill="black"/>
<rect width="5" height="5" fill="black" fill-opacity="0" transform="translate(1642 558.455)"/>
<circle cx="1644.5" cy="560.955" r="2.5" fill="black"/>
<rect width="5" height="5" fill="black" fill-opacity="0" transform="translate(1695 582)"/>
<circle cx="1697.5" cy="584.5" r="2.5" fill="black"/>
<rect width="5" height="5" fill="black" fill-opacity="0" transform="translate(1705 544.455)"/>
<circle cx="1707.5" cy="546.955" r="2.5" fill="black"/>
<rect width="5" height="5" fill="black" fill-opacity="0" transform="translate(1680 561.455)"/>
<circle cx="1682.5" cy="563.955" r="2.5" fill="black"/>
<rect width="5" height="5" fill="black" fill-opacity="0" transform="translate(1766 523)"/>
<circle cx="1768.5" cy="525.5" r="2.5" fill="black"/>
<rect width="5" height="5" fill="black" fill-opacity="0" transform="translate(1852 497.455)"/>
<circle cx="1854.5" cy="499.955" r="2.5" fill="black"/>
<rect width="5" height="5" fill="black" fill-opacity="0" transform="translate(1818 547.455)"/>
<circle cx="1820.5" cy="549.955" r="2.5" fill="black"/>
<rect width="5" height="5" fill="black" fill-opacity="0" transform="translate(1693 548.455)"/>
<circle cx="1695.5" cy="550.955" r="2.5" fill="black"/>
<rect width="5" height="5" fill="black" fill-opacity="0" transform="translate(1720 571.455)"/>
<circle cx="1722.5" cy="573.955" r="2.5" fill="black"/>
<rect width="5" height="5" fill="black" fill-opacity="0" transform="translate(1754 545.455)"/>
<circle cx="1756.5" cy="547.955" r="2.5" fill="black"/>
<rect width="5" height="5" fill="black" fill-opacity="0" transform="translate(1901 479.455)"/>
<circle cx="1903.5" cy="481.955" r="2.5" fill="black"/>
<rect width="5" height="5" fill="black" fill-opacity="0" transform="translate(1654 563.455)"/>
<circle cx="1656.5" cy="565.955" r="2.5" fill="black"/>
<rect width="5" height="5" fill="black" fill-opacity="0" transform="translate(1898 528.455)"/>
<circle cx="1900.5" cy="530.955" r="2.5" fill="black"/>
<rect width="5" height="5" fill="black" fill-opacity="0" transform="translate(1902 513.455)"/>
<circle cx="1904.5" cy="515.955" r="2.5" fill="black"/>
<rect width="5" height="5" fill="black" fill-opacity="0" transform="translate(1709 558.455)"/>
<circle cx="1711.5" cy="560.955" r="2.5" fill="black"/>
<rect width="5" height="5" fill="black" fill-opacity="0" transform="translate(1848 573.455)"/>
<circle cx="1850.5" cy="575.955" r="2.5" fill="black"/>
<rect width="5" height="5" fill="black" fill-opacity="0" transform="translate(1446 533.455)"/>
<circle cx="1448.5" cy="535.955" r="2.5" fill="black"/>
<rect width="5" height="5" fill="black" fill-opacity="0" transform="translate(1469 532.455)"/>
<circle cx="1471.5" cy="534.955" r="2.5" fill="black"/>
<rect width="5" height="5" fill="black" fill-opacity="0" transform="translate(1432 516.455)"/>
<circle cx="1434.5" cy="518.955" r="2.5" fill="black"/>
<rect width="5" height="5" fill="black" fill-opacity="0" transform="translate(1575 593.455)"/>
<circle cx="1577.5" cy="595.955" r="2.5" fill="black"/>
<rect width="5" height="5" fill="black" fill-opacity="0" transform="translate(1570 567.455)"/>
<circle cx="1572.5" cy="569.955" r="2.5" fill="black"/>
<path d="M1635.64 492.647C1635.64 485.743 1641.24 480.147 1648.14 480.147C1655.05 480.147 1660.64 485.743 1660.64 492.647H1635.64ZM1635.64 673.647V492.647H1660.64V673.647H1635.64Z" fill="#42A1A9"/>
<rect width="5" height="5" fill="black" fill-opacity="0" transform="translate(1515 551.455)"/>
<circle cx="1517.5" cy="553.955" r="2.5" fill="black"/>
<rect width="5" height="5" fill="black" fill-opacity="0" transform="translate(1427 565)"/>
<circle cx="1429.5" cy="567.5" r="2.5" fill="black"/>
<rect width="5" height="5" fill="black" fill-opacity="0" transform="translate(1398 541.455)"/>
<circle cx="1400.5" cy="543.955" r="2.5" fill="black"/>
<circle cx="1648" cy="493" r="9" fill="#EAFFE0"/>
<rect width="5" height="5" fill="black" fill-opacity="0" transform="translate(1405 526.455)"/>
<circle cx="1407.5" cy="528.955" r="2.5" fill="black"/>
<rect width="5" height="5" fill="black" fill-opacity="0" transform="translate(1210 487.455)"/>
<circle cx="1212.5" cy="489.955" r="2.5" fill="black"/>
<rect width="5" height="5" fill="black" fill-opacity="0" transform="translate(1359 525.455)"/>
<circle cx="1361.5" cy="527.955" r="2.5" fill="black"/>
<rect width="5" height="5" fill="black" fill-opacity="0" transform="translate(1547 553.455)"/>
<circle cx="1549.5" cy="555.955" r="2.5" fill="black"/>
<path d="M330.732 554.358C255.15 525.646 154.524 536.455 1 465.455V684.405C1 684.405 1440.2 684.516 1341.11 684.405C1242.01 684.294 1082.94 632.591 1065.65 627.092C1048.36 621.593 945.422 576.502 725.382 627.092C607.468 654.202 522.201 627.092 330.732 554.358Z" fill="#FFC0AA"/>
<path d="M1797.5 613.955C1853.5 613.955 1905 605.455 1949 584.955V684.405C1949 684.405 1084.07 684.516 1128.5 684.405C1172.93 684.294 907 591.455 1042.5 619.955C1178 648.455 1389.96 614.458 1500.5 605.955C1650 594.455 1684.99 613.955 1797.5 613.955Z" fill="#FFC0AA"/>
<rect width="5" height="5" fill="black" fill-opacity="0" transform="translate(232 650.455)"/>
<circle cx="234.5" cy="652.955" r="2.5" fill="#FF8B64"/>
<rect width="5" height="5" fill="black" fill-opacity="0" transform="translate(10 510.455)"/>
<circle cx="12.5" cy="512.955" r="2.5" fill="#FF8B64"/>
<rect width="5" height="5" fill="black" fill-opacity="0" transform="translate(65 513.455)"/>
<circle cx="67.5" cy="515.955" r="2.5" fill="#FF8B64"/>
<rect width="5" height="5" fill="black" fill-opacity="0" transform="translate(28 522.455)"/>
<circle cx="30.5" cy="524.955" r="2.5" fill="#FF8B64"/>
<rect width="5" height="5" fill="black" fill-opacity="0" transform="translate(28 495.455)"/>
<circle cx="30.5" cy="497.955" r="2.5" fill="#FF8B64"/>
<rect width="5" height="5" fill="black" fill-opacity="0" transform="translate(110 564.455)"/>
<circle cx="112.5" cy="566.955" r="2.5" fill="#FF8B64"/>
<rect width="5" height="5" fill="black" fill-opacity="0" transform="translate(171 535.455)"/>
<circle cx="173.5" cy="537.955" r="2.5" fill="#FF8B64"/>
<rect width="5" height="5" fill="black" fill-opacity="0" transform="translate(196 553.455)"/>
<circle cx="198.5" cy="555.955" r="2.5" fill="#FF8B64"/>
<rect width="5" height="5" fill="black" fill-opacity="0" transform="translate(79 507.455)"/>
<circle cx="81.5" cy="509.955" r="2.5" fill="#FF8B64"/>
<rect width="5" height="5" fill="black" fill-opacity="0" transform="translate(284 559.455)"/>
<circle cx="286.5" cy="561.955" r="2.5" fill="#FF8B64"/>
<rect width="5" height="5" fill="black" fill-opacity="0" transform="translate(310 596.455)"/>
<circle cx="312.5" cy="598.955" r="2.5" fill="#FF8B64"/>
<rect width="5" height="5" fill="black" fill-opacity="0" transform="translate(344 580.455)"/>
<circle cx="346.5" cy="582.955" r="2.5" fill="#FF8B64"/>
<rect width="5" height="5" fill="black" fill-opacity="0" transform="translate(355 587.455)"/>
<circle cx="357.5" cy="589.955" r="2.5" fill="#FF8B64"/>
<rect width="5" height="5" fill="black" fill-opacity="0" transform="translate(635 645.455)"/>
<circle cx="637.5" cy="647.955" r="2.5" fill="#FF8B64"/>
<rect width="5" height="5" fill="black" fill-opacity="0" transform="translate(580 638.455)"/>
<circle cx="582.5" cy="640.955" r="2.5" fill="#FF8B64"/>
<rect width="5" height="5" fill="black" fill-opacity="0" transform="translate(594 653.455)"/>
<circle cx="596.5" cy="655.955" r="2.5" fill="#FF8B64"/>
<rect width="5" height="5" fill="black" fill-opacity="0" transform="translate(903 618.455)"/>
<circle cx="905.5" cy="620.955" r="2.5" fill="#FF8B64"/>
<rect width="5" height="5" fill="black" fill-opacity="0" transform="translate(893 609.455)"/>
<circle cx="895.5" cy="611.955" r="2.5" fill="#FF8B64"/>
<rect width="5" height="5" fill="black" fill-opacity="0" transform="translate(852 620.455)"/>
<circle cx="854.5" cy="622.955" r="2.5" fill="#FF8B64"/>
<rect width="5" height="5" fill="black" fill-opacity="0" transform="translate(964 615.455)"/>
<circle cx="966.5" cy="617.955" r="2.5" fill="#FF8B64"/>
<rect width="5" height="5" fill="black" fill-opacity="0" transform="translate(951 658.455)"/>
<circle cx="953.5" cy="660.955" r="2.5" fill="#FF8B64"/>
<rect width="5" height="5" fill="black" fill-opacity="0" transform="translate(788 623.455)"/>
<circle cx="790.5" cy="625.955" r="2.5" fill="#FF8B64"/>
<rect width="5" height="5" fill="black" fill-opacity="0" transform="translate(795 636.455)"/>
<circle cx="797.5" cy="638.955" r="2.5" fill="#FF8B64"/>
<rect width="5" height="5" fill="black" fill-opacity="0" transform="translate(1113 651.455)"/>
<circle cx="1115.5" cy="653.955" r="2.5" fill="#FF8B64"/>
<rect width="5" height="5" fill="black" fill-opacity="0" transform="translate(1379 636.455)"/>
<circle cx="1381.5" cy="638.955" r="2.5" fill="#FF8B64"/>
<rect width="5" height="5" fill="black" fill-opacity="0" transform="translate(1472 646.455)"/>
<circle cx="1474.5" cy="648.955" r="2.5" fill="#FF8B64"/>
<rect width="5" height="5" fill="black" fill-opacity="0" transform="translate(1542 611.455)"/>
<circle cx="1544.5" cy="613.955" r="2.5" fill="#FF8B64"/>
<rect width="5" height="5" fill="black" fill-opacity="0" transform="translate(1498 633.455)"/>
<circle cx="1500.5" cy="635.955" r="2.5" fill="#FF8B64"/>
<rect width="5" height="5" fill="black" fill-opacity="0" transform="translate(1745 640.455)"/>
<circle cx="1747.5" cy="642.955" r="2.5" fill="#FF8B64"/>
<rect width="5" height="5" fill="black" fill-opacity="0" transform="translate(1907 608.455)"/>
<circle cx="1909.5" cy="610.955" r="2.5" fill="#FF8B64"/>
<rect width="5" height="5" fill="black" fill-opacity="0" transform="translate(1769 631.455)"/>
<circle cx="1771.5" cy="633.955" r="2.5" fill="#FF8B64"/>
<rect width="5" height="5" fill="black" fill-opacity="0" transform="translate(1755 625.455)"/>
<circle cx="1757.5" cy="627.955" r="2.5" fill="#FF8B64"/>
<rect width="5" height="5" fill="black" fill-opacity="0" transform="translate(1484 616.455)"/>
<circle cx="1486.5" cy="618.955" r="2.5" fill="#FF8B64"/>
<path d="M298.236 633.031L283 635.33L297.136 631.547L302.286 624.725L298.236 633.031Z" fill="#BE0000" stroke="#BE0000" stroke-width="3" stroke-linecap="round" stroke-linejoin="round"/>
<path d="M243.594 598.393L247.898 611.838L245.26 598.693L248.768 591.691L243.594 598.393Z" fill="#BE0000" stroke="#BE0000" stroke-width="3" stroke-linecap="round" stroke-linejoin="round"/>
<path d="M294.445 646.916L280 641.554L294.201 645.085L302.009 641.608L294.445 646.916Z" fill="#BE0000" stroke="#BE0000" stroke-width="3" stroke-linecap="round" stroke-linejoin="round"/>
<path d="M280.155 655.432L272.606 642L281.153 653.878L289.357 656.276L280.155 655.432Z" fill="#BE0000" stroke="#BE0000" stroke-width="3" stroke-linecap="round" stroke-linejoin="round"/>
<path d="M232.732 606.299L242.981 616.713L234.449 605.797L234.562 597.684L232.732 606.299Z" fill="#BE0000" stroke="#BE0000" stroke-width="3" stroke-linecap="round" stroke-linejoin="round"/>
<path d="M230.335 620.866L244.963 618.375L230.928 619.191L224.288 614.558L230.335 620.866Z" fill="#BE0000" stroke="#BE0000" stroke-width="3" stroke-linecap="round" stroke-linejoin="round"/>
<rect width="5" height="5" fill="black" fill-opacity="0" transform="translate(1597 619.455)"/>
<circle cx="1599.5" cy="621.955" r="2.5" fill="#FF8B64"/>
<rect width="5" height="5" fill="black" fill-opacity="0" transform="translate(1610 629.455)"/>
<circle cx="1612.5" cy="631.955" r="2.5" fill="#FF8B64"/>
<rect width="83.4416" height="75.9918" fill="black" fill-opacity="0" transform="translate(263.876 556.276) rotate(38.0972)"/>
<path d="M294.754 622.146C299.735 627.41 298.789 619.711 302.196 616.266C305.604 612.821 298.831 612.474 296.697 609.641C293.252 606.233 294.094 595.589 292.188 601.432C290.536 614.561 294.856 624.314 294.754 622.146Z" fill="#BE0000"/>
<path d="M310.8 630.269C307.509 637.607 304.073 627.252 296.735 623.961C289.398 620.669 299.673 616.075 301.277 610.411C304.568 603.074 296.887 587.104 303.339 595.005C313.761 614.335 314.091 622.932 310.8 630.269Z" fill="#E51B1B"/>
<path d="M253.066 599.572C247.121 595.594 254.835 595.171 257.695 591.21C260.555 587.25 261.943 593.858 265.058 595.46C268.94 598.253 279.273 595.552 273.824 598.456C261.174 602.391 250.919 599.853 253.066 599.572Z" fill="#BE0000"/>
<path d="M242.6 585.201C235.896 589.731 246.606 591.294 250.976 597.94C255.346 604.585 258.273 593.661 263.593 591.085C270.297 586.555 287.182 591.31 278.418 586.347C257.805 579.484 249.304 580.67 242.6 585.201Z" fill="#E51B1B"/>
<path d="M270.436 613.569C283.106 623.367 291.72 634.269 284.39 643.748C277.059 653.227 263.801 652.417 251.132 642.619C238.462 632.821 234.343 620.193 241.673 610.714C249.003 601.235 257.767 603.771 270.436 613.569Z" fill="#E51B1B"/>
<path d="M294.754 622.146C299.735 627.41 298.789 619.711 302.196 616.266C305.604 612.821 298.831 612.474 296.697 609.641C293.252 606.233 294.094 595.589 292.188 601.432C290.536 614.561 294.856 624.314 294.754 622.146Z" fill="#BE0000"/>
<path d="M310.8 630.269C307.509 637.607 304.073 627.252 296.735 623.961C289.398 620.669 299.673 616.075 301.277 610.411C304.568 603.074 296.887 587.104 303.339 595.005C313.761 614.335 314.091 622.932 310.8 630.269Z" fill="#E51B1B"/>
<path d="M253.066 599.572C247.121 595.594 254.835 595.171 257.695 591.21C260.555 587.25 261.943 593.858 265.058 595.46C268.94 598.253 279.273 595.552 273.824 598.456C261.174 602.391 250.919 599.853 253.066 599.572Z" fill="#BE0000"/>
<path d="M242.6 585.201C235.896 589.731 246.606 591.294 250.976 597.94C255.346 604.585 258.273 593.661 263.593 591.085C270.297 586.555 287.182 591.31 278.418 586.347C257.805 579.484 249.304 580.67 242.6 585.201Z" fill="#E51B1B"/>
<path d="M270.436 613.569C283.106 623.367 291.72 634.269 284.39 643.748C277.059 653.227 263.801 652.417 251.132 642.619C238.462 632.821 234.343 620.193 241.673 610.714C249.003 601.235 257.767 603.771 270.436 613.569Z" fill="#E51B1B"/>
<path d="M205 515L182 509.5L202 517.5L207.683 535.003L205 515Z" fill="#BE0000" stroke="#BE0000" stroke-width="4" stroke-linecap="round" stroke-linejoin="round"/>
<path d="M196.536 534.262L179.289 510L192.997 534.725L190.425 551.035L196.536 534.262Z" fill="#BE0000" stroke="#BE0000" stroke-width="4" stroke-linecap="round" stroke-linejoin="round"/>
<path d="M49.9471 504.006L75.2392 502.909L51.485 506.623L41.8812 516.868L49.9471 504.006Z" fill="#BE0000" stroke="#BE0000" stroke-width="4" stroke-linecap="round" stroke-linejoin="round"/>
<path d="M55.5477 483.716L77.117 496.97L57 487L45.4999 495.5L55.5477 483.716Z" fill="#BE0000" stroke="#BE0000" stroke-width="4" stroke-linecap="round" stroke-linejoin="round"/>
<path d="M76.1756 542.164C61.3966 537.83 71.3721 550.954 68.8036 560.926C66.235 570.898 79.0423 564.286 85.9922 567.205C95.9646 569.774 105.81 590.219 103.057 577.451C92.0391 551.577 73.6685 538.294 76.1756 542.164Z" fill="#BE0000"/>
<path d="M176.88 538.995C192.053 539.937 178.342 548.97 177.329 559.303C176.317 569.635 166.696 558.988 159.261 559.38C149.144 558.407 133.063 574.425 139.959 563.26C158.974 542.497 180.521 536.183 176.88 538.995Z" fill="#BE0000"/>
<path d="M56.1377 531.363L83.0947 506.414L60.295 532.815L59.2826 553.164L56.1377 531.363Z" fill="#BE0000" stroke="#BE0000" stroke-width="4" stroke-linecap="round" stroke-linejoin="round"/>
<path d="M211.477 554.181C218.938 538.688 197.6 547.281 182.464 539.756C167.328 532.23 173.645 555.423 166.635 565.845C159.174 581.338 123.081 590.679 144.485 590.411C189.678 580.952 204.017 569.675 211.477 554.181Z" fill="#E51B1B"/>
<path d="M130.005 531.886C96.2557 527.456 68.5795 518.114 71.2108 498.068C73.842 478.021 98.6271 468.563 132.376 472.993C166.126 477.423 187.63 492.957 184.999 513.003C182.368 533.05 163.754 536.316 130.005 531.886Z" fill="#E51B1B"/>
<circle cx="112" cy="513" r="9" fill="white"/>
<circle cx="138" cy="518" r="9" fill="white"/>
<circle cx="263.5" cy="615.5" r="2.5" fill="white"/>
<circle cx="272.5" cy="623.5" r="2.5" fill="white"/>
<path d="M38.0193 544.424C36.2088 527.429 53.6012 542.764 70.596 540.954C87.5908 539.143 73.6416 558.577 76.7576 570.693C78.5681 587.688 109.763 608.789 89.4616 601.186C49.6362 576.85 39.8297 561.419 38.0193 544.424Z" fill="#E51B1B"/>
<path d="M687.441 580.507L698.15 574.646L688.682 581.325L686.773 587.85L687.441 580.507Z" fill="#BE0000" stroke="#BE0000" stroke-width="3" stroke-linecap="round" stroke-linejoin="round"/>
<path d="M737.991 591.728L730.975 582.787L736.664 591.955L736.031 598.17L737.991 591.728Z" fill="#BE0000" stroke="#BE0000" stroke-width="3" stroke-linecap="round" stroke-linejoin="round"/>
<path d="M686.336 569.039L698.625 569.152L687.037 570.349L682.199 575.081L686.336 569.039Z" fill="#BE0000" stroke="#BE0000" stroke-width="3" stroke-linecap="round" stroke-linejoin="round"/>
<path d="M694.58 558.76L704.012 566.812L694.276 560.2L687.48 560.622L694.58 558.76Z" fill="#BE0000" stroke="#BE0000" stroke-width="3" stroke-linecap="round" stroke-linejoin="round"/>
<path d="M743.852 582.838L733.261 577.788L742.714 583.681L744.927 589.811L743.852 582.838Z" fill="#BE0000" stroke="#BE0000" stroke-width="3" stroke-linecap="round" stroke-linejoin="round"/>
<path d="M741.514 571.234L731.313 577.076L741.546 572.654L747.809 574.337L741.514 571.234Z" fill="#BE0000" stroke="#BE0000" stroke-width="3" stroke-linecap="round" stroke-linejoin="round"/>
<path d="M693.119 587.747C687.915 585.14 690.8 590.672 689.235 594.187C687.67 597.701 692.818 596.125 695.212 597.676C698.745 599.303 701.131 607.535 700.898 602.625C698.412 592.306 692.43 586.145 693.119 587.747Z" fill="#BE0000"/>
<path d="M678.855 585.992C679.231 579.583 684.726 586.436 691.129 586.92C697.531 587.404 691.171 593.646 691.578 598.34C691.202 604.749 701.451 614.672 694.403 610.482C681.159 598.776 678.479 592.402 678.855 585.992Z" fill="#E51B1B"/>
<path d="M730.595 593.411C736.154 594.789 730.522 597.2 729.511 600.953C728.5 604.707 725.594 600.115 722.817 599.756C719.132 598.709 712.192 603.542 715.433 599.881C723.751 593.491 732.116 592.618 730.595 593.411Z" fill="#BE0000"/>
<path d="M742.468 601.377C746.184 596.152 737.755 597.883 732.615 594.071C727.476 590.26 728.386 599.268 725.149 602.647C721.433 607.872 707.496 608.877 715.436 610.231C732.749 609.8 738.752 606.602 742.468 601.377Z" fill="#E51B1B"/>
<path d="M713.68 587.599C701.459 583.669 691.949 577.809 694.731 568.694C697.513 559.578 707.628 556.591 719.849 560.521C732.07 564.451 738.717 572.828 735.935 581.943C733.154 591.059 725.901 591.529 713.68 587.599Z" fill="#E51B1B"/>
<ellipse cx="1.9836" cy="2.00852" rx="1.9836" ry="2.00852" transform="matrix(-0.939743 0.341882 -0.352433 -0.935837 720.877 585.467)" fill="white"/>
<ellipse cx="1.9836" cy="2.00852" rx="1.9836" ry="2.00852" transform="matrix(-0.939743 0.341882 -0.352433 -0.935837 711.901 581.893)" fill="white"/>
</svg>
