<?xml version="1.0" encoding="UTF-8" standalone="no"?>
<!DOCTYPE svg PUBLIC "-//W3C//DTD SVG 1.1//EN" "http://www.w3.org/Graphics/SVG/1.1/DTD/svg11.dtd">
<svg version="1.1" xmlns="http://www.w3.org/2000/svg" xmlns:xlink="http://www.w3.org/1999/xlink" preserveAspectRatio="xMidYMid meet" viewBox="20.34222661396558 59.625 139.46332894159065 430.9570158984193" width="135.46" height="426.96"><defs><path d="M156.81 484.06C99.57 419.46 83.64 372.98 109.03 344.61C147.1 302.06 142.62 272.94 143.37 243.08C144.11 213.22 131.42 184.1 105.29 166.19C79.16 148.27 68.72 130.37 91.87 96.03C106.1 74.91 108.79 61.96 105.76 60.69C104.08 59.98 102.55 65.34 98.03 72.4C94.4 78.06 88.16 85.04 83.64 89.12C67.86 103.37 61.59 117.97 60.2 135.39C57.21 172.72 96.64 191.95 98.94 215.11C101.24 238.27 89.86 271.03 76.77 286.3C63.69 301.57 32.88 312.51 23.17 367.76C16.7 404.59 27.4 443.35 55.27 484.06L156.81 484.06Z" id="em5F4wni1"></path><path d="M131.73 195.32C130 192.12 127.33 187.96 124.33 184.14C118.23 176.39 106.26 166.22 112.72 172.74C119.18 179.27 121.74 188.06 122.78 192.58C123.82 197.1 124.99 201.94 126.61 211.22C128.24 220.55 127.2 235.44 126.21 241.91C124.67 251.95 117.79 272.47 114.12 281.27C110.45 290.06 101.78 305.34 84.17 319.94C66.22 334.82 60.06 354.4 56.9 374.32C51.98 405.32 64 442.34 92 484.12C92.14 484.33 113.94 484.32 156.4 484.12C156.72 484.12 127.39 450.95 116.95 432.15C112.33 423.81 108.07 415.92 104.69 408.56C102.99 404.85 101.59 401.28 100.49 397.84C97.41 381.53 96.57 371.02 97.96 366.32C100.04 359.27 111.7 339.5 115.41 336.88C119.13 334.25 134.37 310.32 134.53 304.71C134.63 301.14 137.52 297.28 138.97 292.7C140.42 288.13 140.46 287.83 140.46 285.72C140.46 279.94 144.31 268.43 142.06 261.21C139.82 253.99 143.4 261.29 143.13 246.8C142.87 232.31 143.35 231.95 142.71 229.07C142.28 227.14 141.53 223.45 140.46 218L137.47 206.96C137.13 205.66 135.22 201.79 131.73 195.32Z" id="bPSRavmK7"></path><path d="M144.08 454.7C150.01 463.55 150.08 473.91 144.24 477.82C138.4 481.72 128.85 477.71 122.93 468.86C117 460.01 116.93 449.65 122.77 445.74C128.61 441.83 138.16 445.85 144.08 454.7Z" id="b2gEtpAJht"></path><path d="M105.54 385.42C105.72 393.31 101.65 399.81 96.44 399.93C91.24 400.05 86.87 393.74 86.69 385.85C86.51 377.97 90.59 371.47 95.79 371.35C100.99 371.23 105.36 377.54 105.54 385.42Z" id="iPFPrODZ3"></path><path d="M110.31 357.23C107.2 363.87 101.11 367.6 96.73 365.54C92.35 363.49 91.32 356.43 94.44 349.78C97.55 343.14 103.64 339.41 108.02 341.47C112.4 343.52 113.43 350.58 110.31 357.23Z" id="f1wN3rJ8gp"></path><path d="M126.13 330.25C122.8 335.6 117.23 338.15 113.7 335.95C110.17 333.75 110.01 327.62 113.35 322.27C116.68 316.92 122.26 314.37 125.79 316.57C129.31 318.77 129.47 324.9 126.13 330.25Z" id="bLWRUCSQ"></path><path d="M139.75 304.44C138.04 309.79 133.78 313.21 130.25 312.08C126.73 310.95 125.26 305.69 126.97 300.34C128.69 295 132.94 291.57 136.47 292.71C140 293.84 141.47 299.1 139.75 304.44Z" id="d5znHKYU4T"></path><path d="M145.43 281.05C144.92 285.93 141.89 289.61 138.67 289.28C135.45 288.94 133.26 284.7 133.77 279.83C134.28 274.95 137.31 271.26 140.53 271.6C143.75 271.94 145.94 276.17 145.43 281.05Z" id="a5B5EtOv1P"></path><path d="M146.91 260.98C147.03 265.21 144.86 268.71 142.07 268.79C139.28 268.86 136.92 265.49 136.8 261.26C136.68 257.03 138.85 253.53 141.64 253.45C144.43 253.38 146.79 256.75 146.91 260.98Z" id="a30nLkZG2J"></path><path d="M134.71 259.62C134.54 263.85 132.15 267.19 129.36 267.09C126.57 266.98 124.43 263.46 124.6 259.23C124.76 255 127.16 251.65 129.95 251.76C132.74 251.86 134.87 255.39 134.71 259.62Z" id="a3o9Z9Qli"></path><path d="M131.64 278.64C130.94 283.15 127.95 286.43 124.98 285.96C122.01 285.5 120.17 281.46 120.87 276.96C121.58 272.46 124.56 269.18 127.53 269.64C130.5 270.1 132.34 274.14 131.64 278.64Z" id="bdzNGWVsn"></path><path d="M125.52 298.94C123.92 303.93 119.95 307.12 116.67 306.06C113.38 305.01 112.01 300.11 113.61 295.12C115.21 290.14 119.17 286.95 122.46 288C125.75 289.06 127.12 293.96 125.52 298.94Z" id="a4uC2dohS"></path><path d="M111.31 320.86C107.97 326.21 102.4 328.77 98.87 326.57C95.34 324.37 95.19 318.24 98.52 312.89C101.86 307.54 107.43 304.98 110.96 307.18C114.49 309.39 114.64 315.51 111.31 320.86Z" id="e3qFbiyF9"></path><path d="M91.53 346.98C88.08 353.46 81.81 356.87 77.54 354.59C73.27 352.32 72.6 345.21 76.05 338.74C79.5 332.26 85.77 328.85 90.04 331.13C94.31 333.4 94.98 340.51 91.53 346.98Z" id="c11BllXxVQ"></path><path d="M82.99 382.67C83.37 391.07 79.18 398.09 73.64 398.33C68.1 398.58 63.3 391.96 62.93 383.57C62.55 375.17 66.74 368.15 72.28 367.91C77.82 367.66 82.62 374.28 82.99 382.67Z" id="bjPKJIOGq"></path><path d="M92.13 423.9C95.26 432.8 93.03 441.69 87.16 443.75C81.29 445.81 73.99 440.26 70.87 431.36C67.74 422.47 69.97 413.57 75.84 411.51C81.71 409.45 89.01 415 92.13 423.9Z" id="a3lvlqzZ92"></path><path d="M115.31 462.97C121.23 471.82 121.3 482.18 115.46 486.09C109.62 489.99 100.07 485.98 94.15 477.13C88.23 468.28 88.16 457.92 94 454.01C99.83 450.1 109.38 454.12 115.31 462.97Z" id="a1AYNOPhs"></path><path d="M136.66 217.77C137.08 220.14 136.17 222.29 134.62 222.57C133.07 222.84 131.47 221.14 131.04 218.77C130.62 216.39 131.54 214.24 133.09 213.97C134.64 213.69 136.24 215.39 136.66 217.77Z" id="c18qEmNFu9"></path><path d="M118.38 418.37C122.75 426.22 122.09 434.94 116.91 437.82C111.74 440.7 103.98 436.67 99.62 428.82C95.25 420.96 95.9 412.25 101.08 409.37C106.26 406.49 114.01 410.52 118.38 418.37Z" id="bSpitvWja"></path><path d="M146.28 243.77C146.02 247.13 144.07 249.73 141.91 249.56C139.76 249.4 138.22 246.54 138.48 243.18C138.74 239.82 140.7 237.22 142.85 237.39C145 237.55 146.54 240.41 146.28 243.77Z" id="abVxMio2T"></path><path d="M137.7 242.25C137.39 245.6 135.34 248.17 133.12 247.96C130.9 247.76 129.35 244.87 129.65 241.52C129.96 238.16 132.01 235.6 134.23 235.8C136.45 236 138 238.89 137.7 242.25Z" id="c3fg7ekhlG"></path><path d="M138.28 228.3C138.28 230.82 136.94 232.87 135.29 232.87C133.65 232.87 132.31 230.82 132.31 228.3C132.31 225.77 133.65 223.73 135.3 223.73C136.95 223.73 138.28 225.78 138.28 228.3Z" id="cwwVY2Rvx"></path><path d="M145.53 229.11C145.59 231.63 144.31 233.71 142.66 233.76C141.02 233.8 139.63 231.79 139.56 229.26C139.49 226.74 140.78 224.66 142.42 224.62C144.07 224.57 145.46 226.58 145.53 229.11Z" id="a2i5dYXCr3"></path><path d="" id="a1yol7OKH"></path><path d="M137.91 458.85C139.74 462.27 139.41 466.02 137.16 467.23C134.92 468.44 131.6 466.65 129.76 463.23C127.92 459.82 128.26 456.06 130.5 454.85C132.75 453.64 136.07 455.44 137.91 458.85Z" id="i5IWPFEhQp"></path><path d="M109.29 466.76C111.13 470.17 110.8 473.93 108.55 475.14C106.3 476.34 102.98 474.55 101.15 471.14C99.31 467.72 99.64 463.97 101.89 462.76C104.14 461.55 107.45 463.34 109.29 466.76Z" id="bOuYMEx39"></path><path d="M85.92 425.85C87 429.58 85.88 433.18 83.42 433.89C80.97 434.59 78.11 432.14 77.04 428.41C75.96 424.68 77.08 421.08 79.54 420.38C81.99 419.67 84.85 422.13 85.92 425.85Z" id="f1IiOByZLp"></path><path d="M112.95 421.16C114.65 424.31 114.34 427.78 112.27 428.89C110.2 430.01 107.14 428.35 105.44 425.2C103.75 422.05 104.05 418.59 106.13 417.48C108.2 416.36 111.26 418.01 112.95 421.16Z" id="b2ckWxtA2"></path><path d="M77.22 383.09C77.24 386.67 75.35 389.58 73 389.59C70.65 389.61 68.72 386.72 68.7 383.15C68.68 379.58 70.57 376.66 72.92 376.65C75.27 376.64 77.2 379.52 77.22 383.09Z" id="iR7W2LBN3"></path><path d="M100.38 385.61C100.4 389.18 98.51 392.1 96.16 392.11C93.81 392.12 91.88 389.24 91.86 385.66C91.84 382.09 93.73 379.18 96.08 379.17C98.43 379.15 100.35 382.04 100.38 385.61Z" id="i1mgma1cG"></path><path d="M105.8 354.56C104.52 357.07 102.14 358.42 100.49 357.58C98.84 356.73 98.54 354.02 99.82 351.51C101.1 349 103.48 347.65 105.13 348.49C106.78 349.33 107.08 352.05 105.8 354.56Z" id="aArDjtcCa"></path><path d="M87.26 343.91C85.98 346.41 83.61 347.77 81.96 346.92C80.31 346.08 80.01 343.36 81.29 340.86C82.57 338.35 84.94 337 86.59 337.84C88.24 338.68 88.54 341.4 87.26 343.91Z" id="cvIBvkoe4"></path><path d="M108.1 318.05C106.81 320.22 104.6 321.29 103.18 320.44C101.75 319.6 101.64 317.15 102.93 314.98C104.22 312.81 106.42 311.74 107.85 312.59C109.28 313.44 109.39 315.89 108.1 318.05Z" id="a2n7gGNEez"></path><path d="M122.8 327.8C121.51 329.97 119.31 331.04 117.88 330.19C116.45 329.34 116.34 326.89 117.63 324.72C118.92 322.55 121.13 321.48 122.56 322.33C123.98 323.18 124.09 325.63 122.8 327.8Z" id="aHcgfjrDk"></path><path d="M136.34 302.74C135.64 305.03 133.84 306.51 132.34 306.04C130.84 305.58 130.19 303.35 130.89 301.06C131.6 298.78 133.39 297.3 134.9 297.76C136.4 298.22 137.05 300.46 136.34 302.74Z" id="cbyXOfC7H"></path><path d="M122.94 297.56C122.24 299.84 120.45 301.32 118.94 300.86C117.44 300.39 116.79 298.16 117.49 295.88C118.2 293.59 119.99 292.11 121.5 292.57C123 293.04 123.65 295.27 122.94 297.56Z" id="c1JovKBvRZ"></path><path d="M142.26 280.65C142.09 282.67 140.86 284.22 139.53 284.11C138.2 284 137.26 282.26 137.43 280.23C137.6 278.21 138.83 276.66 140.16 276.77C141.49 276.88 142.43 278.62 142.26 280.65Z" id="cCDML4Qqy"></path><path d="M128.88 278.01C128.71 280.03 127.48 281.58 126.15 281.47C124.82 281.36 123.88 279.62 124.05 277.59C124.22 275.57 125.45 274.02 126.78 274.13C128.11 274.25 129.05 275.98 128.88 278.01Z" id="gEC4uIOkl"></path><path d="M131.77 259.12C131.63 260.79 130.62 262.07 129.52 261.98C128.42 261.89 127.64 260.45 127.78 258.78C127.93 257.11 128.94 255.83 130.04 255.92C131.14 256.01 131.91 257.45 131.77 259.12Z" id="b1F1WegBCB"></path><path d="M144.11 261.2C144.04 262.88 143.1 264.2 141.99 264.16C140.89 264.11 140.05 262.72 140.11 261.04C140.18 259.36 141.13 258.04 142.23 258.08C143.34 258.12 144.18 259.52 144.11 261.2Z" id="e1m6zxpTbW"></path><path d="M144.13 243.52C144.04 244.79 143.28 245.78 142.44 245.72C141.6 245.66 141 244.57 141.09 243.29C141.18 242.02 141.94 241.03 142.78 241.09C143.62 241.15 144.23 242.24 144.13 243.52Z" id="b2Nb7xAOe"></path><path d="M135.35 242.1C135.26 243.38 134.5 244.37 133.66 244.31C132.82 244.25 132.21 243.16 132.31 241.88C132.4 240.61 133.16 239.62 134 239.68C134.84 239.74 135.44 240.83 135.35 242.1Z" id="bfpaN5QWF"></path><path d="M143.86 229.15C143.88 230.18 143.35 231.04 142.66 231.05C141.98 231.06 141.41 230.23 141.39 229.19C141.37 228.16 141.91 227.3 142.59 227.29C143.27 227.28 143.84 228.11 143.86 229.15Z" id="fz4esmLEQ"></path><path d="M136.66 228.35C136.64 229.39 136.07 230.22 135.39 230.21C134.71 230.19 134.17 229.34 134.19 228.3C134.21 227.27 134.78 226.44 135.46 226.45C136.14 226.46 136.68 227.31 136.66 228.35Z" id="c1N9eISxf1"></path><path d="M135 218.29C135.06 219.18 134.64 219.93 134.05 219.97C133.47 220.01 132.95 219.33 132.89 218.44C132.83 217.55 133.25 216.8 133.83 216.76C134.42 216.72 134.94 217.41 135 218.29Z" id="gJYhWUw0E"></path><path d="M141.92 217.95C142.09 218.82 141.76 219.62 141.19 219.73C140.61 219.85 140.01 219.23 139.84 218.36C139.67 217.48 140 216.68 140.57 216.57C141.15 216.46 141.75 217.08 141.92 217.95Z" id="cOcvZAhDW"></path><path d="M137 207.47C137.27 208.32 137.04 209.15 136.49 209.33C135.93 209.51 135.26 208.97 134.98 208.13C134.71 207.28 134.94 206.45 135.5 206.27C136.05 206.09 136.73 206.63 137 207.47Z" id="dYqGgJAPz"></path><path d="M134.76 197.93C135.59 199.81 135.26 201.77 134.04 202.31C132.81 202.84 131.15 201.76 130.33 199.88C129.5 198.01 129.83 196.05 131.05 195.51C132.28 194.97 133.94 196.06 134.76 197.93Z" id="cqqXQpVy1"></path><path d="M143.11 217.68C143.5 220.06 142.56 222.2 141.01 222.45C139.46 222.71 137.88 220.99 137.48 218.61C137.09 216.23 138.04 214.09 139.59 213.83C141.14 213.58 142.72 215.3 143.11 217.68Z" id="fixiYg3n1"></path><path d="M138.86 207.01C139.45 208.95 138.9 210.85 137.63 211.23C136.36 211.61 134.85 210.35 134.26 208.4C133.67 206.45 134.23 204.56 135.5 204.18C136.77 203.8 138.28 205.06 138.86 207.01Z" id="e2B2Ha6rnE"></path><path d="M133.16 208.69C133.63 210.3 133.16 211.86 132.11 212.17C131.06 212.48 129.82 211.43 129.35 209.82C128.87 208.21 129.34 206.65 130.39 206.34C131.44 206.03 132.68 207.08 133.16 208.69Z" id="cbsDlfhYcN"></path><path d="M129.98 200.76C130.58 202.32 130.24 203.91 129.22 204.31C128.2 204.7 126.88 203.75 126.27 202.18C125.67 200.62 126.01 199.03 127.03 198.63C128.06 198.24 129.38 199.19 129.98 200.76Z" id="c3tzFG8vc"></path><path d="M129.29 190.44C130.11 192.32 129.79 194.28 128.56 194.81C127.34 195.35 125.68 194.27 124.85 192.39C124.03 190.51 124.35 188.56 125.58 188.02C126.8 187.48 128.47 188.57 129.29 190.44Z" id="b6vHv3SVfm"></path><path d="M141.37 218.11C141.43 219 141 219.75 140.42 219.79C139.84 219.83 139.31 219.14 139.25 218.26C139.19 217.37 139.61 216.62 140.2 216.58C140.78 216.54 141.3 217.22 141.37 218.11Z" id="a5PRa5boO"></path><path d="M137.56 207.21C137.81 208.07 137.56 208.89 137 209.06C136.43 209.22 135.78 208.66 135.53 207.81C135.28 206.96 135.53 206.13 136.09 205.97C136.65 205.8 137.31 206.36 137.56 207.21Z" id="c9gPV3bAk"></path><path d="M133.48 198.43C133.83 199.25 133.67 200.1 133.13 200.32C132.59 200.55 131.88 200.07 131.53 199.25C131.19 198.43 131.34 197.59 131.88 197.36C132.42 197.13 133.14 197.61 133.48 198.43Z" id="a4iYRzMsDf"></path><path d="M128.13 190.94C128.46 191.76 128.3 192.61 127.76 192.83C127.22 193.05 126.5 192.57 126.17 191.74C125.83 190.92 125.99 190.08 126.54 189.85C127.08 189.63 127.79 190.12 128.13 190.94Z" id="c2tSgEKb0"></path><path d="M131.95 208.88C132.15 209.55 131.95 210.2 131.51 210.33C131.07 210.46 130.55 210.02 130.36 209.35C130.16 208.68 130.36 208.03 130.8 207.9C131.24 207.77 131.76 208.21 131.95 208.88Z" id="h2r00VjQkc"></path><path d="M128.88 201.18C129.07 201.84 128.87 202.49 128.43 202.62C127.99 202.75 127.48 202.31 127.28 201.64C127.08 200.97 127.28 200.33 127.72 200.2C128.16 200.07 128.68 200.51 128.88 201.18Z" id="bE8JGYleK"></path></defs><g><g><use xlink:href="#em5F4wni1" opacity="1" fill="#ff623b" fill-opacity="1"></use><g><use xlink:href="#em5F4wni1" opacity="1" fill-opacity="0" stroke="#000000" stroke-width="0" stroke-opacity="1"></use></g></g><g><use xlink:href="#bPSRavmK7" opacity="1" fill="#ff8b64" fill-opacity="1"></use><g><use xlink:href="#bPSRavmK7" opacity="1" fill-opacity="0" stroke="#000000" stroke-width="0" stroke-opacity="1"></use></g></g><g><use xlink:href="#b2gEtpAJht" opacity="1" fill="#ffc0aa" fill-opacity="1"></use><g><use xlink:href="#b2gEtpAJht" opacity="1" fill-opacity="0" stroke="#000000" stroke-width="0" stroke-opacity="1"></use></g></g><g><use xlink:href="#iPFPrODZ3" opacity="1" fill="#ffc0aa" fill-opacity="1"></use></g><g><use xlink:href="#f1wN3rJ8gp" opacity="1" fill="#ffc0aa" fill-opacity="1"></use><g><use xlink:href="#f1wN3rJ8gp" opacity="1" fill-opacity="0" stroke="#000000" stroke-width="0" stroke-opacity="1"></use></g></g><g><use xlink:href="#bLWRUCSQ" opacity="1" fill="#ffc0aa" fill-opacity="1"></use><g><use xlink:href="#bLWRUCSQ" opacity="1" fill-opacity="0" stroke="#000000" stroke-width="0" stroke-opacity="1"></use></g></g><g><use xlink:href="#d5znHKYU4T" opacity="1" fill="#ffc0aa" fill-opacity="1"></use><g><use xlink:href="#d5znHKYU4T" opacity="1" fill-opacity="0" stroke="#000000" stroke-width="0" stroke-opacity="1"></use></g></g><g><use xlink:href="#a5B5EtOv1P" opacity="1" fill="#ffc0aa" fill-opacity="1"></use><g><use xlink:href="#a5B5EtOv1P" opacity="1" fill-opacity="0" stroke="#000000" stroke-width="0" stroke-opacity="1"></use></g></g><g><use xlink:href="#a30nLkZG2J" opacity="1" fill="#ffc0aa" fill-opacity="1"></use><g><use xlink:href="#a30nLkZG2J" opacity="1" fill-opacity="0" stroke="#000000" stroke-width="0" stroke-opacity="1"></use></g></g><g><use xlink:href="#a3o9Z9Qli" opacity="1" fill="#ffc0aa" fill-opacity="1"></use><g><use xlink:href="#a3o9Z9Qli" opacity="1" fill-opacity="0" stroke="#000000" stroke-width="0" stroke-opacity="1"></use></g></g><g><use xlink:href="#bdzNGWVsn" opacity="1" fill="#ffc0aa" fill-opacity="1"></use><g><use xlink:href="#bdzNGWVsn" opacity="1" fill-opacity="0" stroke="#000000" stroke-width="0" stroke-opacity="1"></use></g></g><g><use xlink:href="#a4uC2dohS" opacity="1" fill="#ffc0aa" fill-opacity="1"></use><g><use xlink:href="#a4uC2dohS" opacity="1" fill-opacity="0" stroke="#000000" stroke-width="0" stroke-opacity="1"></use></g></g><g><use xlink:href="#e3qFbiyF9" opacity="1" fill="#ffc0aa" fill-opacity="1"></use><g><use xlink:href="#e3qFbiyF9" opacity="1" fill-opacity="0" stroke="#000000" stroke-width="0" stroke-opacity="1"></use></g></g><g><use xlink:href="#c11BllXxVQ" opacity="1" fill="#ffc0aa" fill-opacity="1"></use><g><use xlink:href="#c11BllXxVQ" opacity="1" fill-opacity="0" stroke="#000000" stroke-width="0" stroke-opacity="1"></use></g></g><g><use xlink:href="#bjPKJIOGq" opacity="1" fill="#ffc0aa" fill-opacity="1"></use><g><use xlink:href="#bjPKJIOGq" opacity="1" fill-opacity="0" stroke="#000000" stroke-width="0" stroke-opacity="1"></use></g></g><g><use xlink:href="#a3lvlqzZ92" opacity="1" fill="#ffc0aa" fill-opacity="1"></use><g><use xlink:href="#a3lvlqzZ92" opacity="1" fill-opacity="0" stroke="#000000" stroke-width="0" stroke-opacity="1"></use></g></g><g><use xlink:href="#a1AYNOPhs" opacity="1" fill="#ffc0aa" fill-opacity="1"></use><g><use xlink:href="#a1AYNOPhs" opacity="1" fill-opacity="0" stroke="#000000" stroke-width="0" stroke-opacity="1"></use></g></g><g><use xlink:href="#c18qEmNFu9" opacity="1" fill="#ffc0aa" fill-opacity="1"></use><g><use xlink:href="#c18qEmNFu9" opacity="1" fill-opacity="0" stroke="#000000" stroke-width="0" stroke-opacity="1"></use></g></g><g><use xlink:href="#bSpitvWja" opacity="1" fill="#ffc0aa" fill-opacity="1"></use><g><use xlink:href="#bSpitvWja" opacity="1" fill-opacity="0" stroke="#000000" stroke-width="0" stroke-opacity="1"></use></g></g><g><use xlink:href="#abVxMio2T" opacity="1" fill="#ffc0aa" fill-opacity="1"></use><g><use xlink:href="#abVxMio2T" opacity="1" fill-opacity="0" stroke="#000000" stroke-width="0" stroke-opacity="1"></use></g></g><g><use xlink:href="#c3fg7ekhlG" opacity="1" fill="#ffc0aa" fill-opacity="1"></use><g><use xlink:href="#c3fg7ekhlG" opacity="1" fill-opacity="0" stroke="#000000" stroke-width="0" stroke-opacity="1"></use></g></g><g><use xlink:href="#cwwVY2Rvx" opacity="1" fill="#ffc0aa" fill-opacity="1"></use><g><use xlink:href="#cwwVY2Rvx" opacity="1" fill-opacity="0" stroke="#000000" stroke-width="0" stroke-opacity="1"></use></g></g><g><use xlink:href="#a2i5dYXCr3" opacity="1" fill="#ffc0aa" fill-opacity="1"></use><g><use xlink:href="#a2i5dYXCr3" opacity="1" fill-opacity="0" stroke="#000000" stroke-width="0" stroke-opacity="1"></use></g></g><g><g><use xlink:href="#a1yol7OKH" opacity="1" fill-opacity="0" stroke="#000000" stroke-width="1" stroke-opacity="1"></use></g></g><g><use xlink:href="#i5IWPFEhQp" opacity="1" fill="#845f53" fill-opacity="1"></use></g><g><use xlink:href="#bOuYMEx39" opacity="1" fill="#845f53" fill-opacity="1"></use></g><g><use xlink:href="#f1IiOByZLp" opacity="1" fill="#845f53" fill-opacity="1"></use></g><g><use xlink:href="#b2ckWxtA2" opacity="1" fill="#845f53" fill-opacity="1"></use></g><g><use xlink:href="#iR7W2LBN3" opacity="1" fill="#845f53" fill-opacity="1"></use></g><g><use xlink:href="#i1mgma1cG" opacity="1" fill="#845f53" fill-opacity="1"></use></g><g><use xlink:href="#aArDjtcCa" opacity="1" fill="#845f53" fill-opacity="1"></use></g><g><use xlink:href="#cvIBvkoe4" opacity="1" fill="#845f53" fill-opacity="1"></use></g><g><use xlink:href="#a2n7gGNEez" opacity="1" fill="#845f53" fill-opacity="1"></use></g><g><use xlink:href="#aHcgfjrDk" opacity="1" fill="#845f53" fill-opacity="1"></use></g><g><use xlink:href="#cbyXOfC7H" opacity="1" fill="#845f53" fill-opacity="1"></use></g><g><use xlink:href="#c1JovKBvRZ" opacity="1" fill="#845f53" fill-opacity="1"></use></g><g><use xlink:href="#cCDML4Qqy" opacity="1" fill="#845f53" fill-opacity="1"></use></g><g><use xlink:href="#gEC4uIOkl" opacity="1" fill="#845f53" fill-opacity="1"></use></g><g><use xlink:href="#b1F1WegBCB" opacity="1" fill="#845f53" fill-opacity="1"></use></g><g><use xlink:href="#e1m6zxpTbW" opacity="1" fill="#845f53" fill-opacity="1"></use></g><g><use xlink:href="#b2Nb7xAOe" opacity="1" fill="#845f53" fill-opacity="1"></use></g><g><use xlink:href="#bfpaN5QWF" opacity="1" fill="#845f53" fill-opacity="1"></use></g><g><use xlink:href="#fz4esmLEQ" opacity="1" fill="#845f53" fill-opacity="1"></use></g><g><use xlink:href="#c1N9eISxf1" opacity="1" fill="#845f53" fill-opacity="1"></use></g><g><use xlink:href="#gJYhWUw0E" opacity="1" fill="#845f53" fill-opacity="1"></use></g><g><use xlink:href="#cOcvZAhDW" opacity="1" fill="#845f53" fill-opacity="1"></use></g><g><use xlink:href="#dYqGgJAPz" opacity="1" fill="#845f53" fill-opacity="1"></use></g><g><use xlink:href="#cqqXQpVy1" opacity="1" fill="#ffc0aa" fill-opacity="1"></use><g><use xlink:href="#cqqXQpVy1" opacity="1" fill-opacity="0" stroke="#000000" stroke-width="0" stroke-opacity="1"></use></g></g><g><use xlink:href="#fixiYg3n1" opacity="1" fill="#ffc0aa" fill-opacity="1"></use><g><use xlink:href="#fixiYg3n1" opacity="1" fill-opacity="0" stroke="#000000" stroke-width="0" stroke-opacity="1"></use></g></g><g><use xlink:href="#e2B2Ha6rnE" opacity="1" fill="#ffc0aa" fill-opacity="1"></use><g><use xlink:href="#e2B2Ha6rnE" opacity="1" fill-opacity="0" stroke="#000000" stroke-width="0" stroke-opacity="1"></use></g></g><g><use xlink:href="#cbsDlfhYcN" opacity="1" fill="#ffc0aa" fill-opacity="1"></use><g><use xlink:href="#cbsDlfhYcN" opacity="1" fill-opacity="0" stroke="#000000" stroke-width="0" stroke-opacity="1"></use></g></g><g><use xlink:href="#c3tzFG8vc" opacity="1" fill="#ffc0aa" fill-opacity="1"></use><g><use xlink:href="#c3tzFG8vc" opacity="1" fill-opacity="0" stroke="#000000" stroke-width="0" stroke-opacity="1"></use></g></g><g><use xlink:href="#b6vHv3SVfm" opacity="1" fill="#ffc0aa" fill-opacity="1"></use><g><use xlink:href="#b6vHv3SVfm" opacity="1" fill-opacity="0" stroke="#000000" stroke-width="0" stroke-opacity="1"></use></g></g><g><use xlink:href="#a5PRa5boO" opacity="1" fill="#845f53" fill-opacity="1"></use></g><g><use xlink:href="#c9gPV3bAk" opacity="1" fill="#845f53" fill-opacity="1"></use></g><g><use xlink:href="#a4iYRzMsDf" opacity="1" fill="#845f53" fill-opacity="1"></use></g><g><use xlink:href="#c2tSgEKb0" opacity="1" fill="#845f53" fill-opacity="1"></use></g><g><use xlink:href="#h2r00VjQkc" opacity="1" fill="#845f53" fill-opacity="1"></use></g><g><use xlink:href="#bE8JGYleK" opacity="1" fill="#845f53" fill-opacity="1"></use></g></g></svg>