<?xml version="1.0" encoding="UTF-8" standalone="no"?>
<!DOCTYPE svg PUBLIC "-//W3C//DTD SVG 1.1//EN" "http://www.w3.org/Graphics/SVG/1.1/DTD/svg11.dtd">
<svg version="1.1" xmlns="http://www.w3.org/2000/svg" xmlns:xlink="http://www.w3.org/1999/xlink" preserveAspectRatio="xMidYMid meet" viewBox="29.713872832369958 30.019724453848482 441.73027554615146 441.7302755461515" width="437.23" height="437.23"><defs><path d="M468.44 250.13C468.44 370.79 370.49 468.75 249.83 468.75C129.17 468.75 31.21 370.79 31.21 250.13C31.21 129.48 129.17 31.52 249.83 31.52C370.49 31.52 468.44 129.48 468.44 250.13Z" id="h1fcsXWRH6"></path><path d="M354.34 241.35C374.13 241.35 390.17 257.4 390.17 277.19C390.17 284.36 390.17 270.02 390.17 277.19C390.17 296.99 374.13 313.03 354.34 313.03C305.43 313.03 194.57 313.03 145.66 313.03C125.87 313.03 109.83 296.99 109.83 277.19C109.83 270.02 109.83 284.36 109.83 277.19C109.83 257.4 125.87 241.35 145.66 241.35C194.57 241.35 305.43 241.35 354.34 241.35Z" id="btxfI4bQr"></path><path d="M379.77 214.05C379.77 258.24 343.9 294.11 299.71 294.11C255.53 294.11 219.65 258.24 219.65 214.05C219.65 169.87 255.53 133.99 299.71 133.99C343.9 133.99 379.77 169.87 379.77 214.05Z" id="b1fLyOKB0Q"></path><path d="M240.76 241.35C240.76 269.75 217.71 292.8 189.32 292.8C160.92 292.8 137.87 269.75 137.87 241.35C137.87 212.96 160.92 189.91 189.32 189.91C217.71 189.91 240.76 212.96 240.76 241.35Z" id="bcG1npwLZ"></path><path d="M306.43 186.02C326.14 186.02 342.11 202 342.11 221.7C342.11 237.93 342.11 250.94 342.11 267.17C342.11 286.88 326.14 302.85 306.43 302.85C296.95 302.85 304.18 302.85 294.7 302.85C274.99 302.85 259.02 286.88 259.02 267.17C259.02 250.94 259.02 237.93 259.02 221.7C259.02 202 274.99 186.02 294.7 186.02C304.18 186.02 296.95 186.02 306.43 186.02Z" id="b1AUPqP6S"></path><clipPath id="cliph2Re2gw1G5"><use xlink:href="#b1AUPqP6S" opacity="1"></use></clipPath><path d="M344.04 253.51C352.91 253.51 360.09 260.69 360.09 269.55C360.09 290.15 360.09 335.91 360.09 356.51C360.09 365.37 352.91 372.55 344.04 372.55C323.44 372.55 277.69 372.55 257.09 372.55C248.22 372.55 241.04 365.37 241.04 356.51C241.04 335.91 241.04 290.15 241.04 269.55C241.04 260.69 248.22 253.51 257.09 253.51C277.69 253.51 323.44 253.51 344.04 253.51Z" id="blamhoZbR"></path><path d="M300.56 253.51L300.56 372.55C273.1 372.55 255.93 372.55 249.06 372.55C244.63 372.55 241.04 368.96 241.04 364.53C241.04 342.33 241.04 283.73 241.04 261.53C241.04 257.1 244.63 253.51 249.06 253.51C255.93 253.51 273.1 253.51 300.56 253.51Z" id="b1yfRviaT2"></path><path d="M302.61 306.79C305.09 306.79 307.09 308.8 307.09 311.27C307.09 316.24 307.09 326.67 307.09 331.64C307.09 334.11 305.09 336.11 302.61 336.11C300.9 336.11 300.23 336.11 298.52 336.11C296.04 336.11 294.04 334.11 294.04 331.64C294.04 326.67 294.04 316.24 294.04 311.27C294.04 308.8 296.04 306.79 298.52 306.79C300.23 306.79 300.9 306.79 302.61 306.79Z" id="b1fxs4J8vb"></path><path d="M317.41 306.79C317.41 316.09 309.86 323.63 300.56 323.63C291.27 323.63 283.72 316.09 283.72 306.79C283.72 297.5 291.27 289.95 300.56 289.95C309.86 289.95 317.41 297.5 317.41 306.79Z" id="bpjCU2665"></path></defs><g><g><use xlink:href="#h1fcsXWRH6" opacity="1" fill="#1ea2b6" fill-opacity="1"></use></g><g><g><use xlink:href="#btxfI4bQr" opacity="1" fill="#ffffff" fill-opacity="1"></use><g><use xlink:href="#btxfI4bQr" opacity="1" fill-opacity="0" stroke="#ffffff" stroke-width="1" stroke-opacity="1"></use></g></g><g><use xlink:href="#b1fLyOKB0Q" opacity="1" fill="#ffffff" fill-opacity="1"></use><g><use xlink:href="#b1fLyOKB0Q" opacity="1" fill-opacity="0" stroke="#ffffff" stroke-width="1" stroke-opacity="1"></use></g></g><g><use xlink:href="#bcG1npwLZ" opacity="1" fill="#ffffff" fill-opacity="1"></use><g><use xlink:href="#bcG1npwLZ" opacity="1" fill-opacity="0" stroke="#ffffff" stroke-width="1" stroke-opacity="1"></use></g></g></g><g><g clip-path="url(#cliph2Re2gw1G5)"><use xlink:href="#b1AUPqP6S" opacity="1" fill-opacity="0" stroke="#4a4a4a" stroke-width="28" stroke-opacity="1"></use></g></g><g><g><use xlink:href="#blamhoZbR" opacity="1" fill="#e1bc00" fill-opacity="1"></use></g><g><use xlink:href="#b1yfRviaT2" opacity="1" fill="#fff000" fill-opacity="1"></use></g></g><g><g><use xlink:href="#b1fxs4J8vb" opacity="1" fill="#1e1e1e" fill-opacity="1"></use></g><g><use xlink:href="#bpjCU2665" opacity="1" fill="#1e1e1e" fill-opacity="1"></use></g></g></g></svg>