<?xml version="1.0" encoding="UTF-8" standalone="no"?>
<!DOCTYPE svg PUBLIC "-//W3C//DTD SVG 1.1//EN" "http://www.w3.org/Graphics/SVG/1.1/DTD/svg11.dtd">
<svg version="1.1" xmlns="http://www.w3.org/2000/svg" xmlns:xlink="http://www.w3.org/1999/xlink" preserveAspectRatio="xMidYMid meet" viewBox="108.32658959537578 132.49407671712623 284.8468208092485 246.11350817055035" width="280.35" height="244.61"><defs><path d="M315.84 135.62L318.94 136.32L322 137.14L325 138.08L327.96 139.13L330.86 140.29L333.7 141.56L336.49 142.94L339.21 144.42L341.87 146L344.46 147.67L346.98 149.45L349.43 151.32L351.8 153.28L354.09 155.32L356.31 157.45L358.44 159.67L360.49 161.96L362.45 164.34L364.31 166.78L366.09 169.3L367.77 171.89L369.35 174.55L370.83 177.27L372.2 180.06L373.47 182.9L374.63 185.8L375.68 188.76L376.62 191.77L377.44 194.82L378.14 197.93L378.72 201.07L379.18 204.26L379.5 207.49L379.7 210.75L379.77 214.05L379.7 217.35L379.5 220.61L379.18 223.84L378.72 227.03L378.14 230.18L377.44 233.28L376.62 236.34L375.68 239.34L374.63 242.3L373.47 245.2L372.88 246.53L373.21 246.72L374.37 247.47L375.5 248.27L376.6 249.1L377.66 249.98L378.69 250.9L379.68 251.85L380.63 252.84L381.55 253.87L382.42 254.93L383.26 256.03L384.05 257.16L384.8 258.31L385.51 259.5L386.17 260.72L386.79 261.97L387.36 263.24L387.88 264.54L388.35 265.86L388.77 267.21L389.13 268.58L389.45 269.97L389.7 271.38L389.91 272.81L390.05 274.25L390.14 275.72L390.17 277.19L390.14 278.67L390.05 280.13L389.91 281.58L389.7 283.01L389.45 284.42L389.13 285.8L388.77 287.17L388.35 288.52L387.88 289.84L387.36 291.14L386.79 292.42L386.17 293.66L385.51 294.88L384.8 296.07L384.05 297.23L383.26 298.36L382.42 299.45L381.55 300.52L380.63 301.54L379.68 302.53L378.69 303.49L377.66 304.4L376.6 305.28L375.5 306.12L374.37 306.91L373.21 307.66L372.02 308.37L370.8 309.03L369.56 309.65L368.29 310.21L366.99 310.73L365.66 311.2L364.32 311.62L362.95 311.99L361.56 312.3L360.15 312.56L358.72 312.77L357.27 312.91L355.81 313L354.34 313.03L145.66 313.03L144.19 313L142.73 312.91L141.28 312.77L139.85 312.56L138.44 312.3L137.05 311.99L135.68 311.62L134.34 311.2L133.01 310.73L131.71 310.21L130.44 309.65L129.2 309.03L127.98 308.37L126.79 307.66L125.63 306.91L124.5 306.12L123.4 305.28L122.34 304.4L121.31 303.49L120.32 302.53L119.37 301.54L118.45 300.52L117.58 299.45L116.74 298.36L115.95 297.23L115.2 296.07L114.49 294.88L113.83 293.66L113.21 292.42L112.64 291.14L112.12 289.84L111.65 288.52L111.23 287.17L110.87 285.8L110.55 284.42L110.3 283.01L110.09 281.58L109.95 280.13L109.86 278.67L109.83 277.19L109.86 275.72L109.95 274.25L110.09 272.81L110.3 271.38L110.55 269.97L110.87 268.58L111.23 267.21L111.65 265.86L112.12 264.54L112.64 263.24L113.21 261.97L113.83 260.72L114.49 259.5L115.2 258.31L115.95 257.16L116.74 256.03L117.58 254.93L118.45 253.87L119.37 252.84L120.32 251.85L121.31 250.9L122.34 249.98L123.4 249.1L124.5 248.27L125.63 247.47L126.79 246.72L127.98 246.02L129.2 245.35L130.44 244.74L131.71 244.17L133.01 243.65L134.34 243.18L135.68 242.76L137.05 242.4L137.89 242.21L137.87 241.35L137.91 239.24L138.04 237.14L138.25 235.06L138.54 233.01L138.92 230.99L139.37 229L139.89 227.03L140.49 225.1L141.17 223.2L141.92 221.34L142.73 219.51L143.62 217.72L144.57 215.97L145.58 214.26L146.66 212.6L147.8 210.98L149 209.41L150.26 207.88L151.58 206.41L152.95 204.98L154.37 203.61L155.84 202.3L157.37 201.04L158.94 199.84L160.56 198.7L162.22 197.62L163.93 196.61L165.68 195.66L167.47 194.77L169.3 193.95L171.16 193.21L173.06 192.53L174.99 191.93L176.96 191.41L178.95 190.96L180.98 190.58L183.02 190.29L185.1 190.08L187.2 189.95L189.32 189.91L191.43 189.95L193.53 190.08L195.61 190.29L197.66 190.58L199.68 190.96L201.67 191.41L203.64 191.93L205.57 192.53L207.47 193.21L209.33 193.95L211.16 194.77L212.95 195.66L214.7 196.61L216.41 197.62L218.07 198.7L219.69 199.84L220.78 200.67L221.28 197.93L221.98 194.82L222.8 191.77L223.74 188.76L224.79 185.8L225.95 182.9L227.22 180.06L228.59 177.27L230.07 174.55L231.65 171.89L233.33 169.3L235.11 166.78L236.98 164.34L238.93 161.96L240.98 159.67L243.11 157.45L245.33 155.32L247.62 153.28L249.99 151.32L252.44 149.45L254.96 147.67L257.55 146L260.21 144.42L262.93 142.94L265.72 141.56L268.56 140.29L271.46 139.13L274.42 138.08L277.43 137.14L280.48 136.32L283.59 135.62L286.73 135.04L289.92 134.59L293.15 134.26L296.41 134.06L299.71 133.99L303.01 134.06L306.27 134.26L309.5 134.59L312.69 135.04L312.69 135.04L315.84 135.62Z" id="c3SaUwLwyY"></path><path d="M305.64 172.73C327.58 172.73 345.38 190.52 345.38 212.47C345.38 230.55 345.38 245.04 345.38 263.11C345.38 285.06 327.58 302.86 305.64 302.86C295.07 302.86 303.13 302.86 292.56 302.86C270.61 302.86 252.82 285.06 252.82 263.11C252.82 245.04 252.82 230.55 252.82 212.47C252.82 190.52 270.61 172.73 292.56 172.73C303.13 172.73 295.07 172.73 305.64 172.73Z" id="c1Jg6shb71"></path><clipPath id="clipb5qHCBGjIK"><use xlink:href="#c1Jg6shb71" opacity="1"></use></clipPath><path d="M347.53 246.01C357.4 246.01 365.4 254.01 365.4 263.88C365.4 286.83 365.4 337.79 365.4 360.74C365.4 370.61 357.4 378.61 347.53 378.61C324.58 378.61 273.62 378.61 250.67 378.61C240.8 378.61 232.8 370.61 232.8 360.74C232.8 337.79 232.8 286.83 232.8 263.88C232.8 254.01 240.8 246.01 250.67 246.01C273.62 246.01 324.58 246.01 347.53 246.01Z" id="d1feEnvvN"></path><path d="M299.1 246.01L299.1 378.61C268.51 378.61 249.39 378.61 241.74 378.61C236.8 378.61 232.8 374.61 232.8 369.67C232.8 344.94 232.8 279.68 232.8 254.95C232.8 250.01 236.8 246.01 241.74 246.01C249.39 246.01 268.51 246.01 299.1 246.01Z" id="d333kOT06H"></path><path d="M317.86 305.36C317.86 315.71 309.45 324.12 299.1 324.12C288.75 324.12 280.34 315.71 280.34 305.36C280.34 295.01 288.75 286.6 299.1 286.6C309.45 286.6 317.86 295.01 317.86 305.36Z" id="b1vM5szUw"></path><path d="M301.38 305.36C304.14 305.36 306.37 307.59 306.37 310.34C306.37 315.88 306.37 327.5 306.37 333.03C306.37 335.78 304.14 338.02 301.38 338.02C299.47 338.02 298.73 338.02 296.82 338.02C294.06 338.02 291.83 335.78 291.83 333.03C291.83 327.5 291.83 315.88 291.83 310.34C291.83 307.59 294.06 305.36 296.82 305.36C298.73 305.36 299.47 305.36 301.38 305.36Z" id="c11ytAC8Hr"></path></defs><g><g><use xlink:href="#c3SaUwLwyY" opacity="1" fill="#ffffff" fill-opacity="1"></use></g><g><g><g clip-path="url(#clipb5qHCBGjIK)"><use xlink:href="#c1Jg6shb71" opacity="1" fill-opacity="0" stroke="#4a4a4a" stroke-width="28" stroke-opacity="1"></use></g></g><g><g><use xlink:href="#d1feEnvvN" opacity="1" fill="#e1bc00" fill-opacity="1"></use></g><g><use xlink:href="#d333kOT06H" opacity="1" fill="#fff000" fill-opacity="1"></use></g><g><use xlink:href="#b1vM5szUw" opacity="1" fill="#1e1e1e" fill-opacity="1"></use></g><g><use xlink:href="#c11ytAC8Hr" opacity="1" fill="#1e1e1e" fill-opacity="1"></use></g></g></g></g></svg>